<svg width="16" height="16" viewBox="0 0 16 16" fill="none" xmlns="http://www.w3.org/2000/svg">
<path fill-rule="evenodd" clip-rule="evenodd" d="M4.79987 2.26693C4.2844 2.26693 3.86654 2.68479 3.86654 3.20026V12.8003C3.86654 13.3157 4.2844 13.7336 4.79987 13.7336H11.1999C11.7153 13.7336 12.1332 13.3157 12.1332 12.8003V3.20027C12.1332 2.6848 11.7153 2.26694 11.1999 2.26694L4.79987 2.26693ZM2.5332 3.20026C2.5332 1.94841 3.54803 0.933592 4.79987 0.933594L11.1999 0.933603C12.4517 0.933605 13.4665 1.94843 13.4665 3.20027V12.8003C13.4665 14.0521 12.4517 15.0669 11.1999 15.0669H4.79987C3.54802 15.0669 2.5332 14.0521 2.5332 12.8003V3.20026ZM5.3332 4.00027C5.3332 3.63208 5.63168 3.33361 5.99987 3.33361H9.99987C10.3681 3.33361 10.6665 3.63208 10.6665 4.00027C10.6665 4.36846 10.3681 4.66694 9.99987 4.66694H5.99987C5.63168 4.66694 5.3332 4.36846 5.3332 4.00027ZM7.3332 11.2003C7.3332 10.8321 7.63168 10.5336 7.99987 10.5336H8.05654C8.42473 10.5336 8.72321 10.8321 8.72321 11.2003V11.2515C8.72321 11.6197 8.42473 11.9182 8.05654 11.9182H7.99987C7.63168 11.9182 7.3332 11.6197 7.3332 11.2515V11.2003Z" fill="#5F7292"/>
</svg>
