<svg width="12" height="12" viewBox="0 0 12 12" fill="none" xmlns="http://www.w3.org/2000/svg">
<g clip-path="url(#clip0_1961_1605)">
<path d="M6.00349 0.749023C3.10662 0.749023 0.758179 3.09746 0.758179 5.99434C0.758179 8.89121 3.10662 11.2385 6.00349 11.2385C8.90036 11.2385 11.2488 8.89004 11.2488 5.99316C11.2488 3.09629 8.90036 0.749023 6.00349 0.749023ZM8.36365 7.67949C8.54997 7.86582 8.54997 8.16816 8.36365 8.35332C8.17732 8.53965 7.87498 8.53965 7.68982 8.35332L6.00349 6.66816L4.31716 8.35332C4.13083 8.53965 3.82849 8.53965 3.64333 8.35332C3.45701 8.16699 3.45701 7.86465 3.64333 7.67949L5.32966 5.99316L3.64333 4.30801C3.45701 4.12168 3.45701 3.81934 3.64333 3.63418C3.82966 3.44785 4.13201 3.44785 4.31716 3.63418L6.00349 5.32051L7.68865 3.63301C7.87497 3.44668 8.17732 3.44668 8.36247 3.63301C8.5488 3.81934 8.5488 4.12168 8.36247 4.30684L6.67732 5.99316L8.36365 7.67949Z" fill="#97A3B7"/>
</g>
<defs>
<clipPath id="clip0_1961_1605">
<rect width="12" height="12" fill="white"/>
</clipPath>
</defs>
</svg>
