<svg width="14" height="14" viewBox="0 0 14 14" fill="none" xmlns="http://www.w3.org/2000/svg">
<g id="&#229;&#133;&#179;&#233;&#151;&#173;">
<rect width="14" height="14" rx="4" fill="#F1F2F5"/>
<path id="Icon (Stroke)" fill-rule="evenodd" clip-rule="evenodd" d="M4.31313 4.31312C4.5084 4.11786 4.82498 4.11786 5.02024 4.31312L7.00002 6.2929L8.9798 4.31312C9.17506 4.11786 9.49164 4.11786 9.68691 4.31312C9.88217 4.50838 9.88217 4.82496 9.68691 5.02023L7.70713 7L9.68691 8.97978C9.88217 9.17505 9.88217 9.49163 9.68691 9.68689C9.49164 9.88215 9.17506 9.88215 8.9798 9.68689L7.00002 7.70711L5.02024 9.68689C4.82498 9.88215 4.5084 9.88215 4.31313 9.68689C4.11787 9.49163 4.11787 9.17505 4.31313 8.97978L6.29291 7L4.31313 5.02023C4.11787 4.82496 4.11787 4.50838 4.31313 4.31312Z" fill="#5F7292"/>
</g>
</svg>
