<svg xmlns="http://www.w3.org/2000/svg" width="14" height="14" viewBox="0 0 14 14" fill="none">
  <path fill-rule="evenodd" clip-rule="evenodd" d="M4.66667 2.36764C4.66667 1.73622 5.15804 1.16666 5.83333 1.16666H8.16667C8.84196 1.16666 9.33333 1.73622 9.33333 2.36764V2.98528C9.33333 2.99674 9.33317 3.00818 9.33285 3.0196H11.6667C11.9888 3.0196 12.25 3.28077 12.25 3.60293C12.25 3.9251 11.9888 4.18626 11.6667 4.18626H11.0828C11.0832 4.19768 11.0833 4.20912 11.0833 4.22058V11.0147C11.0833 11.9872 10.3308 12.8333 9.33333 12.8333H4.66667C3.6692 12.8333 2.91667 11.9872 2.91667 11.0147V4.22058C2.91667 4.20912 2.91683 4.19768 2.91715 4.18626H2.33333C2.01117 4.18626 1.75 3.9251 1.75 3.60293C1.75 3.28077 2.01117 3.0196 2.33333 3.0196H4.66715C4.66683 3.00818 4.66667 2.99674 4.66667 2.98528V2.36764ZM4.09332 4.18626C4.08906 4.1917 4.08333 4.20273 4.08333 4.22058V11.0147C4.08333 11.4066 4.37547 11.6667 4.66667 11.6667H9.33333C9.62453 11.6667 9.91667 11.4066 9.91667 11.0147V4.22058C9.91667 4.20273 9.91094 4.1917 9.90668 4.18626H4.09332ZM5.84332 2.33332C5.83906 2.33876 5.83333 2.34979 5.83333 2.36764V2.98528C5.83333 3.00313 5.83906 3.01416 5.84332 3.0196H8.15668C8.16094 3.01416 8.16667 3.00313 8.16667 2.98528V2.36764C8.16667 2.34979 8.16094 2.33876 8.15668 2.33332H5.84332ZM5.83333 5.49019C6.1555 5.49019 6.41667 5.75135 6.41667 6.07352V9.7794C6.41667 10.1016 6.1555 10.3627 5.83333 10.3627C5.51117 10.3627 5.25 10.1016 5.25 9.7794V6.07352C5.25 5.75135 5.51117 5.49019 5.83333 5.49019ZM8.16667 5.49019C8.48883 5.49019 8.75 5.75135 8.75 6.07352V9.7794C8.75 10.1016 8.48883 10.3627 8.16667 10.3627C7.8445 10.3627 7.58333 10.1016 7.58333 9.7794V6.07352C7.58333 5.75135 7.8445 5.49019 8.16667 5.49019Z" fill="#5F7292"/>
</svg>
