<svg width="12" height="13" viewBox="0 0 12 13" fill="none" xmlns="http://www.w3.org/2000/svg">
<g id="Frame">
<path id="Vector" d="M3.00358 2.82379H1.39356C1.17889 2.82379 1 3.00268 1 3.21735V11.1064C1 11.3211 1.17889 11.5 1.39356 11.5H3.00358C3.21825 11.5 3.39714 11.3211 3.39714 11.1064V3.21735C3.39714 3.00268 3.21825 2.82379 3.00358 2.82379ZM2.55635 4.43381H1.84079C1.64401 4.43381 1.48301 4.27281 1.48301 4.07603C1.48301 3.87925 1.64401 3.71825 1.84079 3.71825H2.55635C2.75313 3.71825 2.91413 3.87925 2.91413 4.07603C2.91413 4.27281 2.75313 4.43381 2.55635 4.43381ZM6.20572 1.5H4.59571C4.38104 1.5 4.20215 1.67889 4.20215 1.89356V11.1064C4.20215 11.3211 4.38104 11.5 4.59571 11.5H6.20572C6.42039 11.5 6.59928 11.3211 6.59928 11.1064V1.89356C6.61717 1.67889 6.43828 1.5 6.20572 1.5ZM5.77639 3.12791H5.06082C4.86404 3.12791 4.70304 2.96691 4.70304 2.77013C4.70304 2.57335 4.86404 2.41234 5.06082 2.41234H5.77639C5.97317 2.41234 6.13417 2.57335 6.13417 2.77013C6.13417 2.96691 5.97317 3.12791 5.77639 3.12791ZM10.5528 10.695L9.05009 2.94902C8.99642 2.75224 8.83542 2.62701 8.63864 2.62701H8.56708L6.99284 2.93113C6.77818 2.96691 6.63506 3.18157 6.67084 3.39624L8.19141 11.1601C8.22719 11.3569 8.38819 11.4821 8.58497 11.4821H8.65653L10.2308 11.178C10.4454 11.1243 10.5886 10.9097 10.5528 10.695ZM8.49553 4.16547L7.77996 4.30859H7.70841C7.54741 4.30859 7.3864 4.18336 7.35063 4.02236C7.31485 3.82558 7.44007 3.6288 7.63685 3.59302L8.35242 3.44991C8.5492 3.41413 8.74597 3.53936 8.78175 3.73614C8.81753 3.93292 8.69231 4.1297 8.49553 4.16547Z" fill="#97A3B7"/>
</g>
</svg>
