<svg width="20" height="20" viewBox="0 0 20 20" fill="none" xmlns="http://www.w3.org/2000/svg">
<g id="Frame">
<path id="Subtract" fill-rule="evenodd" clip-rule="evenodd" d="M5.37699 2.5H15.6807C16.7591 2.5 17.3077 3.03838 17.3094 4.10837V16.4894C17.3094 17.3342 16.5763 17.749 15.8178 17.3427L10.561 14.4002L5.25171 17.3427C4.48477 17.7405 3.75169 17.3427 3.75169 16.4894L3.75 4.10837C3.75 3.04346 4.29854 2.5 5.37699 2.5ZM10.8911 7.68066H7.98761C7.65409 7.68066 7.38321 7.40978 7.38321 7.07625C7.38321 6.74273 7.65409 6.47184 7.98761 6.47184H10.8911C11.2247 6.47184 11.4955 6.74273 11.4955 7.07625C11.4955 7.40978 11.2247 7.68066 10.8911 7.68066ZM7.98761 9.37368H13.0701C13.4036 9.37368 13.6745 9.64456 13.6745 9.97808C13.6745 10.3116 13.4036 10.5825 13.0701 10.5825H7.98761C7.65409 10.5825 7.38321 10.3116 7.38321 9.97808C7.38321 9.64456 7.65409 9.37368 7.98761 9.37368Z" fill="#1776FF"/>
</g>
</svg>
