<svg width="14" height="14" viewBox="0 0 14 14" fill="none" xmlns="http://www.w3.org/2000/svg">
<g id="Frame" clip-path="url(#clip0_63_2290)">
<path id="Vector" d="M6.99991 0.913879C3.62863 0.913879 0.895264 3.64724 0.895264 7.01853C0.895264 10.3898 3.62863 13.1232 6.99991 13.1232C10.3712 13.1232 13.1046 10.3898 13.1046 7.01853C13.1046 3.64726 10.3712 0.913879 6.99991 0.913879ZM10.0008 6.38062L7.44355 9.5995C7.29012 9.77311 7.18817 9.87708 7.00043 9.87708C6.81269 9.87708 6.70318 9.75495 6.55731 9.5995L3.99957 6.38062C3.96424 6.30896 3.94607 6.23124 3.94607 6.15352C3.94607 6.06066 3.97131 5.96931 4.02026 5.88857C4.11009 5.73969 4.27058 5.64077 4.44217 5.64077H9.55816C9.73077 5.64077 9.89074 5.73969 9.98059 5.88857C10.0709 6.03744 10.079 6.22417 10.0008 6.38062Z" fill="#5F7292"/>
</g>
<defs>
<clipPath id="clip0_63_2290">
<rect width="14" height="14" fill="white"/>
</clipPath>
</defs>
</svg>
