<svg width="16" height="16" viewBox="0 0 16 16" fill="none" xmlns="http://www.w3.org/2000/svg">
<g id="&#229;&#143;&#145;&#233;&#128;&#129;">
<path id="Vector" d="M15.7889 8.66452C15.6554 8.95089 15.4279 9.17789 15.1554 9.31446L4.85319 14.514C4.12231 14.8713 3.24035 14.5799 2.86942 13.864C2.70614 13.5183 2.67303 13.1281 2.78606 12.7641L3.91278 9.09628C4.01594 8.76044 4.32616 8.53121 4.6775 8.53121H8.62067C8.9105 8.53003 9.1475 8.29588 9.15411 7.99792C9.15228 7.70458 8.9182 7.46749 8.62067 7.46464H4.68041C4.32767 7.46464 4.01656 7.23363 3.91456 6.89596L2.80274 3.21503C2.57011 2.44733 3.00924 1.62852 3.78628 1.39853C4.14596 1.28547 4.53503 1.31978 4.86985 1.49853L15.1554 6.69803C15.8739 7.06502 16.1631 7.94805 15.7889 8.66452Z" fill="white"/>
</g>
</svg>
