<svg width="14" height="14" viewBox="0 0 14 14" fill="none" xmlns="http://www.w3.org/2000/svg">
<g id="&#229;&#175;&#188;&#229;&#135;&#186;">
<path id="Icon (Stroke)" fill-rule="evenodd" clip-rule="evenodd" d="M10.4479 2.90914L8.70429 2.90923C8.45325 2.90924 8.24973 2.70574 8.24972 2.4547C8.24971 2.20367 8.45321 2.00015 8.70424 2.00014L11.5454 2C11.666 1.99999 11.7816 2.04788 11.8669 2.13313C11.9521 2.21837 12 2.33399 12 2.45455V5.01142C12 5.26246 11.7965 5.46596 11.5455 5.46596C11.2944 5.46596 11.0909 5.26246 11.0909 5.01142V3.55182L7.03688 7.60536C6.85936 7.78286 6.57156 7.78284 6.39406 7.60532C6.21656 7.4278 6.21658 7.13999 6.3941 6.96249L10.4479 2.90914ZM4.15909 2.90909C3.46873 2.90909 2.90909 3.46873 2.90909 4.15908V9.84092C2.90909 10.5313 3.46873 11.0909 4.15909 11.0909H9.84091C10.5313 11.0909 11.0909 10.5313 11.0909 9.84092V7.56815C11.0909 7.31711 11.2944 7.11361 11.5455 7.11361C11.7965 7.11361 12 7.31711 12 7.56815V9.84092C12 11.0333 11.0333 12 9.84091 12H4.15909C2.96666 12 2 11.0333 2 9.84092V4.15908C2 2.96665 2.96666 2 4.15909 2H6.43182C6.68286 2 6.88636 2.20351 6.88636 2.45455C6.88636 2.70558 6.68286 2.90909 6.43182 2.90909H4.15909Z" fill="#5F7292"/>
</g>
</svg>
