<svg width="24" height="24" viewBox="0 0 24 24" fill="none" xmlns="http://www.w3.org/2000/svg">
<rect width="24" height="24" rx="6" fill="url(#paint0_linear_648_1245)"/>
<g clip-path="url(#clip0_648_1245)">
<path d="M12.4643 5.1769C12.3362 5.06297 12.1707 5.00002 11.9992 5C11.8136 5 11.6355 5.07375 11.5043 5.20503C11.373 5.3363 11.2992 5.51435 11.2992 5.7V6.4L11.3041 6.4819C11.3252 6.65907 11.4131 6.8215 11.55 6.93601C11.6868 7.05053 11.8622 7.10848 12.0403 7.09802C12.2184 7.08756 12.3858 7.00949 12.5083 6.87976C12.6307 6.75002 12.699 6.57842 12.6992 6.4V5.7L12.6943 5.6181C12.6743 5.44782 12.5924 5.29083 12.4643 5.1769Z" fill="white"/>
<path d="M6.87898 11.491C6.74925 11.3685 6.57764 11.3002 6.39922 11.3H5.69922L5.61732 11.3049C5.44016 11.326 5.27772 11.4139 5.16321 11.5507C5.0487 11.6875 4.99075 11.8629 5.0012 12.041C5.01166 12.2191 5.08973 12.3865 5.21947 12.509C5.3492 12.6315 5.52081 12.6998 5.69922 12.7H6.39922L6.48112 12.6951C6.65829 12.674 6.82073 12.5861 6.93524 12.4493C7.04975 12.3125 7.1077 12.1371 7.09724 11.959C7.08679 11.7809 7.00872 11.6135 6.87898 11.491Z" fill="white"/>
<path d="M18.2992 11.3C18.4777 11.3002 18.6493 11.3685 18.779 11.491C18.9087 11.6135 18.9868 11.7809 18.9973 11.959C19.0077 12.1371 18.9498 12.3125 18.8353 12.4493C18.7207 12.5861 18.5583 12.674 18.3811 12.6951L18.2992 12.7H17.5992C17.4208 12.6998 17.2492 12.6315 17.1195 12.509C16.9897 12.3865 16.9117 12.2191 16.9012 12.041C16.8908 11.8629 16.9487 11.6875 17.0632 11.5507C17.1777 11.4139 17.3402 11.326 17.5173 11.3049L17.5992 11.3H18.2992Z" fill="white"/>
<path d="M7.47537 6.82148C7.30525 6.83218 7.14488 6.90458 7.02434 7.02511C6.89311 7.15638 6.81939 7.33439 6.81939 7.52001C6.81939 7.70562 6.89311 7.88364 7.02434 8.01491L7.51434 8.50491L7.58014 8.56301C7.72084 8.6718 7.89766 8.72295 8.07471 8.70609C8.25176 8.68922 8.41575 8.6056 8.53337 8.4722C8.65099 8.33881 8.71343 8.16564 8.708 7.98788C8.70257 7.81011 8.62969 7.64108 8.50414 7.51511L8.01414 7.02511L7.94834 6.96701C7.81366 6.86253 7.64548 6.81079 7.47537 6.82148Z" fill="white"/>
<path d="M15.9843 7.0251C16.1103 6.89956 16.2793 6.82667 16.4571 6.82124C16.6349 6.81581 16.808 6.87825 16.9414 6.99587C17.0748 7.1135 17.1585 7.27749 17.1753 7.45453C17.1922 7.63158 17.141 7.80841 17.0322 7.9491L16.9741 8.0149L16.4841 8.5049C16.3582 8.63044 16.1891 8.70333 16.0114 8.70876C15.8336 8.71419 15.6604 8.65175 15.5271 8.53413C15.3937 8.4165 15.31 8.25251 15.2932 8.07547C15.2763 7.89842 15.3275 7.72159 15.4362 7.5809L15.4943 7.5151L15.9843 7.0251Z" fill="white"/>
<path d="M9.92822 16.0833H11.4896V13.5313H12.5104V16.0833H14.0718C14.1839 15.6025 14.5876 15.1865 14.9035 14.8609C15.0143 14.7467 15.1143 14.6437 15.1872 14.5528C15.7479 13.8536 16.0833 12.966 16.0833 12C16.0833 9.74484 14.2552 7.91667 12 7.91667C9.74484 7.91667 7.91667 9.74484 7.91667 12C7.91667 12.9655 8.25173 13.8527 8.81191 14.5517C8.88493 14.6428 8.98519 14.7462 9.09627 14.8607C9.41237 15.1865 9.81601 15.6027 9.92822 16.0833Z" fill="white"/>
<path d="M14.0417 17.6146V17.1042H9.95833V17.6146C9.95833 18.1784 10.4154 18.6354 10.9792 18.6354H13.0208C13.5846 18.6354 14.0417 18.1784 14.0417 17.6146Z" fill="white"/>
</g>
<defs>
<linearGradient id="paint0_linear_648_1245" x1="0" y1="24" x2="24" y2="0" gradientUnits="userSpaceOnUse">
<stop offset="0.0674074" stop-color="#FE9E17"/>
<stop offset="0.918934" stop-color="#FFECD0"/>
</linearGradient>
<clipPath id="clip0_648_1245">
<rect width="14" height="14" fill="white" transform="translate(5 5)"/>
</clipPath>
</defs>
</svg>
