<svg width="20" height="20" viewBox="0 0 20 20" fill="none" xmlns="http://www.w3.org/2000/svg">
<path d="M12.8852 1.25372H5.28126C3.75665 1.25372 2.5209 2.48966 2.5209 4.01407V15.9858C2.5209 17.5104 3.75684 18.7461 5.28126 18.7461H14.7635C16.2881 18.7461 17.5238 17.5102 17.5238 15.9858V5.8924C17.5238 5.27072 17.277 4.67462 16.8373 4.23517L14.5424 1.94025C14.1029 1.50073 13.5067 1.25379 12.8852 1.25372Z" fill="#4FD397"/>
<path d="M16.8373 4.23517L14.5424 1.94025C14.2131 1.61101 13.7932 1.3873 13.3363 1.29767V3.87345C13.3363 4.69122 13.9992 5.35411 14.817 5.35411H17.4609C17.361 4.93045 17.1451 4.54299 16.8373 4.23517ZM13.0908 7.45861H10.1166C10.0544 7.44585 9.99017 7.44585 9.92792 7.45861H6.9537C6.69492 7.45861 6.48495 7.66857 6.48495 7.92736C6.48495 8.18615 6.69492 8.39611 6.9537 8.39611H9.55351V13.4494C9.55351 13.7082 9.76347 13.9182 10.0223 13.9182C10.281 13.9182 10.491 13.7082 10.491 13.4494V8.39611H13.0908C13.3496 8.39611 13.5596 8.18615 13.5596 7.92736C13.5596 7.66857 13.3496 7.45861 13.0908 7.45861Z" fill="#19BC6E"/>
<path d="M13.0908 7.22423H10.1166C10.0544 7.21147 9.99017 7.21147 9.92792 7.22423H6.9537C6.69492 7.22423 6.48495 7.43419 6.48495 7.69298C6.48495 7.95177 6.69492 8.16173 6.9537 8.16173H9.55351V13.215C9.55351 13.4738 9.76347 13.6838 10.0223 13.6838C10.281 13.6838 10.491 13.4738 10.491 13.215V8.16173H13.0908C13.3496 8.16173 13.5596 7.95177 13.5596 7.69298C13.5596 7.43419 13.3496 7.22423 13.0908 7.22423Z" fill="white"/>
</svg>
