<svg width="20" height="20" viewBox="0 0 20 20" fill="none" xmlns="http://www.w3.org/2000/svg">
<path d="M15.3934 18.1295H4.65118C3.14103 18.1295 1.91681 16.9053 1.91681 15.3951V4.65292C1.91681 3.14277 3.14103 1.91855 4.65118 1.91855H15.3934C16.9035 1.91855 18.1277 3.14277 18.1277 4.65292V15.3951C18.1277 16.9053 16.9035 18.1295 15.3934 18.1295Z" fill="#FFC757"/>
<path d="M15.0428 12.5961L13.7232 10.3107C13.4225 9.78964 12.6703 9.78964 12.3695 10.3107L11.1193 12.4764L8.79492 8.45018C8.49414 7.92928 7.74238 7.92928 7.4416 8.45018L5.04785 12.5965C4.74707 13.1174 5.12304 13.7685 5.7246 13.7685H14.366C14.9676 13.7683 15.3436 13.1172 15.0428 12.5961Z" fill="#EF9F2B"/>
<path d="M11.6231 7.58223C11.7414 7.84294 11.9584 8.04598 12.2264 8.14668C12.4945 8.24738 12.7915 8.23749 13.0522 8.11919C13.3129 8.00088 13.5159 7.78386 13.6166 7.51585C13.7173 7.24785 13.7075 6.95081 13.5892 6.6901C13.4709 6.42939 13.2538 6.22635 12.9858 6.12565C12.7178 6.02495 12.4208 6.03484 12.1601 6.15314C11.8994 6.27145 11.6963 6.48847 11.5956 6.75648C11.4949 7.02448 11.5048 7.32151 11.6231 7.58223Z" fill="#EF9F2B"/>
<path d="M15.0428 12.3617L13.7232 10.0764C13.4225 9.55526 12.6703 9.55526 12.3695 10.0764L11.1193 12.242L8.79492 8.21581C8.49414 7.69491 7.74238 7.69491 7.4416 8.21581L5.04785 12.3621C4.74707 12.883 5.12304 13.5342 5.7246 13.5342H14.366C14.9676 13.534 15.3436 12.8828 15.0428 12.3617Z" fill="white"/>
<path d="M11.6231 7.34785C11.6817 7.47695 11.7651 7.59324 11.8687 7.6901C11.9722 7.78696 12.0938 7.86248 12.2265 7.91234C12.3592 7.96221 12.5004 7.98545 12.6421 7.98073C12.7838 7.97602 12.9231 7.94344 13.0522 7.88486C13.1813 7.82628 13.2976 7.74284 13.3945 7.63932C13.4913 7.53579 13.5669 7.4142 13.6167 7.2815C13.6666 7.14879 13.6898 7.00756 13.6851 6.86587C13.6804 6.72418 13.6478 6.58481 13.5892 6.45572C13.5306 6.32662 13.4472 6.21032 13.3437 6.11346C13.2401 6.01661 13.1186 5.94109 12.9858 5.89122C12.8531 5.84136 12.7119 5.81812 12.5702 5.82283C12.4285 5.82755 12.2892 5.86013 12.1601 5.91871C12.031 5.97729 11.9147 6.06072 11.8178 6.16425C11.721 6.26777 11.6455 6.38936 11.5956 6.52207C11.5457 6.65478 11.5225 6.79601 11.5272 6.93769C11.532 7.07938 11.5645 7.21875 11.6231 7.34785Z" fill="white"/>
</svg>
