<svg width="20" height="20" viewBox="0 0 20 20" fill="none" xmlns="http://www.w3.org/2000/svg">
<path d="M15.3934 18.1295H4.65118C3.14103 18.1295 1.91681 16.9053 1.91681 15.3951V4.65292C1.91681 3.14277 3.14103 1.91855 4.65118 1.91855H15.3934C16.9035 1.91855 18.1277 3.14277 18.1277 4.65292V15.3951C18.1277 16.9053 16.9035 18.1295 15.3934 18.1295Z" fill="#FF7878"/>
<path d="M13.3242 6.3828C13.3242 6.30304 13.3067 6.22425 13.2728 6.15205C13.2389 6.07984 13.1895 6.01599 13.1281 5.96503C13.0668 5.91411 12.9949 5.87734 12.9177 5.85732C12.8405 5.8373 12.7598 5.83453 12.6815 5.84921L7.57247 6.80702C7.31564 6.85507 7.1297 7.07929 7.1297 7.34062L7.13322 12.2258C6.99318 12.1742 6.84513 12.1479 6.69591 12.148C5.99747 12.148 5.43146 12.7142 5.43146 13.4125C5.43146 14.1109 5.99767 14.6769 6.69591 14.6769C7.39415 14.6769 7.96036 14.1107 7.96036 13.4125V8.80409L12.4973 7.95351V11.268C12.3572 11.2164 12.2092 11.1901 12.06 11.1902C11.3615 11.1902 10.7955 11.7564 10.7955 12.4547C10.7955 13.1529 11.3617 13.7191 12.06 13.7191C12.7582 13.7191 13.3244 13.1529 13.3244 12.4547C13.3242 12.4314 13.3242 6.3828 13.3242 6.3828Z" fill="#EF5252"/>
<path d="M13.3242 6.14843C13.3242 6.06866 13.3067 5.98988 13.2728 5.91767C13.2389 5.84546 13.1895 5.78161 13.1281 5.73065C13.0668 5.67974 12.9949 5.64296 12.9177 5.62295C12.8405 5.60293 12.7598 5.60016 12.6815 5.61483L7.57247 6.57265C7.31564 6.62069 7.1297 6.84491 7.1297 7.10624L7.13322 11.9914C6.99318 11.9399 6.84513 11.9135 6.69591 11.9137C5.99747 11.9137 5.43146 12.4799 5.43146 13.1781C5.43146 13.8766 5.99767 14.4426 6.69591 14.4426C7.39415 14.4426 7.96036 13.8764 7.96036 13.1781V8.56972L12.4973 7.71913V11.0336C12.3572 10.982 12.2092 10.9557 12.06 10.9558C11.3615 10.9558 10.7955 11.5221 10.7955 12.2203C10.7955 12.9185 11.3617 13.4848 12.06 13.4848C12.7582 13.4848 13.3244 12.9185 13.3244 12.2203C13.3242 12.1971 13.3242 6.14843 13.3242 6.14843Z" fill="white"/>
</svg>
