<svg width="20" height="20" viewBox="0 0 20 20" fill="none" xmlns="http://www.w3.org/2000/svg">
<path d="M12.8852 1.25372H5.28126C3.75665 1.25372 2.5209 2.48966 2.5209 4.01407V15.9858C2.5209 17.5104 3.75684 18.7461 5.28126 18.7461H14.7635C16.2881 18.7461 17.5238 17.5102 17.5238 15.9858V5.8924C17.5238 5.27072 17.277 4.67462 16.8373 4.23517L14.5424 1.94025C14.1029 1.50073 13.5067 1.25379 12.8852 1.25372Z" fill="#53B7F4"/>
<path d="M16.8373 4.23517L14.5424 1.94025C14.2131 1.61101 13.7932 1.3873 13.3363 1.29767V3.87345C13.3363 4.69122 13.9992 5.35411 14.817 5.35411H17.4609C17.361 4.93045 17.1451 4.54299 16.8373 4.23517ZM8.02675 7.96798C7.84374 7.78497 7.54687 7.78497 7.36386 7.96798L5.3705 9.96115C5.18749 10.1442 5.18749 10.441 5.3705 10.624L7.36367 12.6172C7.40714 12.6608 7.4588 12.6954 7.51568 12.7189C7.57256 12.7425 7.63354 12.7546 7.69511 12.7545C7.81503 12.7545 7.93515 12.7088 8.02656 12.6172C8.20956 12.4342 8.20956 12.1373 8.02656 11.9543L6.36484 10.2926L8.02656 8.63087C8.20976 8.44786 8.20976 8.15099 8.02675 7.96798ZM12.6807 7.96798C12.4977 7.78497 12.2008 7.78497 12.0178 7.96798C11.8348 8.15099 11.8348 8.44786 12.0178 8.63087L13.6795 10.2926L12.0178 11.9543C11.8348 12.1373 11.8348 12.4342 12.0178 12.6172C12.1094 12.7088 12.2293 12.7545 12.3492 12.7545C12.4691 12.7545 12.5891 12.7088 12.6807 12.6172L14.6738 10.624C14.8568 10.441 14.8568 10.1442 14.6738 9.96115L12.6807 7.96798ZM11.0613 7.04103C10.8144 6.9631 10.5512 7.10001 10.4732 7.34689L8.67753 13.035C8.5996 13.2818 8.73652 13.5451 8.98339 13.6231C9.03027 13.6379 9.07792 13.6449 9.1246 13.6449C9.32363 13.6449 9.50839 13.517 9.57148 13.3172L11.3672 7.62911C11.4451 7.38224 11.3082 7.11896 11.0613 7.04103Z" fill="#29A3D3"/>
<path d="M8.02675 7.73358C7.84374 7.55058 7.54687 7.55058 7.36386 7.73358L5.3705 9.72675C5.18749 9.90976 5.18749 10.2066 5.3705 10.3896L7.36367 12.3828C7.40714 12.4264 7.4588 12.461 7.51568 12.4845C7.57256 12.5081 7.63354 12.5202 7.69511 12.5201C7.81503 12.5201 7.93515 12.4744 8.02656 12.3828C8.20956 12.1998 8.20956 11.9029 8.02656 11.7199L6.36484 10.0582L8.02656 8.39647C8.20976 8.21347 8.20976 7.91659 8.02675 7.73358ZM14.674 9.72675L12.6807 7.73358C12.4977 7.55058 12.2008 7.55058 12.0178 7.73358C11.8348 7.91659 11.8348 8.21347 12.0178 8.39647L13.6795 10.0582L12.0178 11.7199C11.8348 11.9029 11.8348 12.1998 12.0178 12.3828C12.1094 12.4744 12.2293 12.5201 12.3492 12.5201C12.4691 12.5201 12.5891 12.4744 12.6807 12.3828L14.6738 10.3896C14.857 10.2066 14.857 9.90995 14.674 9.72675ZM11.0613 6.80663C10.8144 6.7287 10.5512 6.86562 10.4732 7.11249L8.67753 12.8006C8.5996 13.0475 8.73652 13.3107 8.98339 13.3887C9.03027 13.4035 9.07792 13.4105 9.1246 13.4105C9.32363 13.4105 9.50839 13.2826 9.57148 13.0828L11.3672 7.39472C11.4451 7.14784 11.3082 6.88456 11.0613 6.80663Z" fill="white"/>
</svg>
