<svg width="20" height="20" viewBox="0 0 20 20" fill="none" xmlns="http://www.w3.org/2000/svg">
<path d="M1.27539 14.7539V5.27148C1.27539 3.74609 2.51172 2.51172 4.03516 2.51172H16.0059C17.5312 2.51172 18.7656 3.74805 18.7656 5.27148V14.7539C18.7656 16.2793 17.5293 17.5137 16.0059 17.5137H4.03711C2.51172 17.5137 1.27539 16.2773 1.27539 14.7539Z" fill="#8B72F7"/>
<path d="M10.8848 7.94141H6.01562C5.58398 7.94141 5.23438 8.29102 5.23438 8.72266V11.7676C5.23438 12.1992 5.58398 12.5488 6.01562 12.5488H10.8848C11.3164 12.5488 11.666 12.1992 11.666 11.7676V8.72266C11.666 8.29297 11.3164 7.94141 10.8848 7.94141ZM14.4297 8.06055L12.793 9.58984C12.4121 9.94531 12.4121 10.5469 12.793 10.9023L14.4297 12.4316C14.707 12.6914 15.1621 12.4941 15.1621 12.1152V8.37695C15.1621 7.99805 14.707 7.80078 14.4297 8.06055Z" fill="#7463EA"/>
<path d="M10.8848 7.70703H6.01562C5.58398 7.70703 5.23438 8.05664 5.23438 8.48828V11.5332C5.23438 11.9648 5.58398 12.3145 6.01562 12.3145H10.8848C11.3164 12.3145 11.666 11.9648 11.666 11.5332V8.48828C11.666 8.05859 11.3164 7.70703 10.8848 7.70703ZM14.4297 7.82617L12.793 9.35547C12.4121 9.71094 12.4121 10.3125 12.793 10.668L14.4297 12.1973C14.707 12.457 15.1621 12.2598 15.1621 11.8809V8.14258C15.1621 7.76367 14.707 7.56641 14.4297 7.82617Z" fill="white"/>
</svg>
