<svg width="20" height="20" viewBox="0 0 20 20" fill="none" xmlns="http://www.w3.org/2000/svg">
<path d="M12.8852 1.25372H5.28126C3.75665 1.25372 2.5209 2.48966 2.5209 4.01407V15.9858C2.5209 17.5104 3.75684 18.7461 5.28126 18.7461H14.7635C16.2881 18.7461 17.5238 17.5102 17.5238 15.9858V5.8924C17.5238 5.27072 17.277 4.67462 16.8373 4.23517L14.5424 1.94025C14.1029 1.50073 13.5067 1.25379 12.8852 1.25372Z" fill="#C7DADD"/>
<path d="M16.8373 4.23517L14.5424 1.94025C14.2131 1.61101 13.7932 1.3873 13.3363 1.29767V3.87345C13.3363 4.69122 13.9992 5.35411 14.817 5.35411H17.4609C17.361 4.93045 17.1451 4.54299 16.8373 4.23517ZM10.0103 5.7797C8.40683 5.7797 7.10214 7.08439 7.10214 8.6879C7.10214 8.93263 7.30038 9.13087 7.54511 9.13087C7.78984 9.13087 7.98808 8.93263 7.98808 8.6879C7.98808 7.57286 8.89531 6.66564 10.0103 6.66564C10.55 6.66564 11.0576 6.87618 11.4398 7.25841C11.8221 7.64064 12.0326 8.14845 12.0326 8.6879C12.0326 9.10021 11.9094 9.49669 11.6764 9.83458C11.4482 10.1651 11.1316 10.4184 10.7603 10.5666C10.0355 10.8563 9.56738 11.5412 9.56738 12.3113V12.3438C9.56738 12.5885 9.76562 12.7867 10.0103 12.7867C10.2551 12.7867 10.4533 12.5885 10.4533 12.3438V12.3113C10.4533 11.9055 10.7029 11.5436 11.0893 11.3893C11.623 11.176 12.0781 10.8123 12.4057 10.3377C12.7412 9.85138 12.9185 9.28087 12.9185 8.6879C12.9185 7.91173 12.6158 7.18146 12.0662 6.63185C11.5168 6.08243 10.7865 5.7797 10.0103 5.7797Z" fill="#9DC0C9"/>
<path d="M9.78465 14.6535C9.85631 14.6832 9.93311 14.6985 10.0107 14.6985C10.0882 14.6985 10.165 14.6832 10.2367 14.6535C10.3084 14.6239 10.3735 14.5804 10.4283 14.5255C10.4832 14.4707 10.5267 14.4055 10.5564 14.3339C10.5861 14.2622 10.6013 14.1854 10.6013 14.1079C10.6013 14.0303 10.586 13.9535 10.5564 13.8818C10.5267 13.8102 10.4832 13.7451 10.4283 13.6902C10.3735 13.6354 10.3084 13.5919 10.2367 13.5622C10.165 13.5325 10.0882 13.5172 10.0107 13.5172C9.9331 13.5172 9.85629 13.5325 9.78463 13.5622C9.71297 13.5918 9.64786 13.6353 9.59301 13.6902C9.53816 13.745 9.49465 13.8102 9.46497 13.8818C9.43529 13.9535 9.42001 14.0303 9.42001 14.1078C9.42001 14.1854 9.43529 14.2622 9.46498 14.3339C9.49466 14.4055 9.53817 14.4706 9.59302 14.5255C9.64787 14.5803 9.71299 14.6238 9.78465 14.6535Z" fill="#9DC0C9"/>
<path d="M12.0781 6.39278C11.5285 5.84317 10.7985 5.54044 10.0223 5.54044C8.41876 5.54044 7.11407 6.84512 7.11407 8.44864C7.11407 8.69337 7.31232 8.89161 7.55704 8.89161C7.80177 8.89161 8.00001 8.69337 8.00001 8.44864C8.00001 7.3336 8.90724 6.42637 10.0223 6.42637C10.5619 6.42637 11.0695 6.63692 11.4518 7.01915C11.834 7.40137 12.0445 7.90919 12.0445 8.44864C12.0445 8.86094 11.9213 9.25743 11.6883 9.59532C11.4602 9.92579 11.1436 10.1791 10.7723 10.3273C10.0475 10.617 9.57931 11.302 9.57931 12.0721V12.1045C9.57931 12.3492 9.77755 12.5475 10.0223 12.5475C10.267 12.5475 10.4652 12.3492 10.4652 12.1045V12.0721C10.4652 11.6662 10.7149 11.3043 11.1012 11.15C11.635 10.9367 12.0901 10.5731 12.4176 10.0984C12.7531 9.61211 12.9305 9.04161 12.9305 8.44864C12.9305 7.67247 12.6277 6.94239 12.0781 6.39278Z" fill="white"/>
<path d="M9.43164 13.8689C9.43164 13.9465 9.44692 14.0233 9.4766 14.095C9.50628 14.1666 9.54979 14.2317 9.60463 14.2866C9.65948 14.3414 9.72459 14.3849 9.79624 14.4146C9.8679 14.4443 9.9447 14.4596 10.0223 14.4596C10.0998 14.4596 10.1766 14.4443 10.2483 14.4146C10.3199 14.3849 10.3851 14.3414 10.4399 14.2866C10.4947 14.2317 10.5383 14.1666 10.5679 14.095C10.5976 14.0233 10.6129 13.9465 10.6129 13.8689C10.6129 13.7914 10.5976 13.7146 10.5679 13.6429C10.5383 13.5713 10.4947 13.5062 10.4399 13.4513C10.3851 13.3965 10.3199 13.353 10.2483 13.3233C10.1766 13.2936 10.0998 13.2783 10.0223 13.2783C9.9447 13.2783 9.8679 13.2936 9.79624 13.3233C9.72459 13.353 9.65948 13.3965 9.60463 13.4513C9.54979 13.5062 9.50628 13.5713 9.4766 13.6429C9.44692 13.7146 9.43164 13.7914 9.43164 13.8689Z" fill="white"/>
</svg>
