<svg width="20" height="20" viewBox="0 0 20 20" fill="none" xmlns="http://www.w3.org/2000/svg">
<path d="M12.8648 1.24902H5.26093C3.73632 1.24902 2.50058 2.48496 2.50058 4.00938V15.9811C2.50058 17.5057 3.73652 18.7414 5.26093 18.7414H14.7432C16.2678 18.7414 17.5035 17.5055 17.5035 15.9811V5.8875C17.5035 5.26582 17.2566 4.66973 16.817 4.23027L14.5221 1.93535C14.0825 1.49589 13.4864 1.24902 12.8648 1.24902Z" fill="#FF7878"/>
<path d="M16.817 4.23029L14.5221 1.93536C14.1928 1.60612 13.773 1.38242 13.316 1.29279V3.86857C13.316 4.68634 13.9789 5.34923 14.7967 5.34923H17.4406C17.3406 4.9256 17.1247 4.53816 16.817 4.23029ZM12.6805 10.8318C12.2354 10.8318 11.7942 10.8965 11.3492 10.9803C10.8244 10.4967 10.3793 9.9256 10.0408 9.28966C10.4022 8.10548 10.4211 7.30216 10.1473 6.9213C10.0217 6.75372 9.81251 6.64708 9.59962 6.64708C9.32579 6.62814 9.07091 6.75372 8.94532 6.98595C8.56505 7.62189 9.11642 8.87072 9.3713 9.37716C9.07833 10.2871 8.717 11.1553 8.25314 12.0006C6.24493 12.8688 6.20294 13.3979 6.20294 13.5883C6.20294 13.8205 6.32853 14.0527 6.56056 14.1594C6.64415 14.2203 6.76974 14.2432 6.87618 14.2432C7.4049 14.2432 8.0172 13.6492 8.6715 12.4842C9.49689 12.1453 10.3184 11.8711 11.1858 11.6809C11.6309 12.0615 12.1785 12.2748 12.749 12.3168C13.1104 12.3168 13.8065 12.3168 13.7988 11.5934C13.8217 11.3192 13.6733 10.8547 12.6805 10.8318ZM6.9049 13.6026L6.84122 13.6254C7.02872 13.3508 7.27599 13.1371 7.59083 13.0074C7.42599 13.2859 7.19728 13.4957 6.9049 13.6026ZM9.49454 7.30646C9.51447 7.2838 9.55646 7.26056 9.58048 7.26056L9.65021 7.2838C9.75802 7.64337 9.75802 8.02208 9.62618 8.37794C9.47072 8.04083 9.40685 7.66232 9.49454 7.30646ZM10.591 11.4063C10.1299 11.5137 9.62325 11.6635 9.16212 11.8322L9.11427 11.851L9.12052 11.8131C9.35118 11.3449 9.56271 10.8535 9.75177 10.3623L9.77443 10.3145L9.79728 10.3432C10.0317 10.7039 10.3285 11.0758 10.6461 11.3943L10.591 11.4063ZM12.7623 11.6715C12.55 11.6529 12.3416 11.6121 12.1295 11.5084C12.319 11.4676 12.4858 11.4676 12.6752 11.4676C13.0959 11.4676 13.1793 11.5715 13.183 11.6307C13.0578 11.6715 12.91 11.6938 12.7623 11.6715Z" fill="#F25555"/>
<path d="M12.675 11.2332C12.4856 11.2332 12.3188 11.2332 12.1293 11.274C12.3416 11.3779 12.55 11.4186 12.7621 11.4371C12.91 11.4594 13.0578 11.4371 13.1828 11.3963C13.1791 11.3371 13.0957 11.2332 12.675 11.2332ZM9.79728 10.1088L9.77443 10.0801L9.75177 10.1279C9.56271 10.6191 9.35099 11.1106 9.12052 11.5787L9.11427 11.6166L9.16212 11.5979C9.62325 11.4289 10.1299 11.2793 10.591 11.1719L10.6459 11.16C10.3285 10.8412 10.0317 10.4695 9.79728 10.1088ZM9.6504 7.04922L9.58068 7.02598C9.55665 7.02598 9.51466 7.04922 9.49474 7.07188C9.40685 7.42774 9.47072 7.80626 9.62657 8.14317C9.75822 7.78751 9.75822 7.40899 9.6504 7.04922ZM6.84122 13.391L6.9049 13.3682C7.19728 13.2613 7.42599 13.0516 7.59083 12.7731C7.27599 12.9027 7.02872 13.1164 6.84122 13.391ZM12.749 12.0824C12.1785 12.0406 11.6309 11.8273 11.1858 11.4465C10.3186 11.6369 9.49689 11.9109 8.6715 12.2498C8.0172 13.4148 7.4049 14.0088 6.87618 14.0088C6.76974 14.0088 6.64415 13.9859 6.56056 13.925C6.32853 13.8184 6.20294 13.5861 6.20294 13.3539C6.20294 13.1635 6.24474 12.6344 8.25314 11.7662C8.7172 10.9209 9.07853 10.0527 9.3713 9.14278C9.11642 8.63633 8.56486 7.38751 8.94532 6.75157C9.07091 6.51934 9.3256 6.39376 9.59962 6.4127C9.81271 6.4127 10.0219 6.51934 10.1473 6.68692C10.4211 7.06758 10.4022 7.8711 10.0408 9.05528C10.3793 9.69122 10.8244 10.2623 11.3492 10.7459C11.7943 10.6621 12.2356 10.5975 12.6805 10.5975C13.6733 10.6203 13.8215 11.0848 13.7986 11.359C13.8065 12.0824 13.1104 12.0824 12.749 12.0824Z" fill="white"/>
</svg>
