<svg width="20" height="20" viewBox="0 0 20 20" fill="none" xmlns="http://www.w3.org/2000/svg">
<path d="M12.8648 1.24902H5.26093C3.73632 1.24902 2.50058 2.48496 2.50058 4.00938V15.9811C2.50058 17.5057 3.73652 18.7414 5.26093 18.7414H14.7432C16.2678 18.7414 17.5035 17.5055 17.5035 15.9811V5.8875C17.5035 5.26582 17.2566 4.66973 16.817 4.23027L14.5221 1.93535C14.0825 1.49589 13.4864 1.24902 12.8648 1.24902Z" fill="#53D39C"/>
<path d="M12.8025 7.59415C12.6195 7.41114 12.3226 7.41114 12.1396 7.59415L9.97655 9.75724L7.81346 7.59415C7.63046 7.41114 7.33358 7.41114 7.15057 7.59415C6.96757 7.77716 6.96757 8.07404 7.15057 8.25704L9.31366 10.4201L7.15038 12.5832C6.96737 12.7662 6.96737 13.0631 7.15038 13.2461C7.24198 13.3377 7.3619 13.3834 7.48182 13.3834C7.60175 13.3834 7.72167 13.3377 7.81327 13.2461L9.97655 11.083L12.1394 13.2461C12.231 13.3377 12.351 13.3834 12.4709 13.3834C12.5908 13.3834 12.7107 13.3377 12.8023 13.2461C12.9853 13.0631 12.9853 12.7662 12.8023 12.5832L10.6394 10.4201L12.8025 8.25704C12.9855 8.07404 12.9855 7.77716 12.8025 7.59415ZM16.817 4.23029L14.5221 1.93536C14.1928 1.60612 13.7729 1.38242 13.316 1.29279V3.86857C13.316 4.68634 13.9789 5.34923 14.7967 5.34923H17.4406C17.3406 4.9256 17.1247 4.53816 16.817 4.23029Z" fill="#25BF79"/>
<path d="M10.6394 10.1857L12.8025 8.02265C12.9855 7.83964 12.9855 7.54277 12.8025 7.35976C12.6195 7.17675 12.3226 7.17675 12.1396 7.35976L9.97655 9.52285L7.81346 7.35976C7.63046 7.17675 7.33358 7.17675 7.15057 7.35976C6.96757 7.54277 6.96757 7.83964 7.15057 8.02265L9.31366 10.1857L7.15038 12.3488C6.96737 12.5318 6.96737 12.8287 7.15038 13.0117C7.24198 13.1033 7.3619 13.149 7.48182 13.149C7.60175 13.149 7.72167 13.1033 7.81327 13.0117L9.97655 10.8486L12.1394 13.0117C12.231 13.1033 12.351 13.149 12.4709 13.149C12.5908 13.149 12.7107 13.1033 12.8023 13.0117C12.9853 12.8287 12.9853 12.5318 12.8023 12.3488L10.6394 10.1857Z" fill="white"/>
</svg>
