<svg width="20" height="20" viewBox="0 0 20 20" fill="none" xmlns="http://www.w3.org/2000/svg">
<path d="M12.8668 1.25763H5.26288C3.73827 1.25763 2.50253 2.49357 2.50253 4.01798V15.9897C2.50253 17.5143 3.73847 18.75 5.26288 18.75H14.7451C16.2697 18.75 17.5055 17.5141 17.5055 15.9897V5.89611C17.5055 5.27443 17.2586 4.67833 16.8189 4.23888L14.524 1.94396C14.0845 1.5045 13.4883 1.25762 12.8668 1.25763Z" fill="#53B7F4"/>
<path d="M12.6533 7.04394C12.3945 7.04394 12.1846 7.2539 12.1846 7.51269V11.9318L10.3418 10.1098C10.1596 9.92968 9.86641 9.9291 9.68379 10.1088L7.82324 11.9369V7.4998C7.82324 7.24101 7.61328 7.03105 7.35449 7.03105C7.0957 7.03105 6.88574 7.24101 6.88574 7.4998V13.0547C6.88574 13.2435 6.99902 13.4139 7.17324 13.4869C7.2584 13.5226 7.35221 13.5324 7.4429 13.515C7.53359 13.4976 7.61712 13.4538 7.68301 13.3891L10.0113 11.1016L12.3238 13.3881C12.4116 13.4749 12.5301 13.5235 12.6535 13.5234C12.7143 13.5234 12.7756 13.5115 12.834 13.4873C12.9193 13.4517 12.9922 13.3916 13.0435 13.3146C13.0947 13.2376 13.1221 13.1472 13.1221 13.0547V7.51269C13.1221 7.2539 12.9123 7.04394 12.6533 7.04394ZM16.8189 4.23886L14.524 1.94394C14.1948 1.6147 13.7749 1.391 13.318 1.30136V3.87714C13.318 4.69492 13.9809 5.35781 14.7986 5.35781H17.4426C17.3427 4.93414 17.1267 4.54668 16.8189 4.23886Z" fill="#29A3D3"/>
<path d="M12.6535 13.2891C12.5324 13.2891 12.4133 13.2422 12.3238 13.1537L10.0113 10.8672L7.68301 13.1547C7.61714 13.2194 7.53361 13.2633 7.44291 13.2807C7.35222 13.2981 7.2584 13.2883 7.17324 13.2526C7.08806 13.2169 7.01532 13.1568 6.96417 13.0799C6.91302 13.003 6.88573 12.9127 6.88574 12.8203V7.26544C6.88574 7.00665 7.0957 6.79669 7.35449 6.79669C7.61328 6.79669 7.82324 7.00665 7.82324 7.26544V11.7027L9.68379 9.87462C9.8666 9.69513 10.1598 9.69552 10.3418 9.8756L12.1846 11.6977V7.27833C12.1846 7.01954 12.3945 6.80958 12.6533 6.80958C12.9121 6.80958 13.1221 7.01954 13.1221 7.27833V12.8203C13.1221 13.0094 13.0084 13.1801 12.834 13.2529C12.7768 13.2767 12.7155 13.289 12.6535 13.2891Z" fill="white"/>
</svg>
