<svg xmlns="http://www.w3.org/2000/svg" width="12" height="14" viewBox="0 0 12 14" fill="none">
<path fill-rule="evenodd" clip-rule="evenodd" d="M0.950249 2.79989C0.950256 1.75056 1.80091 0.899902 2.85025 0.899902H9.15038C10.1997 0.899902 11.0504 1.75058 11.0504 2.79994L11.0502 11.1999C11.0502 12.2493 10.1995 13.0999 9.15021 13.0999L2.85019 13.0999C1.80084 13.0999 0.950189 12.2492 0.950195 11.1999L0.950249 2.79989ZM2.85025 1.8999C2.3532 1.8999 1.95025 2.30284 1.95025 2.7999L1.9502 11.1999C1.95019 11.6969 2.35313 12.0999 2.85019 12.0999L9.15022 12.0999C9.64727 12.0999 10.0502 11.697 10.0502 11.1999L10.0504 2.79992C10.0504 2.30286 9.64744 1.8999 9.15038 1.8999H2.85025ZM3.40041 4.1999C3.40041 3.92376 3.62427 3.6999 3.90041 3.6999H8.10041C8.37656 3.6999 8.60041 3.92376 8.60041 4.1999C8.60041 4.47604 8.37656 4.6999 8.10041 4.6999H3.90041C3.62427 4.6999 3.40041 4.47604 3.40041 4.1999ZM3.40041 6.2999C3.40041 6.02376 3.62427 5.7999 3.90041 5.7999H8.10041C8.37656 5.7999 8.60041 6.02376 8.60041 6.2999C8.60041 6.57604 8.37656 6.7999 8.10041 6.7999H3.90041C3.62427 6.7999 3.40041 6.57604 3.40041 6.2999ZM3.40041 8.3999C3.40041 8.12376 3.62427 7.8999 3.90041 7.8999H6.00041C6.27656 7.8999 6.50041 8.12376 6.50041 8.3999C6.50041 8.67604 6.27656 8.8999 6.00041 8.8999H3.90041C3.62427 8.8999 3.40041 8.67604 3.40041 8.3999Z" fill="#1776FF"/>
</svg>