<svg width="20" height="20" viewBox="0 0 20 20" fill="none" xmlns="http://www.w3.org/2000/svg">
<path d="M12.8848 1.25391H5.28125C3.75586 1.25391 2.52148 2.49023 2.52148 4.01367V15.9844C2.52148 17.5098 3.75781 18.7441 5.28125 18.7441H14.7637C16.2891 18.7441 17.5234 17.5078 17.5234 15.9844V5.89258C17.5234 5.27148 17.2773 4.67578 16.8379 4.23438L14.543 1.93945C14.1035 1.5 13.5059 1.25391 12.8848 1.25391Z" fill="#F98950"/>
<path d="M16.8379 4.23438L14.543 1.93945C14.2109 1.60742 13.791 1.38672 13.3379 1.29688V3.87305C13.3379 4.69141 14 5.35352 14.8184 5.35352H17.4609C17.3613 4.93359 17.1484 4.54492 16.8379 4.23438Z" fill="#F26C38"/>
<path d="M7.21484 7.79883C7.21484 8.0195 7.51054 8.23113 8.03689 8.38716C8.56324 8.5432 9.27712 8.63086 10.0215 8.63086C10.7659 8.63086 11.4797 8.5432 12.0061 8.38716C12.5324 8.23113 12.8281 8.0195 12.8281 7.79883C12.8281 7.57816 12.5324 7.36653 12.0061 7.21049C11.4797 7.05446 10.7659 6.9668 10.0215 6.9668C9.27712 6.9668 8.56324 7.05446 8.03689 7.21049C7.51054 7.36653 7.21484 7.57816 7.21484 7.79883Z" fill="#F26C38"/>
<path d="M10.0215 10.3926C11.5703 10.3926 12.8281 10.0195 12.8281 9.56055V8.42188C12.8281 8.40625 12.8262 8.38867 12.8242 8.37305C12.7402 8.81055 11.5176 9.1582 10.0234 9.1582C8.5293 9.1582 7.30469 8.80859 7.2207 8.37109C7.2168 8.38672 7.2168 8.40234 7.2168 8.41992V9.55859C7.2168 10.0195 8.47266 10.3926 10.0215 10.3926Z" fill="#F26C38"/>
<path d="M10.0215 12.1074C11.5703 12.1074 12.8281 11.7344 12.8281 11.2754V10.1367C12.8281 10.1211 12.8262 10.1035 12.8242 10.0879C12.7402 10.5254 11.5176 10.873 10.0234 10.873C8.5293 10.873 7.30469 10.5254 7.2207 10.0879C7.2168 10.1035 7.2168 10.1191 7.2168 10.1367V11.2754C7.2168 11.7344 8.47266 12.1074 10.0215 12.1074Z" fill="#F26C38"/>
<path d="M10.0234 12.5801C8.5293 12.5801 7.30664 12.2324 7.22266 11.7949C7.21875 11.8105 7.21875 11.8262 7.21875 11.8438V12.9824C7.21875 13.4414 8.47461 13.8145 10.0254 13.8145C11.5762 13.8145 12.832 13.4414 12.832 12.9824V11.8438C12.832 11.8281 12.8301 11.8105 12.8281 11.7949C12.7402 12.2324 11.5176 12.5801 10.0234 12.5801Z" fill="#F26C38"/>
<path d="M7.21484 7.56445C7.21484 7.78512 7.51054 7.99675 8.03689 8.15279C8.56324 8.30882 9.27712 8.39648 10.0215 8.39648C10.7659 8.39648 11.4797 8.30882 12.0061 8.15279C12.5324 7.99675 12.8281 7.78512 12.8281 7.56445C12.8281 7.34378 12.5324 7.13215 12.0061 6.97612C11.4797 6.82008 10.7659 6.73242 10.0215 6.73242C9.27712 6.73242 8.56324 6.82008 8.03689 6.97612C7.51054 7.13215 7.21484 7.34378 7.21484 7.56445Z" fill="white"/>
<path d="M10.0215 10.1582C11.5703 10.1582 12.8281 9.78516 12.8281 9.32617V8.1875C12.8281 8.17188 12.8262 8.1543 12.8242 8.13867C12.7402 8.57617 11.5176 8.92383 10.0234 8.92383C8.5293 8.92383 7.30469 8.57422 7.2207 8.13672C7.2168 8.15234 7.2168 8.16797 7.2168 8.18555V9.32422C7.2168 9.78516 8.47266 10.1582 10.0215 10.1582Z" fill="white"/>
<path d="M10.0215 11.873C11.5703 11.873 12.8281 11.5 12.8281 11.041V9.90234C12.8281 9.88672 12.8262 9.86914 12.8242 9.85352C12.7402 10.291 11.5176 10.6387 10.0234 10.6387C8.5293 10.6387 7.30469 10.291 7.2207 9.85352C7.2168 9.86914 7.2168 9.88477 7.2168 9.90234V11.041C7.2168 11.5 8.47266 11.873 10.0215 11.873Z" fill="white"/>
<path d="M12.8242 11.5605C12.7402 11.998 11.5176 12.3457 10.0234 12.3457C8.5293 12.3457 7.30664 11.998 7.22266 11.5605C7.21875 11.5762 7.21875 11.5918 7.21875 11.6094V12.748C7.21875 13.207 8.47461 13.5801 10.0254 13.5801C11.5742 13.5801 12.832 13.207 12.832 12.748V11.6094C12.8281 11.5938 12.8262 11.5762 12.8242 11.5605Z" fill="white"/>
</svg>
