<svg width="14" height="14" viewBox="0 0 14 14" fill="" xmlns="http://www.w3.org/2000/svg">
<path d="M12.2558 5.75478V4.34299C12.2558 4.23211 12.2338 4.12233 12.1913 4.01996C12.1487 3.91759 12.0863 3.82465 12.0077 3.74649C11.929 3.66832 11.8357 3.60647 11.7331 3.5645C11.6305 3.52253 11.5206 3.50126 11.4097 3.50192H6.73376L6.43839 2.59076C6.38511 2.41987 6.2787 2.27043 6.13464 2.16419C5.99058 2.05794 5.81637 2.00043 5.63737 2.00001H1.84756C1.73627 1.99935 1.62595 2.02078 1.523 2.06307C1.42005 2.10535 1.32652 2.16764 1.24782 2.24634C1.16912 2.32504 1.10683 2.41857 1.06454 2.52153C1.02226 2.62448 1.00083 2.73479 1.00149 2.84609V10.9113C0.999503 10.9447 0.999503 10.9781 1.00149 11.0114V11.1516C1.05275 11.2925 1.14093 11.417 1.25682 11.5121H1.31188C1.42519 11.5895 1.55591 11.6377 1.69237 11.6523H11.0843C11.273 11.6523 11.4563 11.5893 11.6051 11.4732C11.7539 11.357 11.8595 11.1945 11.9053 11.0114L12.9817 6.69597C13.0087 6.47516 12.9477 6.25258 12.8118 6.07643C12.676 5.90028 12.4762 5.78472 12.2558 5.75478ZM1.84756 2.84609H5.63236L6.133 4.34799H11.4097V5.74977H2.8989C2.7145 5.75519 2.53692 5.82074 2.39322 5.93643C2.24952 6.05211 2.14756 6.21159 2.10289 6.39058L1.84256 7.4319L1.84756 2.84609Z" fill="#1776FF"/>
</svg>
