<svg width="14" height="14" viewBox="0 0 14 14" fill="" xmlns="http://www.w3.org/2000/svg">
<path d="M12.155 3.5H6.73L6.435 2.585C6.38092 2.41526 6.27427 2.26711 6.13047 2.16195C5.98667 2.05679 5.81315 2.00008 5.635 2H1.845C1.62089 2 1.40596 2.08903 1.2475 2.2475C1.08903 2.40596 1 2.62089 1 2.845L1 10.905C1 11.1291 1.08903 11.344 1.2475 11.5025C1.40596 11.661 1.62089 11.75 1.845 11.75H12.155C12.3791 11.75 12.594 11.661 12.7525 11.5025C12.911 11.344 13 11.1291 13 10.905V4.345C13 4.12089 12.911 3.90596 12.7525 3.74749C12.594 3.58902 12.3791 3.5 12.155 3.5ZM1.845 3.5V2.845H5.635L5.845 3.5H1.845Z" fill="#1776FF"/>
</svg>
