<svg width="16" height="16" viewBox="0 0 16 16" fill="none" xmlns="http://www.w3.org/2000/svg">
<g id="&#229;&#142;&#134;&#229;&#143;&#178;&#229;&#175;&#185;&#232;&#175;&#157;" clip-path="url(#clip0_7_2814)">
<path id="Vector" d="M4.36 9.64798C4.37364 9.23359 4.42451 8.82126 4.512 8.41598H0.616C0.535106 8.41598 0.455004 8.43192 0.380267 8.46287C0.30553 8.49383 0.237623 8.5392 0.180422 8.5964C0.123221 8.65361 0.0778471 8.72151 0.0468902 8.79625C0.0159333 8.87099 0 8.95109 0 9.03198C0 9.11288 0.0159333 9.19298 0.0468902 9.26772C0.0778471 9.34245 0.123221 9.41036 0.180422 9.46756C0.237623 9.52476 0.30553 9.57014 0.380267 9.60109C0.455004 9.63205 0.535106 9.64798 0.616 9.64798H4.36ZM0.616 12.104C0.452627 12.104 0.295945 12.1689 0.180422 12.2844C0.0648998 12.3999 2.59625e-08 12.5566 2.59625e-08 12.72C2.59625e-08 12.8834 0.0648998 13.04 0.180422 13.1556C0.295945 13.2711 0.452627 13.336 0.616 13.336H5.368C5.12103 12.9487 4.91716 12.5356 4.76 12.104H0.616ZM0.616 2.26398H13.76C13.9234 2.26398 14.0801 2.19908 14.1956 2.08356C14.3111 1.96804 14.376 1.81136 14.376 1.64798C14.376 1.48461 14.3111 1.32793 14.1956 1.2124C14.0801 1.09688 13.9234 1.03198 13.76 1.03198H0.616C0.452627 1.03198 0.295945 1.09688 0.180422 1.2124C0.0648998 1.32793 2.59625e-08 1.48461 2.59625e-08 1.64798C2.59625e-08 1.81136 0.0648998 1.96804 0.180422 2.08356C0.295945 2.19908 0.452627 2.26398 0.616 2.26398ZM6.832 4.72798H0.616C0.452627 4.72798 0.295945 4.79288 0.180422 4.9084C0.0648998 5.02393 2.59625e-08 5.18061 2.59625e-08 5.34398C2.59625e-08 5.50736 0.0648998 5.66404 0.180422 5.77956C0.295945 5.89508 0.452627 5.95998 0.616 5.95998H5.64C5.98072 5.49809 6.3816 5.08376 6.832 4.72798ZM10.872 4.71198C9.85778 4.71198 8.86633 5.01273 8.02304 5.57621C7.17974 6.13968 6.52247 6.94056 6.13435 7.87758C5.74622 8.8146 5.64467 9.84567 5.84253 10.8404C6.0404 11.8351 6.52879 12.7489 7.24596 13.466C7.96312 14.1832 8.87684 14.6716 9.87158 14.8694C10.8663 15.0673 11.8974 14.9658 12.8344 14.5776C13.7714 14.1895 14.5723 13.5322 15.1358 12.6889C15.6992 11.8457 16 10.8542 16 9.83998C15.9985 8.48041 15.4578 7.17694 14.4964 6.21558C13.535 5.25421 12.2316 4.71346 10.872 4.71198ZM12.68 10.472H10.872C10.7086 10.472 10.5519 10.4071 10.4364 10.2916C10.3209 10.176 10.256 10.0194 10.256 9.85598V7.59998C10.256 7.43661 10.3209 7.27993 10.4364 7.1644C10.5519 7.04888 10.7086 6.98398 10.872 6.98398C11.0354 6.98398 11.1921 7.04888 11.3076 7.1644C11.4231 7.27993 11.488 7.43661 11.488 7.59998V9.23998H12.68C12.8434 9.23998 13.0001 9.30488 13.1156 9.42041C13.2311 9.53593 13.296 9.69261 13.296 9.85598C13.296 10.0194 13.2311 10.176 13.1156 10.2916C13.0001 10.4071 12.8434 10.472 12.68 10.472Z" fill="#E31430"/>
</g>
<defs>
<clipPath id="clip0_7_2814">
<rect width="16" height="16" fill="white"/>
</clipPath>
</defs>
</svg>
