<svg width="14" height="14" viewBox="0 0 14 14" fill="none" xmlns="http://www.w3.org/2000/svg">
<path fill-rule="evenodd" clip-rule="evenodd" d="M7.29163 2.25C4.66827 2.25 2.54163 4.37665 2.54163 7C2.54163 9.62335 4.66827 11.75 7.29163 11.75C9.91498 11.75 12.0416 9.62335 12.0416 7C12.0416 4.37665 9.91498 2.25 7.29163 2.25ZM1.54163 7C1.54163 3.82436 4.11599 1.25 7.29163 1.25C10.4673 1.25 13.0416 3.82436 13.0416 7C13.0416 10.1756 10.4673 12.75 7.29163 12.75C4.11599 12.75 1.54163 10.1756 1.54163 7ZM7.29163 4.41217C7.56777 4.41217 7.79163 4.63603 7.79163 4.91217V7.29587L9.41849 7.83816C9.68046 7.92548 9.82204 8.20864 9.73472 8.47061C9.64739 8.73259 9.36423 8.87417 9.10226 8.78684L7.13351 8.13059C6.92934 8.06253 6.79163 7.87147 6.79163 7.65625V4.91217C6.79163 4.63603 7.01548 4.41217 7.29163 4.41217Z" fill="#97A3B7"/>
</svg>
