<svg width="20" height="20" viewBox="0 0 20 20" fill="none" xmlns="http://www.w3.org/2000/svg">
<path d="M3.59361 6.8172L4.66133 5.74948L5.32866 6.4168L4.26093 7.48453L4.92826 8.15185L5.99598 7.0174L6.66331 7.68472L5.59559 8.75244L5.79578 9.28631L9.33261 5.81621L6.93024 3.21364C6.52984 2.87997 5.79578 2.94671 5.46212 3.3471L3.19321 5.48255C2.85955 5.81621 2.99301 6.28334 3.32668 6.617L3.59361 6.8172ZM3.32668 15.6259C3.25994 15.8928 3.46014 16.093 3.72707 16.0263L7.79776 14.7584L4.66133 11.6887L3.32668 15.6259ZM16.6065 6.35007C16.9401 6.01641 16.9401 5.54928 16.6065 5.21562L14.6712 3.3471C14.3376 3.01344 13.8037 3.01344 13.47 3.3471L12.0686 4.68175L15.2051 7.68472L16.6065 6.35007ZM11.6015 5.14888L5.12846 11.2883L8.26489 14.2913L14.738 8.08512L11.6015 5.14888ZM16.8067 12.5562L13.8704 9.82017L10.2669 13.2235L10.9342 13.8909L12.0686 12.8231L12.736 13.4905L11.6015 14.5582L12.2688 15.2255L13.4033 14.1578L14.0706 14.8251L12.9362 15.8928L13.1364 16.093C13.47 16.4267 14.0039 16.5602 14.4043 16.2265L16.6732 14.0911C17.0069 13.6239 17.1403 12.8899 16.8067 12.5562Z" fill="#1776FF"/>
</svg>
