<svg width="16" height="16" viewBox="0 0 16 16" fill="none" xmlns="http://www.w3.org/2000/svg">
<path fill-rule="evenodd" clip-rule="evenodd" d="M1.3335 4.88921C1.3335 3.68498 2.2809 2.66699 3.50016 2.66699H12.5002C13.7194 2.66699 14.6668 3.68498 14.6668 4.88921V11.1114C14.6668 12.3157 13.7194 13.3337 12.5002 13.3337H3.50016C2.2809 13.3337 1.3335 12.3157 1.3335 11.1114V4.88921ZM3.57184 4.00033L7.96206 7.15228C7.97595 7.16225 7.98892 7.16546 8.00016 7.16546C8.0114 7.16546 8.02437 7.16225 8.03827 7.15228L12.4285 4.00033H3.57184ZM13.3335 4.98456C13.3119 5.00493 13.2887 5.02409 13.264 5.04187L8.81587 8.23538C8.32668 8.58659 7.67365 8.58659 7.18445 8.23538L2.73636 5.04187C2.71159 5.02409 2.6884 5.00493 2.66683 4.98456V11.1114C2.66683 11.6254 3.06257 12.0003 3.50016 12.0003H12.5002C12.9378 12.0003 13.3335 11.6254 13.3335 11.1114V4.98456Z" fill="#5F7292"/>
</svg>
