<svg width="16" height="17" viewBox="0 0 16 17" fill="none" xmlns="http://www.w3.org/2000/svg">
<path fill-rule="evenodd" clip-rule="evenodd" d="M3.73333 5.71443C3.73333 3.33024 5.62767 1.39062 8 1.39062C10.3723 1.39062 12.2667 3.33024 12.2667 5.71443V5.78151C12.9713 6.0548 13.4667 6.74756 13.4667 7.54301V13.6382C13.4667 14.667 12.6381 15.524 11.6 15.524H4.4C3.36195 15.524 2.53333 14.667 2.53333 13.6382V7.54301C2.53333 6.74756 3.02875 6.0548 3.73333 5.78151V5.71443ZM5.06718 5.65729H10.9328C10.9031 4.01663 9.59773 2.72396 8 2.72396C6.40227 2.72396 5.09686 4.01663 5.06718 5.65729ZM4.4 6.99062C4.11805 6.99062 3.86667 7.23078 3.86667 7.54301V13.6382C3.86667 13.9505 4.11805 14.1906 4.4 14.1906H11.6C11.882 14.1906 12.1333 13.9505 12.1333 13.6382V7.54301C12.1333 7.23078 11.882 6.99062 11.6 6.99062H4.4ZM8 8.99062C8.36819 8.99062 8.66667 9.2891 8.66667 9.65729V11.2573C8.66667 11.6255 8.36819 11.924 8 11.924C7.63181 11.924 7.33333 11.6255 7.33333 11.2573V9.65729C7.33333 9.2891 7.63181 8.99062 8 8.99062Z" fill="#5F7292"/>
</svg>
