<svg width="14" height="14" viewBox="0 0 14 14" fill="none" xmlns="http://www.w3.org/2000/svg">
<path fill-rule="evenodd" clip-rule="evenodd" d="M2.93032 3.02539C3.19356 2.31226 3.86794 1.83337 4.62831 1.83337H9.37169C10.1321 1.83337 10.8064 2.31227 11.0697 3.02539L12.7191 7.49356C12.7395 7.54899 12.75 7.60762 12.75 7.66671V10.3334C12.75 11.3384 11.9459 12.1667 10.9375 12.1667H3.0625C2.05409 12.1667 1.25 11.3384 1.25 10.3334V7.66671C1.25 7.60762 1.26047 7.54899 1.28094 7.49356L2.93032 3.02539ZM4.62831 2.83337C4.29447 2.83337 3.9894 3.04401 3.86844 3.37169L2.46755 7.16671H4.375C4.5132 7.16671 4.64524 7.22391 4.73977 7.32474L5.46662 8.10004H8.53338L9.26023 7.32474C9.35475 7.22391 9.4868 7.16671 9.625 7.16671H11.5325L10.1316 3.37169C10.0106 3.04401 9.70553 2.83337 9.37169 2.83337H4.62831ZM11.75 8.16671H9.84162L9.11477 8.94201C9.02025 9.04284 8.8882 9.10004 8.75 9.10004H5.25C5.1118 9.10004 4.97976 9.04284 4.88523 8.94201L4.15838 8.16671H2.25V10.3334C2.25 10.8011 2.62116 11.1667 3.0625 11.1667H10.9375C11.3788 11.1667 11.75 10.8011 11.75 10.3334V8.16671Z" fill="#97A3B7"/>
</svg>
