<svg width="20" height="20" viewBox="0 0 20 20" fill="none" xmlns="http://www.w3.org/2000/svg">
<rect width="20" height="20" rx="6" fill="url(#paint0_linear_1755_3966)"/>
<path d="M12.2439 6.23073C12.1559 6.23073 12.082 6.20074 12.022 6.14078C11.962 6.08081 11.912 6.01085 11.8721 5.9309C11.8321 5.85094 11.8021 5.76899 11.7821 5.68504C11.7621 5.60108 11.7521 5.53113 11.7521 5.47516V4H11.7761C11.8481 4 11.916 4.008 11.98 4.02399C12.044 4.03998 12.1219 4.07796 12.2139 4.13792C12.3058 4.19789 12.4178 4.28184 12.5497 4.38978C12.6816 4.49772 12.8475 4.63963 13.0474 4.81553C13.2633 5.00742 13.4352 5.16933 13.5631 5.30126C13.691 5.43318 13.789 5.54512 13.8569 5.63706C13.9249 5.72901 13.9669 5.80697 13.9829 5.87093C13.9989 5.93489 14.0069 5.99086 14.0069 6.03883V6.23073H12.2439ZM15.9737 11.8795C15.9977 11.9435 16.0137 12.0234 16.0217 12.1194C16.0297 12.2153 15.9897 12.3073 15.9018 12.3952C15.8618 12.4352 15.8258 12.4732 15.7938 12.5091C15.7618 12.5451 15.7339 12.5751 15.7099 12.5991C15.6779 12.6311 15.6499 12.6551 15.6259 12.671L14.6065 11.6636C14.6545 11.6236 14.7085 11.5757 14.7684 11.5197C14.8284 11.4637 14.8784 11.4198 14.9183 11.3878C15.0143 11.2998 15.1182 11.2618 15.2302 11.2738C15.3421 11.2858 15.434 11.3118 15.506 11.3518C15.5859 11.3918 15.6719 11.4617 15.7638 11.5617C15.8558 11.6616 15.9258 11.7676 15.9737 11.8795ZM11.7401 12.9949C11.916 12.9949 12.064 12.9469 12.1839 12.8509L9.85722 15.2736H6.54712C6.3952 15.2736 6.2293 15.2296 6.0494 15.1416C5.8695 15.0537 5.7016 14.9377 5.54569 14.7938C5.38978 14.6499 5.25985 14.484 5.15591 14.2961C5.05197 14.1082 5 13.9143 5 13.7144V5.54712C5 5.37921 5.03798 5.20331 5.11393 5.01942C5.18989 4.83552 5.29383 4.66962 5.42576 4.5217C5.55768 4.37379 5.7076 4.24986 5.8755 4.14991C6.0434 4.04997 6.2193 4 6.4032 4H10.9966V5.49914C10.9966 5.65106 11.0206 5.81496 11.0685 5.99086C11.1165 6.16676 11.1905 6.32867 11.2904 6.47658C11.3903 6.6245 11.5203 6.74843 11.6802 6.84837C11.8401 6.94832 12.032 6.99829 12.2559 6.99829H14.0069V10.968L12.3638 12.671C12.4517 12.5431 12.4957 12.4032 12.4957 12.2513C12.4957 12.0434 12.4218 11.8655 12.2738 11.7176C12.1259 11.5697 11.948 11.4957 11.7401 11.4957H7.24272C7.03484 11.4957 6.85894 11.5697 6.71502 11.7176C6.5711 11.8655 6.49914 12.0434 6.49914 12.2513C6.49914 12.4592 6.5711 12.6351 6.71502 12.779C6.85894 12.9229 7.03484 12.9949 7.24272 12.9949H11.7401ZM7.24272 8.49743C7.03484 8.49743 6.85894 8.57139 6.71502 8.7193C6.5711 8.86722 6.49914 9.04512 6.49914 9.253C6.49914 9.46088 6.5711 9.63678 6.71502 9.7807C6.85894 9.92461 7.03484 9.99657 7.24272 9.99657H11.7401C11.948 9.99657 12.1259 9.92461 12.2738 9.7807C12.4218 9.63678 12.4957 9.46088 12.4957 9.253C12.4957 9.04512 12.4218 8.86722 12.2738 8.7193C12.1259 8.57139 11.948 8.49743 11.7401 8.49743H7.24272ZM11.7641 14.506L11.92 14.3501L12.2199 14.0503C12.3398 13.9303 12.4717 13.7964 12.6156 13.6485C12.7596 13.5006 12.9035 13.3547 13.0474 13.2107C13.3912 12.8669 13.779 12.4832 14.2107 12.0594L15.2182 13.0668L14.0548 14.2302L13.6231 14.6619L13.2273 15.0577C13.1154 15.1696 13.0214 15.2656 12.9455 15.3455C12.8695 15.4255 12.8275 15.4694 12.8195 15.4774C12.7796 15.5094 12.7356 15.5434 12.6876 15.5794C12.6396 15.6154 12.5917 15.6453 12.5437 15.6693C12.4957 15.6933 12.4218 15.7233 12.3218 15.7593C12.2219 15.7953 12.1199 15.8292 12.016 15.8612C11.912 15.8932 11.8121 15.9212 11.7162 15.9452C11.6202 15.9692 11.5483 15.9852 11.5003 15.9931C11.4043 16.0091 11.3404 15.9971 11.3084 15.9572C11.2764 15.9172 11.2684 15.8492 11.2844 15.7533C11.2924 15.7053 11.3084 15.6334 11.3324 15.5374C11.3564 15.4415 11.3844 15.3435 11.4163 15.2436C11.4483 15.1436 11.4783 15.0497 11.5063 14.9617C11.5343 14.8738 11.5563 14.8138 11.5722 14.7818C11.6202 14.6779 11.6842 14.586 11.7641 14.506Z" fill="white"/>
<defs>
<linearGradient id="paint0_linear_1755_3966" x1="0" y1="20" x2="20" y2="0" gradientUnits="userSpaceOnUse">
<stop offset="0.0674074" stop-color="#1BB46D"/>
<stop offset="0.918934" stop-color="#C5FFE4"/>
</linearGradient>
</defs>
</svg>
