<svg width="20" height="20" viewBox="0 0 20 20" fill="none" xmlns="http://www.w3.org/2000/svg">
<path fill-rule="evenodd" clip-rule="evenodd" d="M11.0557 6.6461H16.2731V11.0436L8.67059 18.5716H4.34763C3.52774 18.5716 2.85693 17.9008 2.85693 17.0809V2.9194C2.85693 2.09952 3.52774 1.42871 4.34763 1.42871H10.3104V5.90076C10.3104 6.34796 10.6085 6.6461 11.0557 6.6461ZM5.46564 11.1182H11.4284C11.5774 11.1182 11.801 10.9691 11.801 10.7455C11.801 10.5219 11.652 10.3728 11.4284 10.3728H5.46564C5.24204 10.3728 5.09296 10.5219 5.09296 10.7455C5.09296 10.9691 5.24204 11.1182 5.46564 11.1182ZM5.46564 8.88213H13.6644C13.8134 8.88213 14.0371 8.73307 14.0371 8.50946C14.0371 8.28586 13.888 8.13678 13.6644 8.13678H5.46564C5.24204 8.13678 5.09296 8.28586 5.09296 8.50946C5.09296 8.73307 5.24204 8.88213 5.46564 8.88213ZM17.9128 12.3107L18.5091 13.056C18.5836 13.1306 18.5836 13.2796 18.5091 13.2796L17.7638 13.8759C17.6892 13.9504 17.6147 13.9504 17.5402 13.8759L16.9439 13.1306C16.8694 13.056 16.8694 12.9815 16.9439 12.907L17.6892 12.3107C17.7638 12.2362 17.8383 12.2362 17.9128 12.3107ZM16.2731 5.90076H11.801C11.3538 5.90076 11.0557 5.60263 11.0557 5.15543V1.42871L16.2731 5.90076ZM12.0246 17.0064H12.0991L15.9749 13.5778L17.0184 14.6958L13.0681 18.1244H12.9936L11.4283 18.5716L12.0246 17.0064Z" fill="#1776FF"/>
</svg>
