<svg width="20" height="20" viewBox="0 0 20 20" fill="none" xmlns="http://www.w3.org/2000/svg">
<path d="M12.0488 9.22656L8.02148 13.2168C7.88672 13.3477 7.67188 13.3477 7.53906 13.2168C7.47461 13.1543 7.43945 13.0684 7.43945 12.9785C7.43945 12.8887 7.47461 12.8027 7.53906 12.7402L12.2598 8.0625C12.3535 7.96875 12.4805 7.91602 12.6133 7.91602C12.7461 7.91602 12.873 7.96875 12.9668 8.0625L14.0312 9.11719C14.125 9.21094 14.1777 9.33594 14.1777 9.46875C14.1777 9.59961 14.125 9.72656 14.0312 9.82031L9.30859 14.4961C8.46289 15.332 7.09375 15.332 6.24805 14.4961C5.8418 14.0938 5.61523 13.5488 5.61523 12.9785C5.61523 12.4102 5.84375 11.8633 6.24805 11.4609L10.2773 7.4707C10.3848 7.36523 10.4453 7.2207 10.4453 7.07227C10.4453 6.92188 10.3848 6.7793 10.2773 6.67383C10.0547 6.45312 9.69336 6.45312 9.4707 6.67383L5.44141 10.6621C4.82227 11.2754 4.47461 12.1094 4.47461 12.9766C4.47461 13.8457 4.82227 14.6777 5.44141 15.291C6.73242 16.5684 8.82422 16.5684 10.1152 15.291L15.1914 10.2617C15.6367 9.82031 15.6367 9.10547 15.1914 8.66406L13.418 6.91406C13.2051 6.70117 12.9141 6.58203 12.6113 6.58203C12.3086 6.58203 12.0195 6.70117 11.8047 6.91406L6.73242 11.9414C6.45508 12.2168 6.29883 12.5898 6.29883 12.9785C6.29883 13.3672 6.45508 13.7402 6.73242 14.0156C7.31055 14.5898 8.24805 14.5898 8.82812 14.0156L12.8574 10.0254C12.9648 9.91992 13.0254 9.77539 13.0254 9.62695C13.0254 9.47656 12.9648 9.33398 12.8574 9.22852C12.6309 9.00781 12.2715 9.00781 12.0488 9.22656ZM13.1855 2.00586L17.25 6.26172C17.5371 6.56055 17.6953 6.96094 17.6953 7.37891V17.2891C17.6953 18.1777 16.9824 18.8965 16.1035 18.8965H3.89648C3.01758 18.8965 2.30469 18.1758 2.30469 17.2891V3.12109C2.30469 2.23242 3.01758 1.51367 3.89648 1.51367H12.041C12.4727 1.51367 12.8848 1.69141 13.1855 2.00586Z" fill="#1776FF"/>
</svg>
