<svg width="24" height="24" viewBox="0 0 24 24" fill="none" xmlns="http://www.w3.org/2000/svg">
<path d="M24 16V0L0 24H16C20.4183 24 24 20.4183 24 16Z" fill="#1776FF"/>
<path d="M20.4648 12.4062H19.6847C19.5753 12.4062 19.4715 12.4565 19.4045 12.5424L14.803 18.3717L12.5965 15.5759C12.5631 15.5335 12.5206 15.4992 12.4721 15.4757C12.4236 15.4521 12.3703 15.4398 12.3164 15.4397H11.5362C11.4615 15.4397 11.4202 15.5257 11.4659 15.5837L14.5229 19.4565C14.6657 19.6373 14.9403 19.6373 15.0842 19.4565L20.5351 12.5491C20.5809 12.4922 20.5396 12.4062 20.4648 12.4062Z" fill="white"/>
</svg>
