<svg width="20" height="20" viewBox="0 0 20 20" fill="none" xmlns="http://www.w3.org/2000/svg">
<path d="M10.0039 9.29101C9.84374 9.28515 9.68945 9.24414 9.54687 9.17187L3.76171 6.44922C3.27538 6.23242 3.05663 5.66211 3.27343 5.17578C3.37109 4.95703 3.54492 4.7832 3.76171 4.6875L9.25976 2.08594C9.492 1.97692 9.7454 1.92041 10.0019 1.92041C10.2585 1.92041 10.5119 1.97692 10.7441 2.08594L16.2441 4.6875C16.7305 4.9043 16.9492 5.47461 16.7324 5.96094C16.6348 6.17969 16.4609 6.35351 16.2441 6.44922L10.459 9.16992C10.3184 9.24414 10.1621 9.28515 10.0039 9.29101ZM8.50976 18.1289C8.36132 18.1289 8.21484 18.0918 8.08398 18.0215L2.85742 15.5703C2.52538 15.3965 2.32031 15.0527 2.32421 14.6797V8.42969C2.32617 8.07812 2.51367 7.75586 2.81445 7.57617C3.09374 7.41797 3.43554 7.41797 3.71484 7.57617L8.93163 10.0254C9.24609 10.1953 9.44726 10.5215 9.46093 10.8789V17.1367C9.45703 17.4863 9.27343 17.8086 8.9746 17.9902C8.83398 18.0742 8.67382 18.123 8.50976 18.1289ZM11.4961 18.1289C11.334 18.1289 11.1738 18.0859 11.0312 18.0059C10.7324 17.8242 10.5488 17.502 10.5449 17.1523V10.877C10.5527 10.5215 10.748 10.1973 11.0566 10.0234L16.3086 7.55859C16.5859 7.41211 16.9219 7.41992 17.1914 7.58008C17.4941 7.75781 17.6797 8.08203 17.6816 8.43359V14.6797C17.6894 15.0488 17.4922 15.3926 17.1699 15.5703L11.9238 18.0234C11.791 18.0937 11.6445 18.1309 11.4961 18.1289Z" fill="#1776FF"/>
</svg>
