<svg width="14" height="14" viewBox="0 0 14 14" fill="none" xmlns="http://www.w3.org/2000/svg">
<path fill-rule="evenodd" clip-rule="evenodd" d="M4.97719 4.24811C4.9779 4.51904 5.06739 4.78226 5.23197 4.99748L4.43264 5.59198C4.13873 5.20552 3.9791 4.73363 3.97803 4.24811C3.97803 3.65187 4.21488 3.08006 4.63648 2.65846C5.05808 2.23685 5.6299 2 6.22613 2C6.82237 2 7.39418 2.23685 7.81579 2.65846C8.23739 3.08006 8.47424 3.65187 8.47424 4.24811C8.47282 4.73592 8.31136 5.20978 8.01463 5.59697L7.2203 4.99748C7.38487 4.78226 7.47437 4.51904 7.47508 4.24811C7.47508 3.91687 7.3435 3.59919 7.10927 3.36497C6.87505 3.13074 6.55738 2.99916 6.22613 2.99916C5.89489 2.99916 5.57722 3.13074 5.34299 3.36497C5.10877 3.59919 4.97719 3.91687 4.97719 4.24811ZM6.97557 6.04164L10.4726 6.36137C10.6697 6.3783 10.8615 6.4341 11.037 6.52553C11.2124 6.61696 11.368 6.74223 11.4948 6.8941C11.6216 7.04597 11.7171 7.22144 11.7757 7.41039C11.8344 7.59933 11.855 7.79802 11.8365 7.99499L11.5517 11.0824C11.5292 11.3315 11.4141 11.5631 11.2291 11.7315C11.0441 11.8998 10.8027 11.9926 10.5526 11.9916H6.1113C5.91394 12.0173 5.7134 11.9835 5.53538 11.8945C5.35736 11.8055 5.20999 11.6654 5.11214 11.492L3.11382 8.02996C2.99437 7.80161 2.96776 7.53594 3.03957 7.28844C3.11137 7.04094 3.27602 6.83075 3.49914 6.70179C3.72225 6.57282 3.98657 6.53505 4.23687 6.59636C4.48718 6.65767 4.70411 6.81332 4.84237 7.0308L5.47683 8.12988V4.24815C5.47683 4.0494 5.55578 3.8588 5.69632 3.71826C5.83685 3.57773 6.02746 3.49878 6.2262 3.49878C6.42495 3.49878 6.61555 3.57773 6.75608 3.71826C6.89662 3.8588 6.97557 4.0494 6.97557 4.24815V6.04164Z" fill="#1776FF"/>
</svg>
