<svg width="16" height="17" viewBox="0 0 16 17" fill="none" xmlns="http://www.w3.org/2000/svg">
<path fill-rule="evenodd" clip-rule="evenodd" d="M8 2.72396C7.04271 2.72396 6.26667 3.5 6.26667 4.45729C6.26667 5.41459 7.04271 6.19062 8 6.19062C8.95729 6.19062 9.73333 5.41459 9.73333 4.45729C9.73333 3.5 8.95729 2.72396 8 2.72396ZM4.93333 4.45729C4.93333 2.76362 6.30633 1.39062 8 1.39062C9.69367 1.39062 11.0667 2.76362 11.0667 4.45729C11.0667 6.15096 9.69367 7.52396 8 7.52396C6.30633 7.52396 4.93333 6.15096 4.93333 4.45729ZM2.77987 10.3829C3.99389 9.44087 5.75357 8.90808 8 8.90808C10.2464 8.90808 12.0061 9.44087 13.2201 10.3829C14.4489 11.3364 15.0667 12.6718 15.0667 14.1322C15.0667 14.8331 14.5404 15.524 13.7475 15.524H2.25255C1.45964 15.524 0.933334 14.8331 0.933334 14.1322C0.933334 12.6718 1.55108 11.3364 2.77987 10.3829ZM3.59727 11.4363C2.70035 12.1323 2.26667 13.0756 2.26667 14.1322C2.26667 14.1605 2.27425 14.1798 2.28071 14.1906H13.7193C13.7257 14.1798 13.7333 14.1605 13.7333 14.1322C13.7333 13.0756 13.2996 12.1323 12.4027 11.4363C11.491 10.7289 10.0507 10.2414 8 10.2414C5.94929 10.2414 4.50897 10.7289 3.59727 11.4363Z" fill="#5F7292"/>
</svg>
