<svg width="16" height="17" viewBox="0 0 16 17" fill="none" xmlns="http://www.w3.org/2000/svg">
<path fill-rule="evenodd" clip-rule="evenodd" d="M8.77517 3.04855C8.28719 2.80456 7.71281 2.80456 7.22483 3.04855L3.86667 4.72763V9.66761C3.86667 10.1293 4.14542 10.7423 4.91864 11.5377C5.61833 12.2576 6.64825 13.0501 8.00139 13.9254C9.37524 13.0503 10.399 12.3474 11.0959 11.6732C11.8337 10.9595 12.1333 10.3474 12.1333 9.66761V4.72763L8.77517 3.04855ZM13.4667 4.31565V9.66761C13.4667 10.8358 12.9121 11.7714 12.0229 12.6316C11.1519 13.4741 9.8926 14.3089 8.35598 15.2793C8.13853 15.4166 7.86147 15.4166 7.64402 15.2793C6.08127 14.2924 4.83004 13.3595 3.96256 12.4671C3.10871 11.5887 2.53333 10.6539 2.53333 9.66761V4.31561C2.53333 4.0631 2.676 3.83226 2.90186 3.71933L6.62854 1.85598C7.4919 1.42431 8.5081 1.42431 9.37146 1.85598L13.0981 3.71933C13.324 3.83226 13.4667 4.06314 13.4667 4.31565ZM10.4714 6.24421C10.7318 6.50456 10.7318 6.92667 10.4714 7.18702L8.0714 9.58702C7.81106 9.84737 7.38895 9.84737 7.1286 9.58702L5.9286 8.38702C5.66825 8.12667 5.66825 7.70456 5.9286 7.44421C6.18894 7.18386 6.61105 7.18386 6.8714 7.44421L7.6 8.1728L9.5286 6.24421C9.78895 5.98386 10.2111 5.98386 10.4714 6.24421Z" fill="#5F7292"/>
</svg>
