<svg width="360" height="93" viewBox="0 0 360 93" fill="none" xmlns="http://www.w3.org/2000/svg">
<path d="M8.06868 16.8203L40.829 17.5302L37.8568 24.5637H26.8022L18.5659 47.5858H8.17738L15.6481 24.8623L4.76268 24.5637L8.06868 16.8203Z" fill="#E31430"/>
<path d="M45.5212 17.8008L73.8434 18.7529C73.8434 18.7529 80.2722 28.5354 63.3323 34.2415L63.2096 35.0571C63.2096 35.0571 65.2609 33.7569 66.9209 39.1319C68.4318 44.0427 68.7719 45.9282 68.7719 45.9282H56.8988L53.8087 36.2805L56.0339 30.0302C56.0339 30.0302 62.9627 30.3015 63.6987 26.2267C64.4348 22.152 61.0682 23.3737 60.2825 23.2338C59.4967 23.0939 54.7994 23.3737 54.7994 23.3737L46.3876 46.6142H34.8966L45.5212 17.8008Z" fill="#E31430"/>
<path d="M71.4942 46.0614H82.4992L96.8443 25.2712L96.349 45.2474H107.606L105.75 19.5635H92.1454L71.4942 46.0614Z" fill="#E31430"/>
<path d="M121.574 20.1061L134.315 19.5635L140.003 34.5145L144.948 20.2443H155.089L146.309 44.7031H133.327L127.884 31.5216L122.938 44.7031L112.177 45.2474L121.574 20.1061Z" fill="#E31430"/>
<path d="M153.731 36.5457H163.991C163.991 36.5457 163.497 41.4344 169.684 40.8252C175.87 40.2161 175.005 37.0951 174.752 36.5457C174.499 35.9963 172.028 34.7796 165.356 33.9606C158.683 33.1415 158.679 28.6709 159.419 27.4423C160.16 26.2138 162.884 19.559 181.058 20.105C181.058 20.105 190.083 19.4225 189.346 26.9014L178.585 27.717C178.585 27.717 179.574 24.4545 176.605 24.4545C173.636 24.4545 169.928 24.864 169.928 26.4919C169.928 28.1197 173.387 28.5395 177.965 29.3483C182.543 30.1571 186.745 31.5205 186.506 34.783C186.267 38.0456 182.293 44.5655 166.465 45.2481C150.637 45.9306 153.478 37.2282 153.731 36.5457Z" fill="#E31430"/>
<path d="M195.281 20.078H205.295L203.563 34.3789L226.195 0.541992L224.463 34.3789L233.116 20.078H243.134L228.049 45.2483H215.559L216.037 28.5347L189.964 67.4002L195.281 20.078Z" fill="#E31430"/>
<path d="M236.212 45.2474L247.094 45.285L261.186 24.9999V45.2474H272.193L270.216 19.5635H256.615L236.212 45.2474Z" fill="#E31430"/>
<path d="M286.54 18.6142L313.495 17.9316C313.495 17.9316 315.967 18.6142 316.34 22.6889C316.713 26.7637 312.008 33.0141 304.588 34.6453C304.588 34.6453 308.301 34.9218 309.907 46.7399H297.795C297.795 46.7399 296.062 38.4522 295.076 36.4182L297.175 29.7635C297.175 29.7635 304.099 29.9017 304.967 25.8235C305.835 21.7453 295.322 23.38 295.322 23.38L287.529 46.0745H276.648L286.54 18.6142Z" fill="#E31430"/>
<path d="M0 62.3919C0 62.3919 183.27 30.0958 360 62.3919C360 62.3919 145.719 39.0712 0 62.3919Z" fill="#E31430"/>
<path d="M347.13 16.9824C346.138 16.9824 324.991 17.9329 324.991 17.9329L314.606 46.7412L325.244 47.2872L329.202 36.8222C329.202 36.8222 334.237 37.1907 338.83 36.5798C346.18 35.6038 351.467 30.164 352.582 24.4648C353.697 18.7656 348.116 16.9824 347.13 16.9824ZM331.215 30.292L333.664 23.4324C333.664 23.4324 341.262 21.093 341.565 26.2803C341.867 31.4676 332.737 30.2937 331.221 30.2937L331.215 30.292Z" fill="#E31430"/>
<path d="M66.837 92.173H69.1426V87.3242L71.3887 84.3101L75.523 92.173H78.087L72.7999 82.3007L77.3317 76.0978H74.7677L69.2023 83.6985H69.1426V76.0978H66.837V92.173Z" fill="#1C222B"/>
<path d="M81.5696 92.173H83.756V84.594C83.756 82.8467 83.5771 80.9902 83.4578 79.3303H83.5572L85.0877 82.6938L89.9375 92.173H92.3028V76.0978H90.1164V83.5893C90.1164 85.3366 90.2953 87.2805 90.4146 88.9404H90.3152L88.7847 85.5332L83.9349 76.0978H81.5696V92.173Z" fill="#1C222B"/>
<path d="M103.285 92.4569C107.041 92.4569 109.665 89.2462 109.665 84.0698C109.665 78.8935 107.041 75.792 103.285 75.792C99.5279 75.792 96.9241 78.8935 96.9241 84.0698C96.9241 89.2462 99.5279 92.4569 103.285 92.4569ZM103.285 90.2509C100.86 90.2509 99.2894 87.8484 99.2894 84.0698C99.2894 80.2913 100.86 77.998 103.285 77.998C105.709 77.998 107.3 80.2913 107.3 84.0698C107.3 87.8484 105.709 90.2509 103.285 90.2509Z" fill="#1C222B"/>
<path d="M115.651 92.173H118.434L120.362 83.2399C120.6 81.9731 120.839 80.7718 121.038 79.5487H121.137C121.336 80.7718 121.554 81.9731 121.813 83.2399L123.78 92.173H126.623L129.505 76.0978H127.299L125.907 84.463C125.669 86.1448 125.41 87.8702 125.172 89.6175H125.072C124.735 87.8702 124.417 86.1448 124.079 84.463L122.17 76.0978H120.143L118.255 84.463C117.917 86.1666 117.579 87.8921 117.261 89.6175H117.182L116.406 84.463L115.035 76.0978H112.65L115.651 92.173Z" fill="#1C222B"/>
<path d="M133.454 92.173H141.941V90.0325H135.76V76.0978H133.454V92.173Z" fill="#1C222B"/>
<path d="M146.071 92.173H154.936V90.0325H148.376V84.8343H153.743V82.6938H148.376V78.2164H154.717V76.0978H146.071V92.173Z" fill="#1C222B"/>
<path d="M159.542 92.173H163.457C167.83 92.173 170.394 89.2899 170.394 84.0698C170.394 78.8279 167.83 76.0978 163.338 76.0978H159.542V92.173ZM161.847 90.098V78.1509H163.179C166.319 78.1509 168.009 80.051 168.009 84.0698C168.009 88.0668 166.319 90.098 163.179 90.098H161.847Z" fill="#1C222B"/>
<path d="M180.955 92.4569C182.963 92.4569 184.613 91.6488 185.587 90.5785V83.6112H180.598V85.6861H183.5V89.4646C182.983 89.967 182.088 90.2509 181.194 90.2509C178.173 90.2509 176.563 87.9139 176.563 84.0917C176.563 80.3131 178.371 77.998 181.094 77.998C182.506 77.998 183.4 78.6314 184.116 79.4395L185.368 77.8232C184.473 76.7967 183.082 75.792 181.015 75.792C177.139 75.792 174.197 78.9371 174.197 84.179C174.197 89.4428 177.04 92.4569 180.955 92.4569Z" fill="#1C222B"/>
<path d="M190.482 92.173H199.347V90.0325H192.788V84.8343H198.154V82.6938H192.788V78.2164H199.128V76.0978H190.482V92.173Z" fill="#1C222B"/>
<path d="M220.161 92.4569C223.362 92.4569 225.309 90.3601 225.309 87.7829C225.309 85.424 224.057 84.2446 222.328 83.4364L220.32 82.4973C219.128 81.9731 217.955 81.4489 217.955 80.0729C217.955 78.7842 218.929 77.998 220.42 77.998C221.712 77.998 222.726 78.544 223.64 79.4395L224.852 77.8232C223.739 76.5783 222.129 75.792 220.42 75.792C217.637 75.792 215.61 77.6922 215.61 80.2258C215.61 82.5628 217.18 83.7859 218.591 84.4411L220.619 85.4022C221.97 86.0574 222.964 86.5161 222.964 87.9794C222.964 89.3336 221.97 90.2509 220.201 90.2509C218.79 90.2509 217.359 89.5083 216.305 88.3507L214.954 90.098C216.286 91.5832 218.154 92.4569 220.161 92.4569Z" fill="#1C222B"/>
<path d="M232.168 92.173H234.474V78.2164H238.787V76.0978H227.875V78.2164H232.168V92.173Z" fill="#1C222B"/>
<path d="M248.238 92.4569C251.477 92.4569 253.664 90.513 253.664 85.2711V76.0978H251.438V85.4458C251.438 89.0715 250.086 90.2509 248.238 90.2509C246.409 90.2509 245.097 89.0715 245.097 85.4458V76.0978H242.792V85.2711C242.792 90.513 244.998 92.4569 248.238 92.4569Z" fill="#1C222B"/>
<path d="M259.001 92.173H262.917C267.29 92.173 269.854 89.2899 269.854 84.0698C269.854 78.8279 267.29 76.0978 262.798 76.0978H259.001V92.173ZM261.307 90.098V78.1509H262.639C265.779 78.1509 267.468 80.051 267.468 84.0698C267.468 88.0668 265.779 90.098 262.639 90.098H261.307Z" fill="#1C222B"/>
<path d="M274.452 92.173H276.758V76.0978H274.452V92.173Z" fill="#1C222B"/>
<path d="M287.704 92.4569C291.461 92.4569 294.084 89.2462 294.084 84.0698C294.084 78.8935 291.461 75.792 287.704 75.792C283.947 75.792 281.343 78.8935 281.343 84.0698C281.343 89.2462 283.947 92.4569 287.704 92.4569ZM287.704 90.2509C285.279 90.2509 283.709 87.8484 283.709 84.0698C283.709 80.2913 285.279 77.998 287.704 77.998C290.129 77.998 291.719 80.2913 291.719 84.0698C291.719 87.8484 290.129 90.2509 287.704 90.2509Z" fill="#1C222B"/>
</svg>
