<svg width="141" height="36" viewBox="0 0 141 36" fill="none" xmlns="http://www.w3.org/2000/svg">
<g id="&#229;&#185;&#179;&#229;&#143;&#176;logo" clip-path="url(#clip0_211_1214)">
<path id="logo" fill-rule="evenodd" clip-rule="evenodd" d="M76.4849 7.6516H80.4072L79.729 13.2528L88.5929 0L87.9147 13.2528L91.3036 7.6516H95.2277L89.319 17.51H84.4273L84.6146 10.9638L79.4656 18.639C98.8349 18.883 120.035 20.3935 141 24.2247C141 24.2247 112.979 21.1751 78.3095 20.3623L74.4024 26.1861L75.0645 20.2932C50.5337 19.8251 23.0725 20.5322 0 24.2247C0 24.2247 32.7064 18.4611 75.2542 18.6054L76.4849 7.6516ZM3.16023 6.37573L15.9914 6.65375L14.8273 9.40857H10.4975L7.27164 18.4255H3.20281L6.12884 9.52553L1.86538 9.40857L3.16023 6.37573ZM17.8291 6.75952L28.922 7.13244C28.922 7.13244 31.4399 10.9639 24.8051 13.1988L24.7571 13.5182C24.7571 13.5182 25.5605 13.009 26.2107 15.1142C26.8024 17.0376 26.9356 17.7761 26.9356 17.7761H22.2854L21.0751 13.9974L21.9466 11.5494C21.9466 11.5494 24.6604 11.6556 24.9487 10.0597C25.1832 8.76135 24.3543 8.83593 23.8713 8.87938C23.7606 8.88935 23.668 8.89767 23.6106 8.88745C23.3029 8.83265 21.4631 8.94226 21.4631 8.94226L18.1685 18.0448H13.6678L17.8291 6.75952ZM32.3122 17.8285H28.0019L36.0903 7.4502H41.4187L42.1455 17.5097H37.7367L37.9307 9.68573L32.3122 17.8285ZM47.6163 7.66272L52.6066 7.4502L54.8344 13.306L56.7715 7.71686H60.743L57.3043 17.2966H52.2197L50.088 12.1338L48.1509 17.2966L43.9361 17.5098L47.6163 7.66272ZM64.2298 14.1015H60.2114C60.1123 14.3688 58.9993 17.7773 65.1987 17.5099C71.398 17.2426 72.9544 14.6889 73.048 13.4111C73.1417 12.1333 71.4959 11.5993 69.703 11.2825C69.5273 11.2515 69.3558 11.2219 69.1894 11.1932L69.189 11.1931C67.6573 10.9289 66.5549 10.7388 66.5549 10.1637C66.5549 9.52617 68.0073 9.36578 69.1702 9.36578C70.3331 9.36578 69.9456 10.6436 69.9456 10.6436L74.1604 10.3241C74.4493 7.3949 70.9145 7.66223 70.9145 7.66223C64.1606 7.45931 62.8545 9.79535 62.4906 10.4461C62.471 10.4812 62.4541 10.5114 62.4393 10.536C62.1492 11.0172 62.151 12.7682 64.7644 13.089C67.3778 13.4098 68.3455 13.8863 68.4446 14.1015C68.5437 14.3167 68.8825 15.539 66.4594 15.7776C64.0364 16.0162 64.2298 14.1015 64.2298 14.1015ZM96.7786 17.5245L92.5164 17.5097L100.507 7.4502H105.835L106.609 17.5097H102.298V9.57946L96.7786 17.5245ZM112.228 7.07812L122.786 6.81079C122.786 6.81079 123.754 7.07812 123.9 8.67407C124.046 10.27 122.203 12.7181 119.297 13.357C119.297 13.357 120.751 13.4653 121.38 18.094H116.636C116.636 18.094 115.957 14.848 115.571 14.0514L116.394 11.4449C116.394 11.4449 119.105 11.4991 119.445 9.90177C119.785 8.30449 115.668 8.94474 115.668 8.94474L112.615 17.8334H108.354L112.228 7.07812ZM135.959 6.43909C135.571 6.43909 127.288 6.81134 127.288 6.81134L123.221 18.0946L127.387 18.3085L128.938 14.2096C128.938 14.2096 130.909 14.354 132.708 14.1147C135.587 13.7325 137.658 11.6019 138.095 9.36967C138.531 7.13748 136.345 6.43909 135.959 6.43909ZM129.726 11.652L130.685 8.96534C130.685 8.96534 133.661 8.04907 133.779 10.0808C133.885 11.8817 131.087 11.725 130.036 11.6661C129.902 11.6586 129.796 11.6527 129.728 11.6527L129.726 11.652ZM42.9521 32.7152C42.9521 34.7426 41.9244 36.0001 40.4531 36.0001C38.9818 36.0001 37.9619 34.7426 37.9619 32.7152C37.9619 30.6878 38.9818 29.473 40.4531 29.473C41.9244 29.473 42.9521 30.6878 42.9521 32.7152ZM38.8883 32.7152C38.8883 34.1951 39.5033 35.1361 40.4531 35.1361C41.4029 35.1361 42.0257 34.1951 42.0257 32.7152C42.0257 31.2353 41.4029 30.337 40.4531 30.337C39.5033 30.337 38.8883 31.2353 38.8883 32.7152ZM26.1778 35.8889H27.0809V33.9898L27.9606 32.8093L29.5798 35.8889H30.5841L28.5133 32.0223L30.2883 29.5928H29.284L27.1042 32.5698H27.0809V29.5928H26.1778V35.8889ZM31.9481 35.8889H32.8044V32.9205C32.8044 32.3776 32.7603 31.8078 32.7188 31.2708C32.708 31.1309 32.6973 30.9932 32.6876 30.8589H32.7266L33.326 32.1762L35.2255 35.8889H36.1519V29.5928H35.2956V32.527C35.2956 33.0826 35.3418 33.6889 35.3841 34.2452C35.394 34.3742 35.4036 34.5005 35.4124 34.6228H35.3734L34.774 33.2883L32.8745 29.5928H31.9481V35.8889ZM45.2967 35.8889H46.3865L47.1417 32.3901L47.1707 32.2366L47.2035 32.0643L47.2035 32.0642C47.2757 31.6853 47.3457 31.3175 47.4064 30.9444H47.4453C47.5231 31.4234 47.6088 31.8939 47.71 32.3901L48.4807 35.8889H49.5939L50.7227 29.5928H49.8586L49.3137 32.8692C49.2791 33.1131 49.2434 33.3594 49.2075 33.6076L49.2075 33.6076C49.1464 34.0296 49.0845 34.4571 49.0256 34.888H48.9867C48.94 34.6466 48.8943 34.4062 48.8489 34.1673L48.847 34.1577L48.8468 34.1565L48.8467 34.1559L48.8465 34.1547L48.8464 34.1544L48.8462 34.1534C48.7638 33.7198 48.6822 33.291 48.5975 32.8692L47.8501 29.5928H47.056L46.3165 32.8692C46.1841 33.5364 46.0518 34.2122 45.9272 34.888H45.8961L45.5925 32.8692L45.0553 29.5928H44.1211L45.2967 35.8889ZM55.5936 35.8889H52.2694V29.5928H53.1725V35.0506H55.5936V35.8889ZM57.211 35.8889H60.6831V35.0506H58.1141V33.0146H60.216V32.1762H58.1141V30.4226H60.5975V29.5928H57.211V35.8889ZM64.0208 35.8889H62.4871V29.5928H63.9741C65.7335 29.5928 66.7377 30.6621 66.7377 32.7152C66.7377 34.7597 65.7335 35.8889 64.0208 35.8889ZM63.3902 30.3969V35.0762H63.9118C65.1418 35.0762 65.8035 34.2807 65.8035 32.7152C65.8035 31.1412 65.1418 30.3969 63.9118 30.3969H63.3902ZM70.8742 36.0001C71.6605 36.0001 72.3066 35.6836 72.6881 35.2644V32.5355H70.734V33.3482H71.8706V34.8281C71.6682 35.0249 71.3179 35.1361 70.9676 35.1361C69.7843 35.1361 69.1537 34.2208 69.1537 32.7237C69.1537 31.2438 69.8621 30.337 70.9287 30.337C71.4814 30.337 71.8317 30.5851 72.112 30.9016L72.6024 30.2686C72.2521 29.8665 71.7072 29.473 70.8975 29.473C69.3795 29.473 68.2273 30.7049 68.2273 32.7579C68.2273 34.8196 69.3405 36.0001 70.8742 36.0001ZM78.0775 35.8889H74.6055V29.5928H77.9919V30.4226H75.5085V32.1762H77.6104V33.0146H75.5085V35.0506H78.0775V35.8889ZM86.2299 36.0001C87.4833 36.0001 88.2462 35.1789 88.2462 34.1694C88.2462 33.2456 87.7558 32.7836 87.0785 32.4671L86.2922 32.0993C85.8251 31.8939 85.3658 31.6886 85.3658 31.1497C85.3658 30.645 85.7473 30.337 86.3311 30.337C86.8371 30.337 87.2342 30.5509 87.5923 30.9016L88.0672 30.2686C87.6312 29.781 87.0006 29.473 86.3311 29.473C85.2412 29.473 84.4472 30.2173 84.4472 31.2096C84.4472 32.1249 85.0622 32.604 85.6149 32.8606L86.409 33.237L86.4333 33.2488C86.9502 33.4993 87.3276 33.6821 87.3276 34.2464C87.3276 34.7768 86.9383 35.1361 86.2455 35.1361C85.6928 35.1361 85.1322 34.8452 84.7196 34.3919L84.1903 35.0762C84.7119 35.6579 85.4436 36.0001 86.2299 36.0001ZM91.8355 35.8889H90.9325V30.4226H89.2509V29.5928H93.5249V30.4226H91.8355V35.8889ZM97.2264 36.0001C98.4954 36.0001 99.3517 35.2388 99.3517 33.1857V29.5928H98.4798V33.2541C98.4798 34.6742 97.9504 35.1361 97.2264 35.1361C96.5102 35.1361 95.9964 34.6742 95.9964 33.2541V29.5928H95.0933V33.1857C95.0933 35.2388 95.9575 36.0001 97.2264 36.0001ZM102.976 35.8889H101.442V29.5928H102.929C104.688 29.5928 105.693 30.6621 105.693 32.7152C105.693 34.7597 104.688 35.8889 102.976 35.8889ZM102.345 30.3969V35.0762H102.867C104.097 35.0762 104.758 34.2807 104.758 32.7152C104.758 31.1412 104.097 30.3969 102.867 30.3969H102.345ZM107.494 35.8889H108.397V29.5928H107.494V35.8889ZM115.183 32.7152C115.183 34.7426 114.155 36.0001 112.684 36.0001C111.213 36.0001 110.193 34.7426 110.193 32.7152C110.193 30.6878 111.213 29.473 112.684 29.473C114.155 29.473 115.183 30.6878 115.183 32.7152ZM111.119 32.7152C111.119 34.1951 111.734 35.1361 112.684 35.1361C113.634 35.1361 114.257 34.1951 114.257 32.7152C114.257 31.2353 113.634 30.337 112.684 30.337C111.734 30.337 111.119 31.2353 111.119 32.7152Z" fill="#1776FF"/>
</g>
<defs>
<clipPath id="clip0_211_1214">
<rect width="141" height="36" fill="white"/>
</clipPath>
</defs>
</svg>
