<svg width="20" height="20" viewBox="0 0 20 20" fill="none" xmlns="http://www.w3.org/2000/svg">
<g id="Frame 24">
<rect width="20" height="20" rx="6" fill="url(#paint0_linear_221_66)"/>
<path id="Union" fill-rule="evenodd" clip-rule="evenodd" d="M6.51902 5H15.1969C15.4098 5 15.6141 5.08461 15.7647 5.23522C15.9153 5.38583 15.9999 5.59009 15.9999 5.80309V11.3922C15.9999 11.4977 15.9792 11.6021 15.9388 11.6995C15.8984 11.7969 15.8393 11.8855 15.7647 11.96C15.6901 12.0346 15.6016 12.0937 15.5042 12.1341C15.4067 12.1744 15.3023 12.1952 15.1969 12.1952H14.739V8.45127C14.739 8.31641 14.7391 8.18155 14.7392 8.0467C14.7395 7.777 14.7397 7.50733 14.739 7.23771C14.7377 6.72107 14.3812 6.23396 13.8642 6.12658C13.7287 6.09839 13.5999 6.09839 13.4642 6.09839H5.71606V5.80309C5.71606 5.59012 5.80066 5.38587 5.95124 5.23527C6.10181 5.08466 6.30605 5.00004 6.51902 5ZM5.68845 15.1529V13.8197C5.68845 13.8183 5.68818 13.817 5.68764 13.8157C5.6871 13.8145 5.68632 13.8133 5.68532 13.8124C5.68433 13.8114 5.68316 13.8107 5.68188 13.8102C5.68085 13.8098 5.67976 13.8096 5.67866 13.8095L8.47341 13.8114L6.22711 15.4209L6.22577 15.4217C6.15865 15.4554 6.09141 15.4888 6.02443 15.4888C5.95745 15.4888 5.92429 15.4888 5.85718 15.4556L5.85584 15.4547C5.75557 15.3876 5.68845 15.2871 5.68845 15.1529ZM5.67785 13.8095C5.67812 13.8095 5.67839 13.8095 5.67866 13.8095L5.67785 13.8095ZM4.80309 6.75637H13.282C13.3875 6.75639 13.4919 6.77719 13.5894 6.81758C13.6868 6.85797 13.7754 6.91717 13.8499 6.99178C13.9245 7.0664 13.9836 7.15497 14.0239 7.25244C14.0643 7.34991 14.085 7.45438 14.0849 7.55986V13.006C14.0849 13.219 14.0004 13.4232 13.8498 13.5738C13.6992 13.7244 13.495 13.809 13.282 13.809H4.80309C4.69763 13.809 4.5932 13.7882 4.49577 13.7479C4.39833 13.7076 4.3098 13.6484 4.23523 13.5738C4.16065 13.4993 4.10149 13.4108 4.06113 13.3133C4.02077 13.2159 4 13.1115 4 13.006V7.55986C3.99995 7.45436 4.02068 7.34989 4.06102 7.25241C4.10135 7.15493 4.1605 7.06635 4.23508 6.99173C4.30965 6.91712 4.3982 6.85793 4.49567 6.81754C4.59313 6.77716 4.69759 6.75637 4.80309 6.75637ZM9.71945 11.7797C9.90777 11.7797 10.0374 11.6675 10.0537 11.4954C10.0711 11.3023 9.90791 11.1373 9.70469 11.1373H6.6961C6.50778 11.1373 6.37812 11.2495 6.36188 11.4215C6.34375 11.6146 6.50711 11.7797 6.70993 11.7797H9.71945ZM11.3981 9.42872C11.5864 9.42872 11.7161 9.31637 11.7323 9.14442C11.7505 8.95127 11.5871 8.7863 11.3844 8.7863H6.6961C6.50778 8.7863 6.37812 8.89852 6.36188 9.07046C6.34375 9.26362 6.50711 9.42872 6.70993 9.42872H11.3981ZM13.6547 6.74322C13.6519 6.74107 13.6623 6.73919 13.6757 6.74228L13.6926 6.7459C13.6801 6.74563 13.6674 6.74443 13.6547 6.74322Z" fill="white"/>
</g>
<defs>
<linearGradient id="paint0_linear_221_66" x1="0" y1="20" x2="20" y2="0" gradientUnits="userSpaceOnUse">
<stop offset="0.0674074" stop-color="#9747FF"/>
<stop offset="0.918934" stop-color="#E6D3FF"/>
</linearGradient>
</defs>
</svg>
