<svg width="12" height="13" viewBox="0 0 12 13" fill="none" xmlns="http://www.w3.org/2000/svg">
<g id="Frame">
<path id="Vector" d="M6.00238 6.07458C5.90628 6.07107 5.8137 6.04646 5.72816 6.0031L2.25706 4.36951C1.96527 4.23943 1.83402 3.89724 1.9641 3.60544C2.02269 3.47419 2.12699 3.3699 2.25706 3.31247L5.55589 1.75154C5.69523 1.68613 5.84727 1.65222 6.0012 1.65222C6.15513 1.65222 6.30717 1.68613 6.44652 1.75154L9.74652 3.31247C10.0383 3.44255 10.1696 3.78474 10.0395 4.07654C9.98089 4.20779 9.8766 4.31208 9.74652 4.36951L6.27542 6.00193C6.19105 6.04646 6.0973 6.07107 6.00238 6.07458ZM5.10589 11.3773C5.01683 11.3773 4.92894 11.3551 4.85042 11.3129L1.71449 9.84216C1.51527 9.73787 1.39222 9.53162 1.39456 9.30779V5.55779C1.39574 5.34685 1.50824 5.15349 1.6887 5.04568C1.85628 4.95076 2.06136 4.95076 2.22894 5.04568L5.35902 6.51521C5.54769 6.61716 5.66839 6.81287 5.6766 7.02732V10.782C5.67425 10.9918 5.5641 11.1851 5.3848 11.2941C5.30042 11.3445 5.20433 11.3738 5.10589 11.3773ZM6.89769 11.3773C6.80042 11.3773 6.70433 11.3515 6.61878 11.3035C6.43949 11.1945 6.32933 11.0011 6.32699 10.7914V7.02615C6.33167 6.81287 6.44886 6.61833 6.63402 6.51404L9.78519 5.03513C9.9516 4.94724 10.1532 4.95193 10.3149 5.04802C10.4965 5.15466 10.6078 5.34919 10.609 5.56013V9.30779C10.6137 9.52927 10.4953 9.73552 10.302 9.84216L7.15433 11.314C7.07464 11.3562 6.98675 11.3785 6.89769 11.3773Z" fill="#97A3B7"/>
</g>
</svg>
