<svg width="40" height="40" viewBox="0 0 40 40" fill="none" xmlns="http://www.w3.org/2000/svg">
<g id="Frame">
<rect width="40" height="40" rx="8" fill="#91CAFF"/>
<path id="Vector" d="M17.3767 8.35333L17.0483 8.36833C16.8309 8.37181 16.6145 8.39976 16.4033 8.45166C15.7683 8.61666 15.4067 9.04166 15.3083 9.53833L15.2817 9.735C15.2733 9.86166 15.2817 9.98333 15.3033 10.1017L15.3233 10.1833L15.2317 10.2617C14.52 10.8667 13.8617 11.7733 13.805 12.9317L13.755 13.26C13.6584 14.1923 13.6724 15.1327 13.7967 16.0617L13.8233 16.225L13.75 16.3117C13.5201 16.6059 13.4015 16.9718 13.415 17.345C13.4517 18.0883 13.6917 19.0233 14.3117 19.895L14.4483 20.0767C14.5433 20.1967 14.6533 20.325 14.8217 20.51L14.9583 20.6633C16.0133 21.825 16.4133 22.4917 16.5183 23.6517L16.5433 23.9883L16.5517 24.2783L16.5717 24.2667C16.3583 24.395 15.97 24.545 15.3683 24.7C15.1183 24.7636 14.8665 24.8203 14.6133 24.87L14.2233 24.9417C14.0433 24.9734 13.8627 25.0017 13.6817 25.0267C12.465 25.2317 11.435 25.5967 10.605 26.12C9.92957 26.5349 9.36189 27.1037 8.94832 27.78C8.45499 28.6067 8.30499 29.4083 8.33832 30.0317L8.33666 30.53C8.33666 31.1633 8.85666 31.6667 9.48666 31.6667H30.51C31.1417 31.6667 31.66 31.1617 31.66 30.53V30C31.7 29.42 31.5583 28.625 31.0683 27.805C30.6557 27.1295 30.0892 26.5613 29.415 26.1467C28.585 25.6217 27.5483 25.2483 26.32 25.0283L25.94 24.97L25.7733 24.9417C25.3915 24.8762 25.0124 24.7961 24.6367 24.7017L24.4 24.6383C24.0687 24.556 23.7482 24.4352 23.445 24.2783V24.225C23.445 24.1 23.455 23.91 23.4783 23.6517C23.575 22.5817 23.925 21.93 24.8067 20.9233L25.39 20.2683C26.1004 19.4556 26.5197 18.4293 26.5817 17.3517C26.5817 17.1133 26.5567 16.9267 26.4983 16.7467L26.4417 16.5967C26.3767 16.4504 26.2914 16.3141 26.1883 16.1917L26.2383 15.8117C26.2576 15.6321 26.272 15.452 26.2817 15.2717C26.3301 14.5846 26.3156 13.8945 26.2383 13.21L26.18 12.8267C26.1548 12.6448 26.1169 12.4649 26.0667 12.2883C25.9002 11.6426 25.5903 11.0428 25.16 10.5333C24.27 9.565 22.285 8.61333 18.8833 8.36C18.3817 8.32658 17.8785 8.32435 17.3767 8.35333Z" fill="white"/>
</g>
</svg>
