<svg width="16" height="16" viewBox="0 0 16 16" fill="none" xmlns="http://www.w3.org/2000/svg">
<g id="&#231;&#129;&#175;&#229;&#133;&#137;" clip-path="url(#clip0_7_2817)">
<g id="Union">
<path d="M8.53063 0.202172C8.38421 0.071965 8.19508 2.58484e-05 7.99914 0C7.78696 0 7.58348 0.0842854 7.43345 0.234315C7.28342 0.384344 7.19914 0.587827 7.19914 0.8V1.6L7.20474 1.6936C7.22882 1.89608 7.32931 2.08172 7.48567 2.21259C7.64203 2.34346 7.84247 2.40969 8.04602 2.39774C8.24957 2.38579 8.44088 2.29656 8.58086 2.14829C8.72083 2.00003 8.79891 1.8039 8.79914 1.6V0.8L8.79354 0.7064C8.77061 0.511799 8.67706 0.33238 8.53063 0.202172Z" fill="#FE9E17"/>
<path d="M2.14741 7.41828C1.99914 7.2783 1.80302 7.20023 1.59911 7.2H0.799114L0.705514 7.2056C0.503037 7.22968 0.317398 7.33017 0.186526 7.48654C0.0556534 7.6429 -0.0105737 7.84333 0.00137603 8.04689C0.0133257 8.25044 0.10255 8.44175 0.250819 8.58172C0.399088 8.7217 0.59521 8.79978 0.799114 8.8H1.59911L1.69271 8.7944C1.89519 8.77032 2.08083 8.66983 2.2117 8.51347C2.34257 8.3571 2.4088 8.15667 2.39685 7.95312C2.3849 7.74956 2.29568 7.55826 2.14741 7.41828Z" fill="#FE9E17"/>
<path d="M15.1991 7.2C15.403 7.20023 15.5992 7.2783 15.7474 7.41828C15.8957 7.55826 15.9849 7.74956 15.9969 7.95312C16.0088 8.15667 15.9426 8.3571 15.8117 8.51347C15.6808 8.66983 15.4952 8.77032 15.2927 8.7944L15.1991 8.8H14.3991C14.1952 8.79978 13.9991 8.7217 13.8508 8.58172C13.7026 8.44175 13.6133 8.25044 13.6014 8.04689C13.5894 7.84333 13.6557 7.6429 13.7865 7.48654C13.9174 7.33017 14.1031 7.22968 14.3055 7.2056L14.3991 7.2H15.1991Z" fill="#FE9E17"/>
<path d="M2.82899 2.0817C2.63457 2.09392 2.45129 2.17667 2.31353 2.31441C2.16356 2.46443 2.0793 2.66788 2.0793 2.88001C2.0793 3.09214 2.16356 3.29559 2.31353 3.44561L2.87353 4.00561L2.94873 4.07201C3.10953 4.19634 3.31162 4.2548 3.51395 4.23553C3.71629 4.21625 3.90371 4.12068 4.03814 3.96823C4.17256 3.81578 4.24392 3.61787 4.23772 3.41471C4.23151 3.21156 4.14821 3.01837 4.00473 2.87441L3.44473 2.31441L3.36953 2.24801C3.21561 2.12861 3.02341 2.06947 2.82899 2.0817Z" fill="#FE9E17"/>
<path d="M12.5535 2.3144C12.6975 2.17092 12.8907 2.08762 13.0938 2.08142C13.297 2.07521 13.4949 2.14657 13.6474 2.281C13.7998 2.41543 13.8954 2.60284 13.9147 2.80518C13.9339 3.00752 13.8755 3.20961 13.7511 3.3704L13.6847 3.4456L13.1247 4.0056C12.9808 4.14908 12.7876 4.23238 12.5844 4.23858C12.3813 4.24479 12.1834 4.17343 12.0309 4.039C11.8785 3.90457 11.7829 3.71716 11.7636 3.51482C11.7443 3.31248 11.8028 3.11039 11.9271 2.9496L11.9935 2.8744L12.5535 2.3144Z" fill="#FE9E17"/>
<path d="M5.63226 12.6667H7.41667V9.75H8.58333V12.6667H10.3677C10.4959 12.1171 10.9572 11.6417 11.3183 11.2696C11.4449 11.1391 11.5592 11.0213 11.6425 10.9175C12.2833 10.1184 12.6667 9.10396 12.6667 8C12.6667 5.42267 10.5773 3.33333 8 3.33333C5.42267 3.33333 3.33333 5.42267 3.33333 8C3.33333 9.10337 3.71626 10.1173 4.35647 10.9162C4.43992 11.0203 4.55451 11.1385 4.68145 11.2693C5.04271 11.6418 5.50401 12.1173 5.63226 12.6667Z" fill="#FE9E17"/>
<path d="M10.3333 14.4167V13.8333H5.66667V14.4167C5.66667 15.061 6.189 15.5833 6.83333 15.5833H9.16667C9.81102 15.5833 10.3333 15.061 10.3333 14.4167Z" fill="#FE9E17"/>
</g>
</g>
<defs>
<clipPath id="clip0_7_2817">
<rect width="16" height="16" fill="white"/>
</clipPath>
</defs>
</svg>
