<svg width="20" height="20" viewBox="0 0 20 20" fill="none" xmlns="http://www.w3.org/2000/svg">
<g id="&#230;&#150;&#135;&#228;&#187;&#182;">
<rect width="20" height="20" rx="6" fill="url(#paint0_linear_833_579)"/>
<path id="Union" fill-rule="evenodd" clip-rule="evenodd" d="M6.19977 4.00231H13.9983C14.3165 4.00231 14.6216 4.12871 14.8466 4.35371C15.0716 4.57871 15.198 4.88388 15.198 5.20208V11.8008H12.6815C12.2355 11.8016 11.808 11.9791 11.4926 12.2945C11.1772 12.6099 10.9996 13.0375 10.9988 13.4835V16H6.19977C5.88157 16 5.5764 15.8736 5.3514 15.6486C5.1264 15.4236 5 15.1184 5 14.8002V5.20208C5 5.16608 5 5.13309 5.03599 5.0731C5.03306 5.04819 5.03306 5.02303 5.03599 4.99812C5.03431 4.97015 5.03431 4.9421 5.03599 4.91413C5.04122 4.88572 5.04823 4.85767 5.05699 4.83015C5.06686 4.79504 5.07991 4.76091 5.09598 4.72817C5.10591 4.69885 5.11898 4.67069 5.13497 4.64419C5.18562 4.54286 5.25135 4.44982 5.32994 4.36824C5.35144 4.34473 5.37449 4.32269 5.39892 4.30225C5.4228 4.27876 5.44892 4.25766 5.47691 4.23926C5.50215 4.21789 5.52925 4.19882 5.55789 4.18227C5.6417 4.12739 5.73249 4.08401 5.82784 4.0533L5.92682 4.0263L6.0618 4.00231C6.10774 3.99923 6.15383 3.99923 6.19977 4.00231ZM7.75647 10.919H10.156C10.2753 10.919 10.3897 10.8715 10.4741 10.7872C10.5585 10.7028 10.6058 10.5884 10.6058 10.4691C10.6058 10.3498 10.5585 10.2353 10.4741 10.151C10.3897 10.0666 10.2753 10.0192 10.156 10.0191H7.75647C7.63716 10.0192 7.52274 10.0666 7.43838 10.151C7.35402 10.2353 7.30663 10.3498 7.30663 10.4691C7.30663 10.5884 7.35402 10.7028 7.43838 10.7872C7.52274 10.8715 7.63716 10.919 7.75647 10.919ZM7.75647 8.2195H11.9557C12.075 8.2195 12.1894 8.17209 12.2738 8.08772C12.3582 8.00334 12.4056 7.88891 12.4056 7.76958C12.4056 7.65026 12.3582 7.53582 12.2738 7.45145C12.1894 7.36707 12.075 7.31967 11.9557 7.31967H7.75647C7.63714 7.31967 7.52271 7.36707 7.43833 7.45145C7.35396 7.53582 7.30656 7.65026 7.30656 7.76958C7.30656 7.88891 7.35396 8.00334 7.43833 8.08772C7.52271 8.17209 7.63714 8.2195 7.75647 8.2195ZM11.5987 16V13.4835C11.5987 13.3413 11.6267 13.2005 11.6812 13.0691C11.7356 12.9377 11.8153 12.8184 11.9159 12.7178C12.0164 12.6173 12.1358 12.5375 12.2672 12.4831C12.3985 12.4287 12.5393 12.4007 12.6815 12.4007H15.198L11.5987 16Z" fill="white"/>
</g>
<defs>
<linearGradient id="paint0_linear_833_579" x1="0" y1="20" x2="20" y2="0" gradientUnits="userSpaceOnUse">
<stop offset="0.0674074" stop-color="#1776FF"/>
<stop offset="0.918934" stop-color="#C5DCFF"/>
</linearGradient>
</defs>
</svg>
