<svg xmlns="http://www.w3.org/2000/svg" width="14" height="14" viewBox="0 0 14 14" fill="none">
  <path fill-rule="evenodd" clip-rule="evenodd" d="M7.73206 2.34015C8.233 1.83894 9.04535 1.8386 9.54671 2.33939L10.7544 3.54576C11.256 4.04676 11.2564 4.85952 10.7552 5.36094L5.0539 11.0654C4.87515 11.2442 4.64756 11.3663 4.39969 11.4162L1.85286 11.9294C1.66132 11.968 1.46317 11.9081 1.32504 11.7699C1.18692 11.6317 1.12716 11.4335 1.16587 11.242L1.67996 8.69817C1.72995 8.45081 1.85176 8.22368 2.03016 8.04518L7.73206 2.34015ZM8.72221 3.16481C8.67664 3.11928 8.60279 3.11932 8.55725 3.16488L2.85534 8.86991C2.83913 8.88614 2.82805 8.90679 2.82351 8.92927L2.48339 10.6122L4.16924 10.2725C4.19178 10.268 4.21247 10.2569 4.22872 10.2406L9.93003 4.5362C9.97558 4.49062 9.97555 4.41673 9.92996 4.37119L8.72221 3.16481ZM9.16643 11.2082C8.94583 10.8613 8.45484 10.8215 8.18118 11.1282L7.74819 11.6135C7.5337 11.8539 7.16495 11.8749 6.92457 11.6604C6.68418 11.4459 6.66318 11.0771 6.87766 10.8367L7.31066 10.3515C8.09955 9.4673 9.51494 9.58222 10.1509 10.5821C10.3564 10.9052 10.8028 10.9664 11.0877 10.7106L11.8726 10.0059C12.1123 9.7907 12.4811 9.81056 12.6963 10.0503C12.9116 10.29 12.8917 10.6588 12.652 10.874L11.8671 11.5787C11.0458 12.3162 9.75882 12.1396 9.16643 11.2082Z" fill="#5F7292"/>
</svg>