<svg width="36" height="36" viewBox="0 0 36 36" fill="none" xmlns="http://www.w3.org/2000/svg">
<g id="Frame 427322922">
<rect width="36" height="36" rx="6" fill="white"/>
<path id="Union" fill-rule="evenodd" clip-rule="evenodd" d="M13.2276 18.1711L14.0248 12.1817H9.41576L8.37593 20.5783C9.23981 21.9771 10.3419 23.2138 11.6323 24.2325C11.7805 24.3547 11.9425 24.4803 12.1288 24.6155H12.134C12.1904 24.6588 12.2484 24.7021 12.3073 24.742L18.9701 15.7232L18.75 22.723H24.4976L31.4402 12.1817H26.8277L22.846 18.1711L23.6424 4L13.2276 18.1711ZM14.471 7.49905C15.3461 7.4961 16.2192 7.58498 17.0758 7.7642C17.1447 7.77858 17.2124 7.7913 17.2788 7.80376L17.2788 7.80376L17.2788 7.80376C17.4044 7.82735 17.525 7.85 17.639 7.88118L18.1286 8.01549L18.548 8.13247L18.8903 8.25205L19.5133 8.47302L18.8651 8.34391L18.5142 8.27112L18.087 8.21046L17.9491 8.19113L17.9491 8.19113C17.6754 8.15248 17.3694 8.10925 17.0298 8.09001C16.6832 8.05535 16.3011 8.03629 15.8904 8.03629C15.3214 8.03756 14.753 8.07025 14.1876 8.13421C12.9871 8.27092 11.8166 8.601 10.7215 9.11165L10.498 9.21563C10.451 9.23883 10.4058 9.26556 10.3604 9.29244C10.3345 9.30772 10.3086 9.32305 10.2822 9.33781L9.84896 9.58997C9.75649 9.64534 9.66932 9.70955 9.58182 9.77402L9.5818 9.77404C9.53237 9.81046 9.48283 9.84695 9.43216 9.88199C9.28868 9.97682 9.15228 10.0819 9.02402 10.1965L8.63149 10.5431C8.54872 10.6176 8.47333 10.7002 8.39771 10.783L8.39771 10.783C8.35458 10.8303 8.31137 10.8776 8.26668 10.9235L8.08385 11.1176C8.04588 11.1595 8.01402 11.2039 7.98203 11.2485L7.98202 11.2485C7.96437 11.2731 7.94667 11.2978 7.92787 11.3221L7.61332 11.7329L7.31091 12.2467L7.23465 12.3758L7.21559 12.4079L7.21224 12.4137L7.21472 12.4105L7.18526 12.4729L7.06741 12.7233C7.01838 12.8229 6.97845 12.9282 6.93875 13.0329C6.9125 13.1022 6.88634 13.1711 6.85771 13.238C6.83836 13.3037 6.81704 13.3688 6.7957 13.4339C6.75874 13.5467 6.72172 13.6597 6.69481 13.7761C6.49856 14.5225 6.41848 15.2947 6.45738 16.0655C6.52497 17.6452 7.09514 19.25 7.95647 20.7049C8.85273 22.1832 10.0077 23.4882 11.3662 24.5574C11.5343 24.6969 11.7077 24.8287 11.8862 24.9569L11.976 25.0215C12.1237 25.1279 12.27 25.2332 12.4199 25.3356C12.7821 25.5834 13.1244 25.7948 13.536 26.0288C14.2869 26.4568 15.069 26.8276 15.8756 27.1379C17.4822 27.7445 19.1589 28.105 20.7888 28.1396H21.0852C22.6068 28.1396 24.0747 27.8745 25.3502 27.3312C26.0086 27.0524 26.6269 26.6873 27.189 26.2454C27.7135 25.8373 28.1784 25.3578 28.5702 24.8209C29.2648 23.8464 29.7137 22.7185 29.8787 21.5333C30.0004 20.599 29.9755 19.6515 29.805 18.7249C29.6955 18.1184 29.539 17.5213 29.3371 16.939C29.1846 16.5395 29.1083 16.3255 29.1083 16.3255L29.195 16.4728C29.2128 16.5066 29.2346 16.5453 29.2595 16.5895C29.3073 16.6743 29.3662 16.7789 29.4289 16.906C29.7146 17.4669 29.9489 18.0525 30.1291 18.6555C30.2589 19.0898 30.3587 19.5325 30.428 19.9805C30.5059 20.5151 30.5349 21.0557 30.5147 21.5957C30.4808 22.217 30.3774 22.8327 30.2062 23.431C30.1142 23.7584 29.9984 24.0788 29.8596 24.3893C29.8325 24.445 29.8077 24.4999 29.7829 24.5551C29.7361 24.6587 29.689 24.7631 29.6256 24.8746L29.5035 25.0973C29.4624 25.1766 29.417 25.2535 29.3674 25.3278C28.9631 25.9832 28.4671 26.5773 27.8943 27.092C27.2839 27.6391 26.5992 28.0971 25.8606 28.4525C24.273 29.2111 22.5345 29.6012 20.775 29.5937H20.6883C18.8556 29.5923 17.0372 29.2697 15.3159 28.6405C14.4182 28.3154 13.5488 27.9172 12.7163 27.4499C12.3324 27.235 11.8922 26.9681 11.4971 26.7004L11.497 26.7003L11.497 26.7003C11.2977 26.566 11.0985 26.4317 10.9061 26.2862C10.85 26.2437 10.7938 26.2018 10.7375 26.1599C10.6008 26.0582 10.4645 25.9566 10.3325 25.8486C8.83166 24.6441 7.5206 23.1762 6.57176 21.5081C6.33294 21.0923 6.11658 20.6639 5.9236 20.2248C5.73659 19.7872 5.57542 19.339 5.44095 18.8826C5.16716 17.9804 5.01961 17.0446 5.00249 16.1019C4.97999 15.1807 5.11029 14.2622 5.38809 13.3836C5.4316 13.2372 5.48667 13.0944 5.54141 12.9525C5.56734 12.8852 5.5932 12.8182 5.61772 12.751C5.64987 12.6829 5.68005 12.6142 5.71015 12.5457L5.71016 12.5457L5.71016 12.5457C5.7693 12.4111 5.82815 12.2772 5.90107 12.1497L6.05618 11.8603L6.09517 11.7883C6.11684 11.7511 6.1203 11.7467 6.1203 11.7467V11.7415L6.1307 11.7259L6.1515 11.6939L6.23815 11.5691L6.56743 11.0726C6.67528 10.9343 6.7881 10.7988 6.89972 10.6647L6.98423 10.5631C7.00813 10.5354 7.03154 10.5067 7.05489 10.4781L7.05491 10.4781L7.05491 10.4781C7.10097 10.4217 7.14679 10.3656 7.19566 10.3178L7.41922 10.1012C7.47011 10.0538 7.51981 10.0053 7.56936 9.95686L7.56937 9.95685L7.56938 9.95685C7.66664 9.86182 7.76331 9.76736 7.86721 9.68355L8.3438 9.31701C8.49981 9.19807 8.66367 9.0898 8.83426 8.99293C8.8921 8.95877 8.94891 8.92335 9.00547 8.8881L9.00548 8.88809L9.00548 8.88809C9.11244 8.82141 9.21852 8.75529 9.32904 8.69918L9.83423 8.45309C9.86871 8.43757 9.90195 8.42068 9.93478 8.40401C9.98446 8.37877 10.0332 8.35402 10.0838 8.33524L10.3385 8.23819C11.5529 7.76874 12.8408 7.51847 14.1426 7.49905H14.471ZM10.0691 26.177C10.2459 26.3208 10.44 26.4698 10.6601 26.6284C10.6975 26.6568 10.736 26.684 10.7747 26.7113C10.7951 26.7258 10.8156 26.7402 10.836 26.7549L6.96955 32L7.93919 24.1432C8.58853 24.8819 9.30121 25.5624 10.0691 26.177Z" fill="#1776FF"/>
</g>
</svg>
