<svg width="16" height="16" viewBox="0 0 16 16" fill="none" xmlns="http://www.w3.org/2000/svg">
<g id="Frame" clip-path="url(#clip0_7_2825)">
<path id="Vector" d="M5.8146 15.7007C4.92134 15.4486 4.079 15.0424 3.32556 14.5004L3.35938 12.883C3.36641 12.5432 3.25424 12.2117 3.04235 11.946C2.83046 11.6803 2.53222 11.4972 2.19941 11.4285L0.612896 11.1005C0.253129 10.2449 0.0457672 9.33301 0.000183105 8.40599L1.28524 7.4242C1.55539 7.21786 1.74473 6.92343 1.82039 6.59203C1.89605 6.26062 1.85325 5.91319 1.69942 5.61006L0.966707 4.16645C1.41239 3.35226 1.99579 2.62147 2.69103 2.0065L4.26009 2.39922C4.5898 2.48172 4.93799 2.44614 5.2442 2.29868C5.55042 2.15122 5.79533 1.90118 5.93641 1.59197L6.6084 0.119273C7.06471 0.0399645 7.52702 0.000181416 7.99018 0.000366856C8.46108 0.000366856 8.92253 0.0410932 9.37161 0.119273L10.0436 1.59197C10.1847 1.90118 10.4296 2.15122 10.7358 2.29868C11.042 2.44614 11.3902 2.48172 11.7199 2.39922L13.2886 2.0065C13.9838 2.62147 14.5673 3.35226 15.0129 4.16645L14.2806 5.61006C14.1267 5.91315 14.0839 6.26056 14.1594 6.59196C14.235 6.92335 14.4243 7.21781 14.6944 7.4242L15.9795 8.40599C15.9339 9.33301 15.7265 10.2449 15.3667 11.1005L13.7806 11.4281C13.4478 11.4969 13.1495 11.68 12.9377 11.9457C12.7258 12.2114 12.6136 12.5429 12.6206 12.8826L12.6541 14.5004C11.9006 15.0423 11.0583 15.4484 10.165 15.7004L8.91998 14.6648C8.65873 14.4474 8.32964 14.3285 7.98982 14.3285C7.65 14.3285 7.32091 14.4474 7.05966 14.6648L5.8146 15.7007ZM7.98982 11.2728C8.85778 11.2728 9.69019 10.928 10.3039 10.3143C10.9177 9.70056 11.2625 8.86815 11.2625 8.00019C11.2625 7.13222 10.9177 6.29981 10.3039 5.68607C9.69019 5.07233 8.85778 4.72753 7.98982 4.72753C7.12186 4.72753 6.28945 5.07233 5.6757 5.68607C5.06196 6.29981 4.71717 7.13222 4.71717 8.00019C4.71717 8.86815 5.06196 9.70056 5.6757 10.3143C6.28945 10.928 7.12186 11.2728 7.98982 11.2728Z" fill="#1776FF"/>
</g>
<defs>
<clipPath id="clip0_7_2825">
<rect width="16" height="16" fill="white"/>
</clipPath>
</defs>
</svg>
