<svg width="14" height="14" viewBox="0 0 14 14" fill="none" xmlns="http://www.w3.org/2000/svg">
<g id="Frame">
<path id="Vector" d="M6.1629 10.5L8.5877 11.9H4.2001C4.01445 11.9 3.8364 11.8262 3.70512 11.695C3.57385 11.5637 3.5001 11.3856 3.5001 11.2C3.5001 11.0143 3.57385 10.8363 3.70512 10.705C3.8364 10.5737 4.01445 10.5 4.2001 10.5H6.1629ZM9.8001 4.89998L12.8311 6.64998V10.15L9.8001 11.9L6.7691 10.15V6.64998L9.8001 4.89998ZM11.2001 2.09998C11.292 2.09998 11.383 2.11808 11.468 2.15326C11.5529 2.18844 11.6301 2.24 11.6951 2.305C11.7601 2.37 11.8116 2.44717 11.8468 2.5321C11.882 2.61703 11.9001 2.70805 11.9001 2.79998V5.41238L9.8001 4.19998L6.1629 6.29998L6.1622 9.79998H2.8001C2.70817 9.79998 2.61715 9.78187 2.53222 9.74669C2.44729 9.71151 2.37012 9.65995 2.30512 9.59495C2.24012 9.52995 2.18856 9.45278 2.15338 9.36785C2.1182 9.28293 2.1001 9.1919 2.1001 9.09998V2.79998C2.1001 2.61432 2.17385 2.43628 2.30512 2.305C2.4364 2.17373 2.61445 2.09998 2.8001 2.09998H11.2001ZM9.8001 6.99998C9.42879 6.99998 9.0727 7.14748 8.81015 7.41003C8.5476 7.67258 8.4001 8.02867 8.4001 8.39998C8.4001 8.77128 8.5476 9.12738 8.81015 9.38993C9.0727 9.65248 9.42879 9.79998 9.8001 9.79998C10.1714 9.79998 10.5275 9.65248 10.79 9.38993C11.0526 9.12738 11.2001 8.77128 11.2001 8.39998C11.2001 8.02867 11.0526 7.67258 10.79 7.41003C10.5275 7.14748 10.1714 6.99998 9.8001 6.99998ZM9.8001 7.69998C9.98575 7.69998 10.1638 7.77373 10.2951 7.905C10.4263 8.03628 10.5001 8.21432 10.5001 8.39998C10.5001 8.58563 10.4263 8.76368 10.2951 8.89495C10.1638 9.02623 9.98575 9.09998 9.8001 9.09998C9.61445 9.09998 9.4364 9.02623 9.30512 8.89495C9.17385 8.76368 9.1001 8.58563 9.1001 8.39998C9.1001 8.21432 9.17385 8.03628 9.30512 7.905C9.4364 7.77373 9.61445 7.69998 9.8001 7.69998Z" fill="#1776FF"/>
</g>
</svg>
