<svg width="14" height="14" viewBox="0 0 14 14" fill="none" xmlns="http://www.w3.org/2000/svg">
<g id="Frame" clip-path="url(#clip0_63_2273)">
<path id="Vector" d="M7.00009 13.0861C10.3714 13.0861 13.1047 10.3528 13.1047 6.98147C13.1047 3.61018 10.3714 0.87682 7.00008 0.87682C3.6288 0.87682 0.895435 3.61018 0.895435 6.98147C0.895421 10.3527 3.6288 13.0861 7.00009 13.0861ZM3.99923 7.61938L6.55645 4.4005C6.70988 4.22689 6.81183 4.12292 6.99957 4.12292C7.18731 4.12292 7.29682 4.24505 7.44268 4.4005L10.0004 7.61938C10.0358 7.69104 10.0539 7.76876 10.0539 7.84648C10.0539 7.93934 10.0287 8.03069 9.97974 8.11144C9.88991 8.26031 9.72942 8.35923 9.55783 8.35923L4.44184 8.35923C4.26923 8.35923 4.10926 8.26031 4.01941 8.11144C3.92908 7.96256 3.921 7.77584 3.99923 7.61938Z" fill="#1776FF"/>
</g>
<defs>
<clipPath id="clip0_63_2273">
<rect width="14" height="14" fill="white" transform="translate(14 14) rotate(180)"/>
</clipPath>
</defs>
</svg>
