<svg width="20" height="20" viewBox="0 0 20 20" fill="none" xmlns="http://www.w3.org/2000/svg">
<g id="Frame 427323262">
<path id="Vector" d="M9.85372 2.5C5.79241 2.5 2.5 5.79244 2.5 9.85372C2.5 13.915 5.79241 17.2074 9.85372 17.2074C13.915 17.2074 17.2074 13.915 17.2074 9.85372C17.2074 5.79241 13.915 2.5 9.85372 2.5ZM9.44818 13.2092L9.00609 13.6372C8.6044 14.0259 8.07657 14.22 7.54916 14.22C7.02156 14.22 6.49418 14.0258 6.09271 13.6373C5.70222 13.2595 5.48748 12.7572 5.48748 12.2227C5.48748 11.6879 5.70225 11.1854 6.09249 10.8074L7.71908 9.23383C8.73029 8.25565 9.89122 8.11513 10.6771 8.87523C10.8889 9.08039 10.8902 9.41452 10.6797 9.62116C10.4692 9.82807 10.1268 9.82942 9.9145 9.62387C9.45246 9.17702 8.81847 9.65683 8.48137 9.98291L6.8548 11.5566C6.67075 11.7343 6.56979 11.9711 6.56979 12.2227C6.56979 12.474 6.67075 12.7106 6.8548 12.8885C7.23764 13.259 7.86064 13.2585 8.24343 12.8885L8.68555 12.4605C8.89762 12.2555 9.24029 12.2565 9.45082 12.4632C9.66139 12.6699 9.66024 13.0041 9.44818 13.2092ZM13.6147 9.17821L11.8795 10.8566C11.3433 11.3755 10.7799 11.6376 10.2461 11.6376C9.81035 11.6376 9.3943 11.4629 9.03029 11.1104C8.818 10.905 8.81668 10.571 9.02758 10.3644C9.23811 10.1576 9.58056 10.1562 9.79262 10.3616C9.95134 10.5152 10.3239 10.8757 11.1169 10.1079L12.8526 8.42935C13.0363 8.25134 13.1375 8.01458 13.1375 7.76304C13.1375 7.51167 13.0364 7.27517 12.8521 7.09697C12.5066 6.76281 11.9769 6.60032 11.5721 6.99216L11.0216 7.52518C10.8095 7.73028 10.467 7.72916 10.2563 7.52247C10.0456 7.3156 10.047 6.98162 10.2592 6.77627L10.81 6.24329C11.5909 5.48748 12.7709 5.53189 13.6147 6.34832C14.0049 6.72621 14.22 7.22847 14.22 7.76302C14.22 8.29784 14.0049 8.80031 13.6147 9.17821Z" fill="#1776FF"/>
</g>
</svg>
