<svg width="14" height="14" viewBox="0 0 14 14" fill="" xmlns="http://www.w3.org/2000/svg">
<g clip-path="url(#clip0_416_2507)">
<path fill-rule="evenodd" clip-rule="evenodd" d="M6.64644 1.04647C6.8417 0.851209 7.15828 0.851209 7.35355 1.04647L9.31538 3.0083C9.51064 3.20357 9.51064 3.52015 9.31538 3.71541C9.12012 3.91067 8.80354 3.91067 8.60827 3.71541L7.49999 2.60713V6.50002H11.3929L10.2846 5.39174C10.0893 5.19648 10.0893 4.8799 10.2846 4.68464C10.4799 4.48937 10.7965 4.48937 10.9917 4.68464L12.9535 6.64647C13.0473 6.74024 13.1 6.86742 13.1 7.00002C13.1 7.13263 13.0473 7.25981 12.9535 7.35358L10.9917 9.31541C10.7965 9.51067 10.4799 9.51067 10.2846 9.31541C10.0893 9.12015 10.0893 8.80357 10.2846 8.6083L11.3929 7.50002H7.49999V11.3929L8.60827 10.2846C8.80354 10.0894 9.12012 10.0894 9.31538 10.2846C9.51064 10.4799 9.51064 10.7965 9.31538 10.9917L7.35355 12.9536C7.25978 13.0473 7.1326 13.1 6.99999 13.1C6.86738 13.1 6.74021 13.0473 6.64644 12.9536L4.68461 10.9917C4.48935 10.7965 4.48935 10.4799 4.68461 10.2846C4.87987 10.0894 5.19645 10.0894 5.39171 10.2846L6.49999 11.3929V7.50002H2.6071L3.71538 8.6083C3.91064 8.80357 3.91064 9.12015 3.71538 9.31541C3.52012 9.51067 3.20354 9.51067 3.00827 9.31541L1.04644 7.35358C0.851178 7.15832 0.851178 6.84173 1.04644 6.64647L3.00827 4.68464C3.20354 4.48937 3.52012 4.48937 3.71538 4.68464C3.91064 4.8799 3.91064 5.19648 3.71538 5.39174L2.6071 6.50002H6.49999V2.60713L5.39171 3.71541C5.19645 3.91067 4.87987 3.91067 4.68461 3.71541C4.48934 3.52015 4.48934 3.20357 4.68461 3.0083L6.64644 1.04647Z" fill=""/>
</g>
<defs>
<clipPath id="clip0_416_2507">
<rect width="14" height="14" fill="white"/>
</clipPath>
</defs>
</svg>
