<svg width="20" height="20" viewBox="0 0 20 20" fill="none" xmlns="http://www.w3.org/2000/svg">
<path fill-rule="evenodd" clip-rule="evenodd" d="M10.0009 1.66663C10.4612 1.66663 10.8343 2.03972 10.8343 2.49996V10.4427L13.2217 8.05959C13.5475 7.73444 14.0751 7.73492 14.4002 8.06065C14.7254 8.38638 14.7249 8.91402 14.3992 9.23916L10.5897 13.0418C10.2643 13.3665 9.73752 13.3665 9.41221 13.0418L5.60268 9.23916C5.27695 8.91402 5.27648 8.38638 5.60162 8.06065C5.92676 7.73492 6.4544 7.73444 6.78013 8.05959L9.1676 10.4427V2.49996C9.1676 2.03972 9.54069 1.66663 10.0009 1.66663ZM16.6667 11.837C17.1269 11.837 17.5 12.21 17.5 12.6703V15.7437C17.5 16.4168 17.2466 17.0706 16.783 17.5592C16.3179 18.0493 15.6775 18.3333 15 18.3333H5C4.32246 18.3333 3.68209 18.0493 3.21702 17.5592C2.75335 17.0706 2.5 16.4168 2.5 15.7437L2.5 12.6703C2.5 12.21 2.8731 11.837 3.33333 11.837C3.79357 11.837 4.16667 12.21 4.16667 12.6703V15.7437C4.16667 16.0022 4.2645 16.2418 4.42596 16.4119C4.58601 16.5806 4.79348 16.6666 5 16.6666H15C15.2065 16.6666 15.414 16.5806 15.574 16.4119C15.7355 16.2418 15.8333 16.0022 15.8333 15.7437V12.6703C15.8333 12.21 16.2064 11.837 16.6667 11.837Z" fill="#5F7292"/>
</svg>
