<svg xmlns="http://www.w3.org/2000/svg" width="20" height="20" viewBox="0 0 20 20" fill="">
  <path fill-rule="evenodd" clip-rule="evenodd" d="M4.37502 3.33333C3.79972 3.33333 3.33335 3.7997 3.33335 4.375V11.712C3.33335 12.2873 3.79972 12.7536 4.37502 12.7536H8.12502C8.44571 12.7536 8.73795 12.9376 8.87653 13.2269L10.0311 15.6363L11.299 13.202C11.4425 12.9265 11.7274 12.7536 12.0381 12.7536H15.625C16.2003 12.7536 16.6667 12.2872 16.6667 11.712V4.375C16.6667 3.7997 16.2003 3.33333 15.625 3.33333H4.37502ZM1.66669 4.375C1.66669 2.87923 2.87925 1.66666 4.37502 1.66666H15.625C17.1208 1.66666 18.3334 2.87923 18.3334 4.375V11.712C18.3334 13.2077 17.1208 14.4203 15.625 14.4203H12.5436L10.7391 17.8849C10.5933 18.1649 10.3018 18.3385 9.98613 18.3332C9.67049 18.328 9.38492 18.1448 9.24851 17.8601L7.60026 14.4203H4.37502C2.87925 14.4203 1.66669 13.2077 1.66669 11.712V4.375ZM10 5.41666C10.4603 5.41666 10.8334 5.78976 10.8334 6.25V7.29166H11.875C12.3353 7.29166 12.7084 7.66476 12.7084 8.125C12.7084 8.58523 12.3353 8.95833 11.875 8.95833H10.8334V10C10.8334 10.4602 10.4603 10.8333 10 10.8333C9.53978 10.8333 9.16669 10.4602 9.16669 10V8.95833H8.12502C7.66478 8.95833 7.29169 8.58523 7.29169 8.125C7.29169 7.66476 7.66478 7.29166 8.12502 7.29166H9.16669V6.25C9.16669 5.78976 9.53978 5.41666 10 5.41666Z" fill="white"/>
</svg>