<svg width="20" height="20" viewBox="0 0 20 20" fill="" xmlns="http://www.w3.org/2000/svg">
<path fill-rule="evenodd" clip-rule="evenodd" d="M5.3125 1.75C5.72671 1.75 6.0625 2.08579 6.0625 2.5L6.0625 15.6893L7.59467 14.1572C7.88756 13.8643 8.36244 13.8643 8.65533 14.1572C8.94822 14.4501 8.94822 14.9249 8.65533 15.2178L5.84283 18.0303C5.54994 18.3232 5.07506 18.3232 4.78217 18.0303L1.96967 15.2178C1.67678 14.9249 1.67678 14.4501 1.96967 14.1572C2.26256 13.8643 2.73744 13.8643 3.03033 14.1572L4.5625 15.6893L4.5625 2.5C4.5625 2.08579 4.89829 1.75 5.3125 1.75ZM14.6875 1.75C14.8864 1.75 15.0772 1.82902 15.2178 1.96967L18.0303 4.78217C18.3232 5.07506 18.3232 5.54994 18.0303 5.84283C17.7374 6.13572 17.2626 6.13572 16.9697 5.84283L15.4375 4.31066L15.4375 17.5C15.4375 17.9142 15.1017 18.25 14.6875 18.25C14.2733 18.25 13.9375 17.9142 13.9375 17.5L13.9375 4.31066L12.4053 5.84283C12.1124 6.13572 11.6376 6.13572 11.3447 5.84283C11.0518 5.54994 11.0518 5.07506 11.3447 4.78217L14.1572 1.96967C14.2978 1.82902 14.4886 1.75 14.6875 1.75Z" fill=""/>
</svg>
