<svg width="14" height="14" viewBox="0 0 14 14" fill="" xmlns="http://www.w3.org/2000/svg">
<path fill-rule="evenodd" clip-rule="evenodd" d="M3.43753 0.287554C3.66533 0.0597478 4.03468 0.0597478 4.26249 0.287554L5.66249 1.68755C5.77188 1.79695 5.83334 1.94532 5.83334 2.10003C5.83334 2.25474 5.77188 2.40312 5.66249 2.51251L4.26249 3.91251C4.03468 4.14032 3.66533 4.14032 3.43753 3.91251C3.20972 3.68471 3.20972 3.31536 3.43753 3.08755L3.84172 2.68337H2.91667C2.20791 2.68337 1.63334 3.25793 1.63334 3.9667V4.90003C1.63334 5.2222 1.37217 5.48337 1.05001 5.48337C0.727842 5.48337 0.466675 5.2222 0.466675 4.90003V3.9667C0.466675 2.6136 1.56358 1.5167 2.91667 1.5167H3.84172L3.43753 1.11251C3.20972 0.884706 3.20972 0.515359 3.43753 0.287554ZM9.02195 2.68337C7.80119 2.68337 6.77822 3.53619 6.51888 4.67912C6.44759 4.9933 6.1351 5.1902 5.82092 5.1189C5.50675 5.04761 5.30985 4.73513 5.38114 4.42095C5.75841 2.75829 7.24449 1.5167 9.02195 1.5167C11.0838 1.5167 12.7553 3.18817 12.7553 5.25003C12.7553 7.16034 11.321 8.7348 9.47028 8.95666C9.1504 8.99501 8.86001 8.76679 8.82166 8.44691C8.78331 8.12704 9.01154 7.83664 9.33141 7.79829C10.6028 7.64588 11.5886 6.56265 11.5886 5.25003C11.5886 3.8325 10.4395 2.68337 9.02195 2.68337ZM4.20001 6.88337C2.78248 6.88337 1.63334 8.0325 1.63334 9.45003C1.63334 10.8676 2.78248 12.0167 4.20001 12.0167C5.61754 12.0167 6.76667 10.8676 6.76667 9.45003C6.76667 8.0325 5.61754 6.88337 4.20001 6.88337ZM0.466675 9.45003C0.466675 7.38817 2.13815 5.7167 4.20001 5.7167C6.26187 5.7167 7.93334 7.38817 7.93334 9.45003C7.93334 11.5119 6.26187 13.1834 4.20001 13.1834C2.13815 13.1834 0.466675 11.5119 0.466675 9.45003ZM12.95 8.5167C13.2722 8.5167 13.5333 8.77787 13.5333 9.10003V10.0334C13.5333 11.3865 12.4364 12.4834 11.0833 12.4834H10.1583L10.5625 12.8876C10.7903 13.1154 10.7903 13.4847 10.5625 13.7125C10.3347 13.9403 9.96533 13.9403 9.73753 13.7125L8.33753 12.3125C8.22813 12.2031 8.16668 12.0547 8.16668 11.9C8.16668 11.7453 8.22813 11.5969 8.33753 11.4876L9.73753 10.0876C9.96533 9.85975 10.3347 9.85975 10.5625 10.0876C10.7903 10.3154 10.7903 10.6847 10.5625 10.9125L10.1583 11.3167H11.0833C11.7921 11.3167 12.3667 10.7421 12.3667 10.0334V9.10003C12.3667 8.77787 12.6278 8.5167 12.95 8.5167Z" fill=""/>
</svg>
