<svg width="14" height="14" viewBox="0 0 14 14" fill="" xmlns="http://www.w3.org/2000/svg">
<path fill-rule="evenodd" clip-rule="evenodd" d="M4.08326 2.63478C4.94662 2.05791 5.96165 1.75 7 1.75C8.39188 1.75165 9.72628 2.3053 10.7105 3.28951C11.6947 4.27372 12.2484 5.60812 12.25 7C12.25 8.03835 11.9421 9.05338 11.3652 9.91674C10.7883 10.7801 9.9684 11.453 9.00909 11.8504C8.04978 12.2477 6.99418 12.3517 5.97578 12.1491C4.95738 11.9465 4.02192 11.4465 3.28769 10.7123C2.55347 9.97808 2.05345 9.04262 1.85088 8.02422C1.64831 7.00582 1.75227 5.95022 2.14963 4.99091C2.54699 4.0316 3.2199 3.21166 4.08326 2.63478ZM7.41821 6.58304H9.6586C9.76919 6.58304 9.87525 6.62697 9.95344 6.70516C10.0316 6.78336 10.0756 6.88941 10.0756 7C10.0756 7.11058 10.0316 7.21664 9.95344 7.29484C9.87525 7.37303 9.76919 7.41696 9.6586 7.41696H7.41821V9.65736C7.41819 9.76793 7.37425 9.87397 7.29606 9.95215C7.21786 10.0303 7.11182 10.0743 7.00124 10.0743C6.89067 10.0743 6.78462 10.0303 6.70643 9.95215C6.62823 9.87397 6.5843 9.76793 6.58428 9.65736V7.41696H4.34388C4.2333 7.41696 4.12724 7.37303 4.04905 7.29484C3.97085 7.21664 3.92692 7.11058 3.92692 7C3.92692 6.88941 3.97085 6.78336 4.04905 6.70516C4.12724 6.62697 4.2333 6.58304 4.34388 6.58304H6.58428V4.34264C6.5843 4.23206 6.62823 4.12602 6.70643 4.04784C6.78462 3.96966 6.89067 3.92574 7.00124 3.92574C7.11182 3.92574 7.21786 3.96966 7.29606 4.04784C7.37425 4.12602 7.41819 4.23206 7.41821 4.34264V6.58304Z" fill=""/>
</svg>
