<svg width="14" height="14" viewBox="0 0 14 14" fill="" xmlns="http://www.w3.org/2000/svg">
<path fill-rule="evenodd" clip-rule="evenodd" d="M8.50339 2.44655C8.97179 1.97789 9.7314 1.97757 10.2002 2.44584L11.4079 3.65222C11.8769 4.12068 11.8772 4.88067 11.4087 5.34952L5.70734 11.054C5.5402 11.2212 5.32738 11.3353 5.09561 11.382L2.54878 11.8952C2.3846 11.9283 2.21476 11.877 2.09637 11.7585C1.97797 11.64 1.92675 11.4702 1.95993 11.306L2.47402 8.76217C2.52077 8.53087 2.63467 8.31849 2.80148 8.15158L8.50339 2.44655ZM9.49349 3.15335C9.41535 3.0753 9.28875 3.07536 9.21069 3.15347L3.50878 8.8585C3.48098 8.88631 3.462 8.92171 3.45421 8.96026L3.08924 10.7662L4.89808 10.4017C4.93671 10.3939 4.97218 10.3749 5.00004 10.347L10.7014 4.64261C10.7794 4.56447 10.7794 4.4378 10.7012 4.35972L9.49349 3.15335ZM7.54998 11.405C7.54998 11.1289 7.77384 10.905 8.04998 10.905H11.55C11.8261 10.905 12.05 11.1289 12.05 11.405C12.05 11.6812 11.8261 11.905 11.55 11.905H8.04998C7.77384 11.905 7.54998 11.6812 7.54998 11.405Z" fill=""/>
</svg>
