<svg width="20" height="20" viewBox="0 0 20 20" fill="" xmlns="http://www.w3.org/2000/svg">
<path fill-rule="evenodd" clip-rule="evenodd" d="M6.74992 2.5C6.74992 2.08579 7.0857 1.75 7.49992 1.75H12.4999C12.9141 1.75 13.2499 2.08579 13.2499 2.5C13.2499 2.91421 12.9141 3.25 12.4999 3.25H7.49992C7.0857 3.25 6.74992 2.91421 6.74992 2.5ZM2.58325 5.14706C2.58325 4.73285 2.91904 4.39706 3.33325 4.39706H16.6666C17.0808 4.39706 17.4166 4.73285 17.4166 5.14706C17.4166 5.56127 17.0808 5.89706 16.6666 5.89706H15.7091C15.7144 5.96265 15.7158 6.02895 15.7132 6.09564L15.3332 15.7513C15.325 17.0924 14.2856 18.25 12.9166 18.25H7.08325C5.71419 18.25 4.67484 17.0924 4.66663 15.7513L4.28667 6.09564C4.28404 6.02895 4.28546 5.96265 4.29074 5.89706H3.33325C2.91904 5.89706 2.58325 5.56127 2.58325 5.14706ZM5.8687 5.89706C5.85982 5.89706 5.84366 5.8995 5.82313 5.92216C5.80188 5.94562 5.78346 5.98465 5.78551 6.03665L6.16659 15.7205V15.7353C6.16659 16.3367 6.6168 16.75 7.08325 16.75H12.9166C13.383 16.75 13.8333 16.3367 13.8333 15.7353V15.7205L14.2143 6.03665C14.2164 5.98465 14.198 5.94562 14.1767 5.92216C14.1562 5.8995 14.14 5.89706 14.1311 5.89706H5.8687ZM8.33325 7.92647C8.74747 7.92647 9.08325 8.26226 9.08325 8.67647V13.9706C9.08325 14.3848 8.74747 14.7206 8.33325 14.7206C7.91904 14.7206 7.58325 14.3848 7.58325 13.9706V8.67647C7.58325 8.26226 7.91904 7.92647 8.33325 7.92647ZM11.6666 7.92647C12.0808 7.92647 12.4166 8.26226 12.4166 8.67647V13.9706C12.4166 14.3848 12.0808 14.7206 11.6666 14.7206C11.2524 14.7206 10.9166 14.3848 10.9166 13.9706V8.67647C10.9166 8.26226 11.2524 7.92647 11.6666 7.92647Z" fill=""/>
</svg>
