<svg width="14" height="14" viewBox="0 0 14 14" fill="" xmlns="http://www.w3.org/2000/svg">
<path d="M11.375 4.04167H7.25C7.08333 4.04167 6.91667 3.97917 6.8125 3.85417L6.14583 3.1875C6.02083 3.0625 5.875 3 5.70833 3H2.625C2.27083 3 2 3.27083 2 3.625V10.7083C2 11.0625 2.27083 11.3333 2.625 11.3333H11.375C11.7292 11.3333 12 11.0625 12 10.7083V4.66667C12 4.3125 11.7292 4.04167 11.375 4.04167ZM9.02083 7.85417L7.27083 9.72917C7.1875 9.8125 7.08333 9.85417 6.95833 9.85417C6.85417 9.85417 6.72917 9.8125 6.64583 9.72917L4.89583 7.85417C4.64583 7.58333 4.83333 7.16667 5.20833 7.16667H6.16667V5.91667C6.16667 5.6875 6.35417 5.5 6.58333 5.5H7.41667C7.64583 5.5 7.83333 5.6875 7.83333 5.91667V7.16667H8.70833C9.08333 7.16667 9.27083 7.60417 9.02083 7.85417Z" fill=""/>
</svg>
