<svg xmlns="http://www.w3.org/2000/svg" width="16" height="16" viewBox="0 0 16 16" fill="">
  <path d="M12.5 14C12.7761 14 13 14.2239 13 14.5C13 14.7761 12.7761 15 12.5 15H3.5C3.22386 15 3 14.7761 3 14.5C3 14.2239 3.22386 14 3.5 14H12.5ZM13.5 1C14.3284 1 15 1.67156 15 2.5V11.5C15 12.3284 14.3284 13 13.5 13H2.5C1.67156 13 1 12.3284 1 11.5V2.5C1 1.67156 1.67156 1 2.5 1H13.5ZM12.6495 5.69927C12.4873 5.4838 12.1832 5.4358 11.9626 5.59088L11.9559 5.59562L9.61223 7.30011C9.57297 7.32867 9.52624 7.34517 9.47775 7.34761C9.42926 7.35005 9.3811 7.33832 9.33917 7.31384L9.33417 7.31084L6.80736 5.75589C6.45569 5.53948 6.00763 5.56167 5.67923 5.81058L5.66933 5.8182L3.69303 7.35533L3.68655 7.36045C3.47642 7.52942 3.43823 7.83498 3.60034 8.05047L3.60533 8.05697L3.61045 8.06345C3.77942 8.27358 4.08498 8.31177 4.30047 8.14966L4.30697 8.14467L6.14639 6.714C6.18581 6.68334 6.2335 6.66519 6.28333 6.66188C6.33316 6.65858 6.38283 6.67027 6.42595 6.69545L6.43091 6.69842L8.9527 8.2503C9.29444 8.46059 9.72839 8.44608 10.0551 8.21445L10.065 8.20736L12.5441 6.40438L12.5507 6.39945C12.7662 6.23734 12.8142 5.93317 12.6591 5.71258L12.6544 5.70592L12.6495 5.69927Z" fill=""/>
</svg>