<svg width="14" height="14" viewBox="0 0 14 14" fill="none" xmlns="http://www.w3.org/2000/svg">
<g id="Frame">
<path id="Union" fill-rule="evenodd" clip-rule="evenodd" d="M5.93768 2C7.28787 2 8.37544 3.16264 8.37544 4.62526C8.37544 6.08788 7.28787 7.25033 5.93768 7.25033C4.58772 7.25033 3.50016 6.08786 3.50016 4.62526C3.50016 3.16264 4.58772 2 5.93768 2ZM2 11.1504V10.9629C2 9.1253 3.42505 7.62535 5.18765 7.62535H7.06283C7.40031 7.62535 7.70028 7.66274 8.00041 7.77537L7.62533 8.15037L5.86282 9.08777C5.67529 9.2004 5.60019 9.38793 5.71261 9.57542L6.57529 11.338L6.72529 12.1256H5.1876C3.3875 12.1256 2 12.1256 2 11.1504ZM11.6409 9.83783L10.8533 10.663C10.7409 10.7381 10.7033 10.8505 10.7409 10.9629L10.9284 12.1256C10.9657 12.4255 10.7033 12.6506 10.4407 12.5006L9.46577 11.9754C9.39069 11.9381 9.27826 11.9381 9.16562 11.9754L8.19071 12.5006C7.92807 12.613 7.66568 12.4255 7.70324 12.1256L7.89075 10.9629C7.89075 10.8505 7.85324 10.738 7.77813 10.663L6.99051 9.83783C6.76566 9.61297 6.87811 9.27547 7.17821 9.23792L8.26559 9.08775C8.37819 9.08775 8.49064 9.0129 8.52822 8.90048L9.01568 7.85045C9.0532 7.73778 9.20318 7.66272 9.31581 7.66272C9.42824 7.66272 9.57821 7.73782 9.61573 7.85045L10.1032 8.90048C10.1783 9.01289 10.2532 9.08775 10.3658 9.08775L11.4534 9.23792C11.7158 9.27547 11.8284 9.65054 11.6409 9.83783Z" fill="#FE9E17"/>
</g>
</svg>
