<svg xmlns="http://www.w3.org/2000/svg" width="14" height="14" viewBox="0 0 14 14" fill="none">
  <path fill-rule="evenodd" clip-rule="evenodd" d="M0.816735 2.79997C0.816742 1.70461 1.70471 0.81665 2.80007 0.81665H9.10022C10.1956 0.81665 11.0836 1.70462 11.0836 2.79998V5.59998C11.0836 5.92215 10.8224 6.18332 10.5002 6.18332C10.1781 6.18332 9.91689 5.92215 9.91689 5.59998V2.79998C9.91689 2.34895 9.55126 1.98332 9.10022 1.98332H2.80007C2.34904 1.98332 1.9834 2.34895 1.9834 2.79998L1.98335 11.1999C1.98334 11.651 2.34898 12.0166 2.80001 12.0166H6.30001C6.62218 12.0166 6.88335 12.2778 6.88335 12.6C6.88335 12.9221 6.62218 13.1833 6.30001 13.1833H2.80001C1.70464 13.1833 0.816674 12.2953 0.816681 11.1999L0.816735 2.79997ZM3.2669 4.19998C3.2669 3.87782 3.52807 3.61665 3.85023 3.61665H8.05023C8.3724 3.61665 8.63356 3.87782 8.63356 4.19998C8.63356 4.52215 8.3724 4.78332 8.05023 4.78332H3.85023C3.52807 4.78332 3.2669 4.52215 3.2669 4.19998ZM3.2669 6.29998C3.2669 5.97782 3.52807 5.71665 3.85023 5.71665H8.05023C8.3724 5.71665 8.63356 5.97782 8.63356 6.29998C8.63356 6.62215 8.3724 6.88332 8.05023 6.88332H3.85023C3.52807 6.88332 3.2669 6.62215 3.2669 6.29998ZM3.2669 8.39998C3.2669 8.07782 3.52807 7.81665 3.85023 7.81665H5.95023C6.2724 7.81665 6.53357 8.07782 6.53357 8.39998C6.53357 8.72215 6.2724 8.98332 5.95023 8.98332H3.85023C3.52807 8.98332 3.2669 8.72215 3.2669 8.39998ZM8.33762 10.1399C8.40441 10.263 8.50828 10.4262 8.65613 10.5891C8.95079 10.9138 9.41888 11.2397 10.1594 11.2516C10.8876 11.2632 11.3475 10.944 11.6404 10.6154C11.7906 10.447 11.8958 10.276 11.9629 10.1475C11.9635 10.1464 11.964 10.1453 11.9646 10.1443C11.9636 10.1423 11.9626 10.1404 11.9616 10.1384C11.8959 10.0069 11.7922 9.83177 11.6428 9.65844C11.3514 9.32034 10.89 8.98856 10.15 8.98856C9.41 8.98856 8.9486 9.32034 8.6572 9.65844C8.50781 9.83177 8.40417 10.0069 8.33838 10.1384C8.33813 10.1389 8.33788 10.1394 8.33762 10.1399ZM12.6 10.15C13.1557 9.97243 13.1556 9.97215 13.1555 9.97187L13.1553 9.97128L13.1549 9.96996L13.1539 9.96684L13.1511 9.95867C13.149 9.95238 13.1463 9.94442 13.1429 9.93489C13.1361 9.91586 13.1267 9.89051 13.1145 9.85976C13.0901 9.79836 13.0543 9.71477 13.005 9.61635C12.9071 9.4207 12.7531 9.15963 12.5266 8.89677C12.0661 8.36249 11.3025 7.82189 10.15 7.82189C8.99756 7.82189 8.23396 8.36249 7.77347 8.89677C7.54692 9.15963 7.39291 9.4207 7.29502 9.61635C7.24578 9.71477 7.20988 9.79836 7.1855 9.85976C7.17329 9.89051 7.16391 9.91586 7.15714 9.9349C7.15375 9.94442 7.15101 9.95238 7.14889 9.95867L7.14617 9.96684L7.14515 9.96996L7.14473 9.97128L7.14454 9.97187C7.14445 9.97215 7.14436 9.97243 7.70001 10.15L7.14436 9.97243C7.10573 10.0933 7.10758 10.2235 7.14962 10.3432L7.70001 10.15C7.14962 10.3432 7.14972 10.3435 7.14982 10.3438L7.15003 10.3444L7.1505 10.3457L7.1516 10.3488L7.15452 10.3568C7.15678 10.3629 7.15969 10.3706 7.16326 10.3798C7.17041 10.3982 7.18025 10.4226 7.19298 10.4521C7.21841 10.5111 7.25561 10.5911 7.30625 10.6853C7.40699 10.8726 7.56405 11.1218 7.79222 11.3732C8.25532 11.8835 9.01223 12.4 10.1407 12.4181C11.2813 12.4364 12.0464 11.9132 12.5113 11.3918C12.74 11.1353 12.8969 10.8794 12.9971 10.6874C13.0476 10.5908 13.0845 10.5086 13.1097 10.4482C13.1224 10.418 13.1321 10.393 13.1391 10.3743C13.1427 10.3649 13.1455 10.357 13.1477 10.3508L13.1506 10.3427L13.1517 10.3396L13.1521 10.3383L13.1523 10.3377C13.1524 10.3375 13.1525 10.3372 12.6 10.15ZM12.6 10.15L13.1525 10.3372C13.1925 10.2191 13.1936 10.0912 13.1557 9.97243L12.6 10.15ZM10.15 9.50004C10.4722 9.50004 10.7333 9.76121 10.7333 10.0834V10.1202C10.7333 10.4424 10.4722 10.7036 10.15 10.7036C9.82785 10.7036 9.56668 10.4424 9.56668 10.1202V10.0834C9.56668 9.76121 9.82785 9.50004 10.15 9.50004Z" fill="#1776FF"/>
</svg>