<svg width="16" height="16" viewBox="0 0 16 16" fill="" xmlns="http://www.w3.org/2000/svg">
<g id="&#233;&#152;&#133;&#232;&#175;&#187;">
<path id="Subtract" fill-rule="evenodd" clip-rule="evenodd" d="M8.8275 3.58195V12.7121C8.8275 12.9479 8.64414 13.1392 8.41182 13.1517C8.53026 13.1563 8.6487 13.1335 8.75803 13.0811L9.96065 12.3864H13.0595C13.4171 12.3522 13.6995 12.0607 13.72 11.6985V3.73228C13.72 3.33596 13.4057 3.01367 13.0128 3H9.85816C9.76363 3 9.6748 3.03075 9.60306 3.082L8.8275 3.58195ZM7.8925 3.58195V12.7121C7.8925 12.9479 8.077 13.1392 8.30932 13.1517C8.19088 13.1563 8.07244 13.1335 7.96311 13.0811L6.76048 12.3864H3.66053C3.30293 12.3522 3.0205 12.0607 3 11.6985V3.73228C3 3.33596 3.31432 3.01367 3.70723 3H6.86184C6.95637 3 7.0452 3.03075 7.11694 3.082L7.8925 3.58195ZM6.50538 5.23101C6.7639 5.23101 6.97231 5.44056 6.97231 5.69794C6.97231 5.95532 6.76276 6.16373 6.50538 6.16486H5.50205C5.24354 6.16486 5.03513 5.95532 5.03513 5.69794C5.03513 5.43942 5.24467 5.23101 5.50205 5.23101H6.50538ZM6.50538 7.3151C6.7639 7.3151 6.97231 7.52465 6.97231 7.78203C6.97231 8.03941 6.76276 8.24782 6.50538 8.24896H5.27428C5.01576 8.24896 4.80736 8.03941 4.80736 7.78203C4.80736 7.52351 5.0169 7.3151 5.27428 7.3151H6.50538ZM6.50538 9.3992C6.7639 9.3992 6.97231 9.60875 6.97231 9.86613C6.97231 10.1235 6.76276 10.3331 6.50538 10.3331H5.61594C5.35742 10.3331 5.14901 10.1235 5.14901 9.86613C5.14901 9.60761 5.35856 9.3992 5.61594 9.3992H6.50538Z" fill=""/>
</g>
</svg>
