<svg xmlns="http://www.w3.org/2000/svg" width="16" height="16" viewBox="0 0 16 16" fill="none">
  <path d="M7.99219 0.999023C8.50945 0.999023 8.92878 1.41835 8.92878 1.93561C8.92878 2.26922 8.75436 2.56209 8.49172 2.72801L8.49171 3.9961H12.9873C13.2632 3.9961 13.4868 4.21974 13.4868 4.49561V13.4868C13.4868 13.7627 13.2632 13.9863 12.9873 13.9863H2.99707C2.7212 13.9863 2.49756 13.7627 2.49756 13.4868V4.49561C2.49756 4.21974 2.7212 3.9961 2.99707 3.9961H7.49268V2.72801C7.23411 2.56468 7.06104 2.27829 7.05573 1.95111L7.05561 1.93561C7.05561 1.41835 7.47493 0.999023 7.99219 0.999023ZM12.3629 5.12H3.62146V12.8624H12.3629V5.12ZM9.86537 10.5054C9.88176 10.5054 9.898 10.5086 9.91315 10.5149C9.9283 10.5211 9.94207 10.5303 9.95367 10.5419C9.96526 10.5535 9.97446 10.5673 9.98074 10.5825C9.98701 10.5976 9.99024 10.6138 9.99024 10.6302V11.3795C9.99024 11.3959 9.98701 11.4121 9.98074 11.4273C9.97446 11.4425 9.96526 11.4562 9.95367 11.4678C9.94207 11.4794 9.9283 11.4886 9.91315 11.4949C9.898 11.5012 9.88176 11.5044 9.86537 11.5044H6.11902C6.10262 11.5044 6.08639 11.5012 6.07123 11.4949C6.05608 11.4886 6.04232 11.4794 6.03072 11.4678C6.01912 11.4562 6.00993 11.4425 6.00365 11.4273C5.99738 11.4121 5.99415 11.3959 5.99415 11.3795V10.6302C5.99415 10.5971 6.0073 10.5654 6.03072 10.5419C6.05414 10.5185 6.0859 10.5054 6.11902 10.5054H9.86537ZM1.87317 6.2439C1.90629 6.2439 1.93805 6.25706 1.96147 6.28048C1.98489 6.3039 1.99805 6.33566 1.99805 6.36878V11.1141C1.99805 11.1473 1.98489 11.179 1.96147 11.2024C1.93805 11.2259 1.90629 11.239 1.87317 11.239H1.1239C1.09078 11.239 1.05902 11.2259 1.0356 11.2024C1.01218 11.179 0.999023 11.1473 0.999023 11.1141V6.36878C0.999023 6.33566 1.01218 6.3039 1.0356 6.28048C1.05902 6.25706 1.09078 6.2439 1.1239 6.2439H1.87317ZM14.8605 6.2439C14.8769 6.2439 14.8931 6.24713 14.9083 6.25341C14.9234 6.25968 14.9372 6.26888 14.9488 6.28048C14.9604 6.29207 14.9696 6.30584 14.9759 6.32099C14.9821 6.33614 14.9854 6.35238 14.9854 6.36878V11.1141C14.9854 11.1305 14.9821 11.1468 14.9759 11.1619C14.9696 11.1771 14.9604 11.1909 14.9488 11.2024C14.9372 11.214 14.9234 11.2232 14.9083 11.2295C14.8931 11.2358 14.8769 11.239 14.8605 11.239H14.1112C14.0781 11.239 14.0463 11.2259 14.0229 11.2024C13.9995 11.179 13.9863 11.1473 13.9863 11.1141V6.36878C13.9863 6.33566 13.9995 6.3039 14.0229 6.28048C14.0463 6.25706 14.0781 6.2439 14.1112 6.2439H14.8605ZM5.36976 7.24293C5.85253 7.24293 6.2439 7.63429 6.2439 8.11707C6.2439 8.59985 5.85253 8.99122 5.36976 8.99122C4.88698 8.99122 4.49561 8.59985 4.49561 8.11707C4.49561 7.63429 4.88698 7.24293 5.36976 7.24293ZM10.6146 7.24293C11.0974 7.24293 11.4888 7.63429 11.4888 8.11707C11.4888 8.59985 11.0974 8.99122 10.6146 8.99122C10.1319 8.99122 9.74049 8.59985 9.74049 8.11707C9.74049 7.63429 10.1319 7.24293 10.6146 7.24293Z" fill="#1776FF"/>
</svg>