<svg xmlns="http://www.w3.org/2000/svg" width="200" height="201" viewBox="0 0 200 201" fill="none">
  <g clip-path="url(#clip0_2653_5580)">
    <path fill-rule="evenodd" clip-rule="evenodd" d="M193.75 179.132L193.697 180.743L193.547 182.345L193.295 183.937L192.943 185.526L192.49 187.114L191.932 188.702L191.297 190.229L190.564 191.751L189.734 193.269L188.803 194.786L187.764 196.302L186.613 197.817L185.188 199.519L183.621 201.208L181.906 202.89L180.033 204.56L177.998 206.222L175.957 207.753L173.771 209.263L171.438 210.751L168.945 212.218L166.291 213.659L163.641 214.985L160.883 216.263L158.016 217.487L155.033 218.663L152.043 219.745L148.963 220.77L145.791 221.739L142.521 222.649L139.254 223.474L135.914 224.235L132.502 224.933L129.012 225.563L125.527 226.116L121.99 226.599L118.4 227.011L114.754 227.353L111.115 227.616L107.443 227.806L103.738 227.921L100 227.96L96.2617 227.921L92.5566 227.806L88.8848 227.616L85.2461 227.353L81.5996 227.011L78.0098 226.599L74.4727 226.116L70.9883 225.563L67.498 224.933L64.0859 224.235L60.7461 223.474L57.4785 222.649L54.209 221.739L51.0371 220.77L47.957 219.745L44.9668 218.663L41.9844 217.487L39.1172 216.263L36.3594 214.985L33.709 213.659L31.0547 212.218L28.5625 210.751L26.2285 209.263L24.043 207.753L22.002 206.222L19.9668 204.56L18.0938 202.89L16.3789 201.208L14.8125 199.519L13.3867 197.817L12.2363 196.302L11.1973 194.786L10.2656 193.269L9.43555 191.751L8.70313 190.229L8.06836 188.702L7.50977 187.114L7.05664 185.526L6.70508 183.937L6.45313 182.345L6.30273 180.743L6.25 179.132L6.30273 177.521L6.45313 175.919L6.70508 174.327L7.05664 172.737L7.50977 171.149L8.06836 169.562L8.70313 168.034L9.43555 166.513L10.2656 164.995L11.1973 163.478L12.2363 161.962L13.3867 160.446L14.8125 158.745L16.3789 157.056L18.0938 155.374L19.9668 153.704L22.002 152.042L24.043 150.511L26.2285 149.001L28.5625 147.513L31.0547 146.046L33.709 144.604L36.3594 143.278L39.1172 142.001L41.9844 140.776L44.9668 139.601L47.957 138.519L51.0371 137.493L54.209 136.524L57.4785 135.614L60.7461 134.79L64.0859 134.028L67.498 133.331L70.9883 132.7L74.4727 132.149L78.0098 131.665L81.5996 131.253L85.2461 130.911L88.8848 130.647L92.5566 130.458L96.2617 130.343L100 130.304L103.738 130.343L107.443 130.458L111.115 130.647L114.754 130.911L118.4 131.253L121.99 131.665L125.527 132.149L129.012 132.7L132.502 133.331L135.914 134.028L139.254 134.79L142.521 135.614L145.791 136.524L148.963 137.493L152.043 138.519L155.033 139.601L158.016 140.776L160.883 142.001L163.641 143.278L166.291 144.604L168.945 146.046L171.438 147.513L173.771 149.001L175.957 150.511L177.998 152.042L180.033 153.704L181.906 155.374L183.621 157.056L185.188 158.745L186.613 160.446L187.764 161.962L188.803 163.478L189.734 164.995L190.564 166.513L191.297 168.034L191.932 169.562L192.49 171.149L192.943 172.737L193.295 174.327L193.547 175.919L193.697 177.521L193.75 179.132Z" fill="url(#paint0_linear_2653_5580)"/>
    <path fill-rule="evenodd" clip-rule="evenodd" d="M165.234 52.2197L165.178 52.917L165.02 53.5713L164.76 54.1963L164.41 54.7783L163.979 55.3135L163.459 55.8037L162.881 56.2275L162.236 56.5869L161.52 56.8857L160.773 57.0986L159.977 57.2314L159.127 57.2803H140.234L139.385 57.1826L138.58 57.0127L137.82 56.7705L137.088 56.4541L136.428 56.0811L135.83 55.6494L135.293 55.1514L134.846 54.6104L134.482 54.0225L134.211 53.3897L134.045 52.7178L133.984 51.9951L134.031 51.3623L134.166 50.7607L134.385 50.1787L134.678 49.6318L135.043 49.1182L135.479 48.6377L135.967 48.21L136.51 47.8291L137.109 47.4971L136.914 46.9912L136.85 46.7373L136.826 46.4854L136.895 45.8564L137.082 45.2646L137.393 44.7021L137.803 44.2021L138.305 43.7666L138.908 43.3955L139.564 43.1221L140.285 42.9521L141.086 42.8857L141.814 42.9482L142.471 43.1123L143.088 43.3623L143.643 43.6729L144.262 42.8447L144.975 42.083L145.789 41.3877L146.678 40.7842L147.643 40.2705L148.693 39.8506L149.506 39.6104L150.354 39.4365L151.238 39.3271L152.166 39.2881L153.131 39.3311L154.049 39.4502L154.926 39.6396L155.766 39.8994L156.588 40.2354L157.348 40.624L158.051 41.0674L158.701 41.5654L159.305 42.126L159.832 42.7217L160.289 43.3564L160.676 44.0322L160.986 44.7451L161.211 45.4814L161.348 46.2471L161.398 47.0479V47.4971L162.141 47.8018L162.807 48.1689L163.404 48.5967L163.941 49.0947L164.385 49.6338L164.744 50.2217L165.014 50.8525L165.176 51.5147L165.234 52.2197Z" fill="url(#paint1_linear_2653_5580)"/>
    <path fill-rule="evenodd" clip-rule="evenodd" d="M38.7148 29.5225L39.916 29.5869L41.0645 29.7705L42.166 30.0713L43.2305 30.4834L44.2305 30.9912L45.1719 31.6006L46.0469 32.2979L46.8418 33.0752L47.5586 33.9346L48.1875 34.8604L48.7168 35.8467L49.1523 36.9014H56.3477L56.9707 36.96L57.543 37.1143L58.0723 37.3682L58.5527 37.708L58.959 38.1143L59.2988 38.5947L59.5508 39.124L59.707 39.6943L59.7656 40.3193V48.6748L59.707 49.2979L59.5508 49.8701L59.2988 50.3994L58.959 50.8779L58.5527 51.2861L58.0723 51.626L57.543 51.8779L56.9707 52.0342L56.3477 52.0928H21.5176L20.8926 52.0342L20.3223 51.8779L19.791 51.626L19.3125 51.2861L18.9063 50.8779L18.5664 50.3994L18.3125 49.8701L18.1562 49.2979L18.0996 48.6748V46.251L17.7168 45.5674L17.3965 44.8506L17.1387 44.0947L16.9512 43.3174L16.8379 42.5127L16.7969 41.6748L16.8457 40.7744L16.9766 39.9131L17.1875 39.0889L17.4785 38.2959L17.8496 37.5322L18.2812 36.8193L18.7773 36.1553L19.3398 35.5381L19.957 34.9756L20.6211 34.4795L21.334 34.0459L22.0977 33.6768L22.8906 33.3857L23.7148 33.1729L24.5762 33.042L25.4766 32.9951L26.25 33.0283L26.9961 33.126L27.7188 33.2861L28.4238 33.5068L29.0977 33.7822L29.7402 34.1123L30.459 33.2197L31.2559 32.4131L32.1406 31.6865L33.0938 31.0537L34.1094 30.5244L35.1934 30.0947L36.0312 29.8486L36.8965 29.6709L37.7891 29.5615L38.7148 29.5225Z" fill="url(#paint2_linear_2653_5580)"/>
    <path fill-rule="evenodd" clip-rule="evenodd" d="M47.1875 156.085L47.1523 156.214L47.0488 156.343L46.8457 156.479L46.4805 156.63L45.9492 156.759L45.3691 156.837L44.6875 156.866L44.0059 156.837L43.4258 156.759L42.8945 156.63L42.5293 156.479L42.3262 156.343L42.2227 156.214L42.1875 156.085L42.2227 155.956L42.3262 155.827L42.5293 155.69L42.8945 155.54L43.4258 155.411L44.0059 155.333L44.6875 155.304L45.3691 155.333L45.9492 155.411L46.4805 155.54L46.8457 155.69L47.0488 155.827L47.1523 155.956L47.1875 156.085Z" fill="#CCDCF6"/>
    <path d="M42.0332 155.778L42.209 153.784L42.4668 152.097L42.793 150.681L43.1738 149.499L43.6035 148.526L44.0723 147.729L44.5762 147.087L45.1152 146.579L45.6914 146.19L46.3125 145.907L47.043 145.821L47.3828 145.813L47.6328 145.853L47.7676 145.917L47.8516 146.013L47.8906 146.151L47.8516 146.405L47.6348 146.858L47.416 147.147L47.1484 147.399L46.4844 147.933L46.1133 148.269L45.6758 148.747L45.252 149.315L44.7598 150.134L44.2969 151.075L43.7734 152.38L43.2871 153.841L42.75 155.776L42.5937 155.978L42.4414 156.036L42.2656 155.987L42.0332 155.778Z" fill="url(#paint3_linear_2653_5580)"/>
    <path d="M41.9863 155.708L41.4023 151.354L40.9492 148.474L40.6035 146.692L40.3457 145.69L39.9141 144.29L39.707 143.521L39.5469 142.786L39.459 142.075L39.4785 141.53L39.5664 141.212L39.7207 141.005L39.9414 140.878L40.2051 140.849L40.5957 140.931L41.1758 141.181L41.5664 141.44L41.9297 141.78L42.2676 142.212L42.582 142.745L42.9121 143.491L43.1973 144.354L43.4297 145.351L43.5918 146.358L43.7031 147.427L43.7598 148.556L43.7441 150.249L43.6133 151.923L43.4629 153.032L43.2676 154.058L43.0332 155.009L42.7637 155.667L42.5605 155.983L42.4082 156.101H42.2793L42.1445 155.995L41.9863 155.708Z" fill="url(#paint4_linear_2653_5580)"/>
    <path d="M153.121 148.833L152.891 148.022L152.578 147.286L152.184 146.62L151.705 146.013L151.137 145.464L150.473 144.968L149.703 144.524L148.813 144.138L147.508 143.667L146.576 143.226L146.029 142.87L145.729 142.567L145.594 142.304L145.588 142.108L145.676 141.913L145.895 141.704L146.305 141.472L147.344 141.353L147.957 141.335L148.658 141.417L149.117 141.54L149.607 141.759L150.135 142.083L150.609 142.478L151.117 143.03L151.66 143.778L152.125 144.571L152.611 145.605L153.121 146.923L153.229 147.571V148.204L153.121 148.833Z" fill="url(#paint5_linear_2653_5580)"/>
    <path d="M153.242 149.188L152.527 146.696L151.816 144.524L151.107 142.642L150.406 141.022L149.713 139.638L149.031 138.466L148.361 137.481L148.053 137.04L147.809 136.589L147.623 136.126L147.445 135.411L147.395 134.741L147.428 134.3L147.516 133.911L147.648 133.569L147.842 133.261L148.078 133.024L148.361 132.853L148.76 132.817L149.24 132.835L149.561 132.896L149.91 133.03L150.299 133.253L150.645 133.536L151.029 133.96L151.455 134.567L151.816 135.212L152.207 136.085L152.631 137.231L152.986 138.397L153.359 139.872L153.748 141.702L153.898 142.687L154.064 144.409L154.1 145.413L154.072 146.464L153.961 147.499L153.748 148.435L153.613 148.747L153.445 148.995L153.242 149.188Z" fill="url(#paint6_linear_2653_5580)"/>
    <path d="M153.572 147.981L153.785 147.021L153.93 145.954L153.998 144.772L153.982 143.46L153.873 142.007L153.656 140.397L153.326 138.62L152.529 136.319L152.15 135.157L151.854 134.071L151.703 133.345L151.631 132.702L151.623 132.13L151.676 131.704L151.787 131.339L151.951 131.022L152.172 130.751L152.439 130.538L152.791 130.37L153.246 130.251L153.828 130.192L154.295 130.3L154.783 130.532L155.08 130.749L155.379 131.054L155.678 131.462L155.92 131.905L156.152 132.483L156.367 133.226L156.52 133.979L156.637 134.917L156.713 136.069L156.729 137.22L156.686 138.599L156.572 140.239L156.322 141.829L156.041 143.163L155.709 144.433L155.355 145.603L154.584 147.981L154.301 148.081L153.971 148.087L153.572 147.981Z" fill="url(#paint7_linear_2653_5580)"/>
    <path d="M154.328 148.909L154.299 146.663L154.381 144.634L154.564 142.808L154.842 141.165L155.199 139.69L155.633 138.368L156.139 137.185L156.709 136.128L157.344 135.187L158.041 134.351L158.311 134.069L158.693 133.8L159.131 133.589L159.609 133.452L160.096 133.415L160.551 133.499L160.826 133.628L161.068 133.835L161.285 134.128L161.436 134.464L161.537 134.919L161.578 135.528L161.254 136.806L160.984 137.612L160.557 138.644L160.016 139.726L159.234 141.044L158.646 141.923L157.92 142.905L157.039 144.005L156.613 144.616L156.227 145.271L155.885 145.94L155.604 146.573L155.365 147.19L155.201 147.687L155.086 148.134L155.057 148.376L155.01 148.604L154.887 148.763L154.674 148.868L154.328 148.909Z" fill="url(#paint8_linear_2653_5580)"/>
    <path d="M140.258 149.802L142.57 149.321L143.865 148.962L144.496 148.7L144.738 148.517L144.922 148.341L145.344 148.038L145.848 147.743L146.51 147.427L147.227 147.161L148.014 146.966L148.553 146.894L149.092 146.884L149.631 146.938L150.152 147.071L150.652 147.3L151.139 147.632L151.365 147.407L151.693 147.2L152.068 147.05L152.492 146.962L152.932 146.96L153.371 147.06L153.646 147.185L153.908 147.372L154.16 147.632L154.311 147.196L154.533 146.79L154.83 146.411L155.365 145.913L155.98 145.499L156.639 145.173L157.266 144.96L157.879 144.847L158.34 144.858L158.766 144.837L159.363 144.854L159.994 144.935L160.699 145.114L161.156 145.296L161.609 145.546L162.059 145.872L162.453 146.257L162.818 146.747L163.152 147.358L163.398 148.009L163.582 148.813L163.695 149.802L160.025 149.819L140.258 149.802Z" fill="url(#paint9_linear_2653_5580)"/>
    <path d="M59.7441 144.505L119.248 142.491L160.551 164.483L111.328 194.78L59.7441 144.505Z" fill="url(#paint10_linear_2653_5580)" fill-opacity="0.3"/>
    <path d="M115.227 143.585H64.4609L63.4922 143.519L62.582 143.333L61.7207 143.034L60.9023 142.624L60.1602 142.124L59.4824 141.532L58.8867 140.856L58.3848 140.116L57.9746 139.304L57.6738 138.442L57.4883 137.536L57.4219 136.573V67.3936L57.4883 66.4307L57.6738 65.5225L57.9746 64.6631L58.3848 63.8506L58.8867 63.1104L59.4824 62.4346L60.1602 61.8428L60.9023 61.3428L61.7207 60.9326L62.582 60.6338L63.4922 60.4482L64.4609 60.3818H115.227L116.195 60.4482L117.105 60.6338L117.967 60.9326L118.785 61.3428L119.527 61.8428L120.205 62.4346L120.801 63.1104L121.303 63.8506L121.713 64.6631L122.014 65.5225L122.199 66.4307L122.266 67.3936V136.573L122.199 137.536L122.014 138.444L121.713 139.304L121.303 140.116L120.801 140.856L120.205 141.532L119.527 142.124L118.785 142.624L117.967 143.034L117.105 143.333L116.195 143.519L115.227 143.585Z" fill="url(#paint11_linear_2653_5580)"/>
    <path d="M112.127 145.538H63.6543L62.6895 145.472L61.7832 145.286L60.9238 144.985L60.1094 144.573L59.3691 144.073L58.6953 143.476L58.1016 142.8L57.6016 142.056L57.1914 141.239L56.8926 140.376L56.707 139.466L56.6406 138.499V70.1553L56.707 69.1885L56.8926 68.2783L57.1914 67.415L57.6016 66.5986L58.1016 65.8545L58.6953 65.1787L59.3691 64.5811L60.1094 64.0811L60.9238 63.6689L61.7832 63.3682L62.6895 63.1826L63.6543 63.1162H112.127L113.092 63.1826L113.998 63.3682L114.857 63.6689L115.672 64.0811L116.412 64.5811L117.086 65.1787L117.68 65.8545L118.18 66.5986L118.59 67.415L118.889 68.2783L119.074 69.1885L119.141 70.1553V138.501L119.074 139.468L118.889 140.378L118.59 141.239L118.18 142.056L117.68 142.8L117.086 143.478L116.412 144.073L115.672 144.573L114.857 144.985L113.998 145.286L113.092 145.472L112.127 145.538Z" fill="url(#paint12_linear_2653_5580)"/>
    <path d="M111.508 136.944H65.0547L64.7852 136.907L64.5547 136.81L64.3535 136.655L64.1973 136.454L64.0996 136.224L64.0625 135.954V69.5752L64.0996 69.3057L64.1973 69.0752L64.3535 68.874L64.5547 68.7197L64.7852 68.6221L65.0547 68.585H111.508L111.777 68.6221L112.008 68.7197L112.209 68.874L112.365 69.0752L112.463 69.3057L112.5 69.5752V135.954L112.461 136.224L112.363 136.454L112.209 136.655L112.008 136.81L111.777 136.907L111.508 136.944Z" fill="#FAFAFA"/>
    <path d="M85.834 136.554L83.3535 136.356L81.6152 136.181L79.3828 135.915L77.0059 135.581L74.2559 135.132L71.4102 134.589L68.3066 133.901L66.2207 133.384L64.0762 132.794L61.8691 132.128L59.6816 131.403L57.4844 130.597L55.2773 129.708L53.1035 128.741L50.9668 127.685L48.8672 126.54L47.3262 125.618L45.832 124.642L44.3809 123.61L42.9727 122.522L42.7637 122.296L42.6367 122.054L42.582 121.79L42.5937 121.515L42.666 121.265L42.7988 121.028L42.9863 120.837L43.2207 120.706L43.5176 120.632L44.8945 120.452L46.1895 120.188L47.4082 119.843L48.5566 119.419L49.6387 118.917L50.6934 118.327L51.6934 117.673L52.6426 116.952L53.541 116.161L54.3906 115.302L55.373 114.161L56.2949 112.937L57.1523 111.624L57.9473 110.218L58.6602 108.78L59.3203 107.284L59.9277 105.724L60.4785 104.099L61.1211 101.909L61.6816 99.6689L62.1582 97.3721L62.5566 95.0615L62.8906 92.7627L63.1562 90.4736L63.4551 87.0615L63.6426 83.833L63.752 80.6885L63.793 77.8838L63.7773 73.0557L63.7656 69.7803L63.8066 69.4502L63.9102 69.1709L64.0703 68.9326L64.2852 68.7471L64.5449 68.6318L64.8633 68.585H111.045L111.334 68.626L111.582 68.7295L111.797 68.8975L111.965 69.1143L112.068 69.3643L112.109 69.6553L109.691 113.612L109.508 114.083L109.385 114.339L109.266 114.519L91.4824 134.407L91.373 134.481L91.0117 134.657L89.9941 135.083L88.7012 135.585L87.3984 136.063L86.3516 136.421L85.834 136.554Z" fill="white"/>
    <path d="M92.4082 121.302L93.2871 121.341L94.5801 121.329L95.4863 121.276L96.5234 121.157L97.707 120.966L98.8711 120.708L100.127 120.339L101.484 119.849L102.799 119.269L104.17 118.528L105.605 117.614L106.621 116.87L107.65 116.007L108.699 115.021L109.766 113.897L109.49 115.04L109.092 116.296L108.557 117.675L107.949 119.019L107.225 120.419L106.379 121.884L105.465 123.304L104.449 124.728L103.328 126.155L102.139 127.526L100.865 128.849L99.5039 130.124L98.0723 131.317L96.5742 132.417L95.0039 133.423L93.7832 134.104L92.5313 134.708L91.2461 135.237L89.9277 135.688L88.5859 136.052L87.2148 136.317L85.8125 136.485L84.375 136.554L85.3301 136.017L86.1816 135.466L86.9375 134.897L87.6055 134.315L88.4395 133.458L89.1406 132.593L89.7227 131.718L90.2266 130.792L90.6348 129.878L90.9531 128.97L91.207 128.04L91.3945 127.144L91.5195 126.278L91.625 124.993L91.6465 123.849L91.6133 122.763L91.5566 121.892L91.5859 121.71L91.6738 121.563L91.8281 121.442L92.1094 121.329L92.4082 121.302Z" fill="url(#paint13_linear_2653_5580)"/>
    <path d="M74.8047 78.7412H104.883L105.113 78.7881L105.297 78.9131L105.422 79.0967L105.469 79.3271V80.499L105.422 80.7295L105.297 80.9131L105.113 81.0381L104.883 81.085H74.8047L74.5742 81.0381L74.3906 80.9131L74.2656 80.7295L74.2188 80.499V79.3271L74.2656 79.0967L74.3906 78.9131L74.5742 78.7881L74.8047 78.7412Z" fill="url(#paint14_linear_2653_5580)"/>
    <path d="M74.0234 86.5537H104.102L104.332 86.6006L104.516 86.7256L104.641 86.9092L104.688 87.1396V88.3115L104.641 88.542L104.516 88.7256L104.332 88.8506L104.102 88.8975H74.0234L73.793 88.8506L73.6094 88.7256L73.4844 88.542L73.4375 88.3115V87.1396L73.4844 86.9092L73.6094 86.7256L73.793 86.6006L74.0234 86.5537Z" fill="url(#paint15_linear_2653_5580)"/>
    <path d="M73.2422 94.3662H87.6953L87.9258 94.4131L88.1094 94.5381L88.2344 94.7217L88.2812 94.9521V96.124L88.2344 96.3545L88.1094 96.5381L87.9258 96.6631L87.6953 96.71H73.2422L73.0117 96.6631L72.8281 96.5381L72.7031 96.3545L72.6562 96.124V94.9521L72.7031 94.7217L72.8281 94.5381L73.0117 94.4131L73.2422 94.3662Z" fill="url(#paint16_linear_2653_5580)"/>
    <path d="M91.2109 94.3662H92.3828L92.6133 94.4131L92.7969 94.5381L92.9219 94.7217L92.9688 94.9521V96.124L92.9219 96.3545L92.7969 96.5381L92.6133 96.6631L92.3828 96.71H91.2109L90.9805 96.6631L90.7969 96.5381L90.6719 96.3545L90.625 96.124V94.9521L90.6719 94.7217L90.7969 94.5381L90.9805 94.4131L91.2109 94.3662Z" fill="url(#paint17_linear_2653_5580)"/>
    <path d="M72.1211 101.655L102.18 102.704L102.408 102.759L102.588 102.89L102.707 103.079L102.746 103.31L102.705 104.481L102.65 104.71L102.518 104.89L102.33 105.009L102.098 105.046L72.0391 103.997L71.8105 103.942L71.6309 103.812L71.5117 103.622L71.4727 103.392L71.5137 102.22L71.5684 101.991L71.7012 101.812L71.8887 101.692L72.1211 101.655Z" fill="url(#paint18_linear_2653_5580)"/>
    <path d="M69.8457 108.944L99.8496 111.044L100.076 111.106L100.252 111.243L100.363 111.437L100.393 111.669L100.312 112.837L100.248 113.063L100.111 113.239L99.918 113.351L99.6856 113.382L69.6816 111.282L69.4551 111.22L69.2793 111.083L69.168 110.89L69.1387 110.657L69.2188 109.489L69.2813 109.263L69.4199 109.087L69.6133 108.976L69.8457 108.944Z" fill="url(#paint19_linear_2653_5580)"/>
    <path d="M67.207 116.646L81.5508 118.407L81.7734 118.481L81.9414 118.628L82.043 118.827L82.0625 119.06L81.9199 120.224L81.8438 120.446L81.6992 120.614L81.5 120.716L81.2656 120.733L66.9199 118.972L66.6992 118.897L66.5313 118.751L66.4297 118.554L66.4102 118.319L66.5527 117.157L66.627 116.935L66.7734 116.767L66.9727 116.665L67.207 116.646Z" fill="url(#paint20_linear_2653_5580)"/>
    <path fill-rule="evenodd" clip-rule="evenodd" d="M85.041 118.837L86.2051 118.98L86.4258 119.054L86.5937 119.2L86.6953 119.397L86.7148 119.632L86.5723 120.794L86.498 121.017L86.3516 121.185L86.1523 121.286L85.918 121.306L84.7559 121.163L84.5332 121.087L84.3652 120.942L84.2637 120.743L84.2461 120.509L84.3887 119.347L84.4629 119.124L84.6094 118.956L84.8066 118.854L85.041 118.837Z" fill="#D8D8D8"/>
    <path d="M78.9062 63.1162H99.2188V70.1475H78.9062V63.1162Z" fill="url(#paint21_linear_2653_5580)"/>
    <path d="M80.0781 60.3818H100.391L98.8281 63.1162H78.5156L80.0781 60.3818Z" fill="url(#paint22_linear_2653_5580)"/>
    <path d="M89.4531 54.1318L90.0957 54.1924L90.6836 54.3525L91.2266 54.6123L91.7207 54.9619L92.1387 55.3799L92.4883 55.874L92.748 56.417L92.9082 57.0049L92.9688 57.6475L92.9082 58.29L92.748 58.8779L92.4883 59.4209L92.1387 59.915L91.7207 60.333L91.2266 60.6826L90.6836 60.9424L90.0957 61.1025L89.4531 61.1631L88.8105 61.1025L88.2227 60.9424L87.6797 60.6826L87.1855 60.333L86.7676 59.915L86.418 59.4209L86.1582 58.8779L85.998 58.29L85.9375 57.6475L85.998 57.0049L86.1582 56.417L86.418 55.874L86.7676 55.3799L87.1855 54.9619L87.6797 54.6123L88.2227 54.3525L88.8105 54.1924L89.4531 54.1318ZM89.4531 55.6943L89.0957 55.7275L88.7695 55.8174L88.4668 55.9619L88.1934 56.1553L87.9609 56.3877L87.7676 56.6611L87.623 56.9639L87.5332 57.29L87.5 57.6475L87.5332 58.0049L87.623 58.3311L87.7676 58.6338L87.9609 58.9072L88.1934 59.1397L88.4668 59.333L88.7695 59.4775L89.0957 59.5674L89.4531 59.6006L89.8105 59.5674L90.1367 59.4775L90.4395 59.333L90.7129 59.1397L90.9453 58.9072L91.1387 58.6338L91.2832 58.3311L91.373 58.0049L91.4062 57.6475L91.373 57.29L91.2832 56.9639L91.1387 56.6611L90.9453 56.3877L90.7129 56.1553L90.4395 55.9619L90.1367 55.8174L89.8105 55.7275L89.4531 55.6943Z" fill="url(#paint23_linear_2653_5580)"/>
    <path d="M90.0469 109.765L89.002 110.884L88.0566 112.04L87.2051 113.237L86.4453 114.476L85.7676 115.767L85.1836 117.081L84.6894 118.419L84.2852 119.782L83.9688 121.173L83.7441 122.569L83.6094 123.974L83.5645 125.388L83.6094 126.802L83.7441 128.206L83.9688 129.603L84.2852 130.993L84.6894 132.356L85.1836 133.694L85.7676 135.007L86.4453 136.3L87.2051 137.538L88.0566 138.735L89.002 139.892L90.0469 141.011L91.2598 142.132L92.5156 143.14L93.8164 144.036L95.166 144.827L96.5742 145.522L98.0059 146.11L99.4648 146.593L100.951 146.97L102.463 147.245L103.979 147.415L105.5 147.481L107.029 147.442L108.553 147.298L110.057 147.052L111.547 146.698L113.025 146.241L114.465 145.683L115.865 145.019L117.232 144.247L118.566 143.366L129.5 154.28L130.035 154.726L130.607 155.052L131.223 155.269L131.867 155.38H132.506L133.15 155.269L133.766 155.052L134.338 154.726L134.875 154.28L135.318 153.747L135.645 153.177L135.863 152.563L135.973 151.921V151.282L135.865 150.64L135.648 150.026L135.322 149.456L134.879 148.921L134.875 148.915L123.9 137.96L124.752 136.634L125.496 135.276L126.135 133.886L126.67 132.458L127.107 130.993L127.441 129.519L127.672 128.03L127.801 126.524L127.826 125.015L127.75 123.513L127.572 122.017L127.289 120.524L126.906 119.058L126.422 117.618L125.834 116.206L125.139 114.817L124.352 113.485L123.459 112.202L122.459 110.962L121.348 109.765L120.227 108.722L119.068 107.778L117.869 106.927L116.627 106.169L115.334 105.493L114.02 104.909L112.68 104.415L111.312 104.013L109.92 103.698L108.521 103.474L107.115 103.339L105.697 103.294L104.279 103.339L102.873 103.474L101.475 103.698L100.082 104.013L98.7168 104.415L97.375 104.909L96.0605 105.493L94.7676 106.169L93.5254 106.927L92.3281 107.778L91.168 108.722L90.0469 109.765ZM115.883 115.044L116.688 115.919L117.398 116.827L118.023 117.772L118.562 118.755L119.025 119.782L119.4 120.823L119.693 121.884L119.9 122.966L120.025 124.063L120.066 125.155L120.025 126.249L119.898 127.345L119.689 128.427L119.396 129.489L119.018 130.53L118.555 131.558L118.014 132.542L117.389 133.487L116.676 134.397L115.871 135.272L114.996 136.077L114.086 136.79L113.141 137.415L112.156 137.956L111.129 138.419L110.088 138.798L109.025 139.089L107.943 139.3L106.848 139.427L105.754 139.468L104.662 139.427L103.564 139.302L102.482 139.093L101.422 138.802L100.381 138.427L99.3535 137.964L98.3711 137.425L97.4258 136.8L96.5176 136.089L95.6426 135.284L94.8379 134.409L94.127 133.501L93.5039 132.556L92.9629 131.573L92.5019 130.548L92.125 129.505L91.834 128.444L91.625 127.362L91.5 126.267L91.459 125.173L91.502 124.079L91.6289 122.983L91.8379 121.901L92.1309 120.841L92.5078 119.798L92.9707 118.771L93.5117 117.788L94.1367 116.843L94.8496 115.933L95.6543 115.056L96.5312 114.251L97.4414 113.538L98.3867 112.913L99.3691 112.372L100.396 111.909L101.439 111.532L102.5 111.239L103.582 111.03L104.678 110.903L105.771 110.86L106.865 110.901L107.961 111.026L109.043 111.235L110.104 111.526L111.146 111.903L112.172 112.364L113.156 112.905L114.1 113.528L115.008 114.239L115.883 115.044Z" fill="url(#paint24_linear_2653_5580)"/>
    <path d="M91.9238 109.063L90.8906 110.173L89.9531 111.321L89.1113 112.509L88.3594 113.737L87.6875 115.017L87.1074 116.319L86.6191 117.646L86.2207 118.999L85.9062 120.378L85.6855 121.763L85.5508 123.155L85.5059 124.558L85.5508 125.962L85.6855 127.354L85.9062 128.737L86.2207 130.116L86.6191 131.47L87.1074 132.796L87.6875 134.099L88.3594 135.38L89.1113 136.608L89.9531 137.794L90.8906 138.942L91.9238 140.052L93.1172 141.157L94.3516 142.151L95.6328 143.038L96.959 143.819L98.3437 144.507L99.752 145.091L101.186 145.569L102.648 145.946L104.135 146.224L105.625 146.397L107.121 146.468L108.627 146.437L110.127 146.304L111.609 146.067L113.076 145.729L114.533 145.288L115.953 144.747L117.336 144.104L118.684 143.356L120.002 142.501L131.787 154.282L132.32 154.726L132.891 155.052L133.504 155.269L134.146 155.378H134.783L135.426 155.269L136.039 155.052L136.609 154.726L137.143 154.282L137.586 153.749L137.912 153.179L138.129 152.565L138.238 151.923V151.286L138.129 150.644L137.912 150.03L137.586 149.46L137.143 148.927L125.359 137.144L126.217 135.825L126.965 134.476L127.607 133.093L128.148 131.673L128.59 130.216L128.928 128.749L129.164 127.267L129.297 125.767L129.328 124.261L129.258 122.765L129.084 121.274L128.807 119.788L128.43 118.325L127.951 116.892L127.367 115.483L126.68 114.099L125.896 112.772L125.012 111.491L124.018 110.257L122.912 109.063L121.803 108.03L120.654 107.093L119.469 106.251L118.24 105.499L116.959 104.827L115.656 104.247L114.33 103.759L112.977 103.36L111.598 103.048L110.215 102.825L108.822 102.69L107.418 102.646L106.016 102.69L104.623 102.825L103.238 103.048L101.859 103.36L100.506 103.759L99.1797 104.247L97.877 104.827L96.5977 105.499L95.3691 106.251L94.1816 107.093L93.0332 108.03L91.9238 109.063ZM117.615 114.61L118.418 115.485L119.131 116.396L119.754 117.339L120.293 118.321L120.756 119.349L121.133 120.392L121.424 121.452L121.633 122.534L121.758 123.63L121.799 124.724L121.756 125.815L121.629 126.913L121.42 127.995L121.127 129.056L120.75 130.099L120.285 131.126L119.746 132.108L119.121 133.054L118.408 133.964L117.602 134.841L116.727 135.646L115.816 136.358L114.871 136.983L113.889 137.522L112.861 137.987L111.818 138.364L110.758 138.657L109.676 138.866L108.578 138.993L107.486 139.036L106.393 138.995L105.297 138.87L104.215 138.661L103.154 138.37L102.111 137.993L101.084 137.53L100.102 136.991L99.1582 136.368L98.248 135.655L97.373 134.853L96.5703 133.978L95.8574 133.067L95.2344 132.124L94.6953 131.142L94.2324 130.114L93.8574 129.071L93.5644 128.011L93.3574 126.931L93.2324 125.833L93.1914 124.741L93.2324 123.647L93.3594 122.55L93.5684 121.468L93.8613 120.407L94.2383 119.364L94.7031 118.337L95.2422 117.354L95.8691 116.409L96.582 115.499L97.3867 114.624L98.2617 113.819L99.1719 113.106L100.117 112.479L101.1 111.94L102.127 111.476L103.17 111.099L104.23 110.806L105.312 110.597L106.41 110.47L107.504 110.429L108.596 110.47L109.691 110.595L110.773 110.802L111.834 111.095L112.877 111.47L113.904 111.933L114.887 112.472L115.83 113.095L116.74 113.808L117.615 114.61Z" fill="url(#paint25_linear_2653_5580)"/>
    <path d="M107.699 150.401L107.555 151.28L108.049 151.505L108.564 151.837L109.107 152.294L109.297 152.56L109.363 152.716L109.373 152.862L109.342 153.019L109.277 153.05L108.967 153.001L108.051 152.712L105.998 151.931L106.709 149.741L107.699 150.401Z" fill="url(#paint26_linear_2653_5580)"/>
    <path d="M110.258 151.253L110.27 152.144L110.795 152.278L111.361 152.515L111.975 152.872L112.207 153.101L112.299 153.241L112.336 153.386L112.33 153.544L112.273 153.585L111.959 153.593L111.006 153.466L108.85 153.054L109.17 150.774L110.258 151.253Z" fill="url(#paint27_linear_2653_5580)"/>
    <path d="M107.855 133.88L109.246 134.255L110.311 134.64L111.104 135.026L111.68 135.409L112.08 135.786L112.311 136.138L112.449 136.532L112.496 136.983L112.438 137.688L112.258 138.442L111.549 140.571L107.896 151.142L105.857 150.413L107.291 144.591L108.006 141.964L108.305 141.081L108.447 140.649L108.537 140.114L108.564 139.552L108.535 138.958L108.449 138.372L108.307 137.831L108.102 137.335L107.855 136.954L106.99 135.94L105.467 134.233L107.855 133.88Z" fill="url(#paint28_linear_2653_5580)"/>
    <path d="M103.27 135.036L103.084 136.067L103.033 136.917L103.09 137.612L103.24 138.183L103.469 138.651L103.775 139.034L105.137 139.163L107.959 139.364L108.109 144.903L108.258 147.692L108.453 149.948L108.652 151.737L110.732 151.626L111.236 139.798L111.176 138.634L111.023 137.71L110.799 136.985L110.516 136.423L110.18 135.995L109.625 135.499L109.064 135.13L108.496 134.874L107.912 134.722L103.27 135.036Z" fill="url(#paint29_linear_2653_5580)"/>
    <path fill-rule="evenodd" clip-rule="evenodd" d="M100.77 129.382L99.6914 131.286L99.6445 131.392L99.6172 131.622L99.7207 131.835L99.8027 131.921L103.406 133.72L103.43 132.144L101.662 131.323L102.666 129.792L100.77 129.382Z" fill="#FEE0BC"/>
    <path fill-rule="evenodd" clip-rule="evenodd" d="M114.082 129.382L115.158 131.286L115.205 131.392L115.232 131.622L115.129 131.835L115.047 131.921L111.457 133.804L111.426 132.144L113.189 131.323L112.188 129.792L114.082 129.382Z" fill="#FEE0BC"/>
    <path fill-rule="evenodd" clip-rule="evenodd" d="M106.404 123.688H108.35V125.636H106.404V123.688Z" fill="url(#paint30_linear_2653_5580)"/>
    <path fill-rule="evenodd" clip-rule="evenodd" d="M110.195 122.243L110.074 122.458L109.934 122.603L109.771 122.681L109.629 122.671L109.518 122.577L109.455 122.409V122.208L109.518 121.97L109.637 121.755L109.777 121.612L109.939 121.532L110.084 121.542L110.195 121.636L110.256 121.806L110.258 122.007L110.195 122.243Z" fill="#FEE0BC"/>
    <path fill-rule="evenodd" clip-rule="evenodd" d="M104.41 122.249L104.533 122.462L104.676 122.605L104.84 122.679L104.984 122.667L105.092 122.571L105.152 122.401L105.148 122.2L105.082 121.964L104.959 121.751L104.816 121.61L104.652 121.534L104.508 121.546L104.398 121.642L104.34 121.812L104.342 122.013L104.41 122.249Z" fill="#FEE0BC"/>
    <path fill-rule="evenodd" clip-rule="evenodd" d="M109.811 121.741L109.77 122.187L109.658 122.593L109.479 122.97L109.236 123.312L108.947 123.601L108.605 123.843L108.229 124.022L107.82 124.134L107.377 124.175L106.934 124.134L106.525 124.022L106.148 123.843L105.807 123.601L105.518 123.312L105.275 122.97L105.096 122.593L104.984 122.187L104.943 121.741L104.984 121.298L105.096 120.892L105.275 120.515L105.518 120.173L105.807 119.882L106.148 119.642L106.525 119.46L106.934 119.351L107.377 119.308L107.82 119.351L108.229 119.46L108.605 119.642L108.947 119.882L109.236 120.173L109.479 120.515L109.658 120.892L109.77 121.298L109.811 121.741Z" fill="url(#paint31_linear_2653_5580)"/>
    <path fill-rule="evenodd" clip-rule="evenodd" d="M108.273 117.483L108.234 117.71L108.129 117.907L107.953 118.085L107.736 118.218L107.48 118.302L107.18 118.335L106.877 118.302L106.623 118.218L106.404 118.085L106.229 117.907L106.125 117.71L106.084 117.483L106.125 117.257L106.229 117.06L106.404 116.882L106.623 116.749L106.877 116.665L107.18 116.632L107.48 116.665L107.736 116.749L107.953 116.882L108.129 117.06L108.234 117.257L108.273 117.483Z" fill="#483029"/>
    <path fill-rule="evenodd" clip-rule="evenodd" d="M104.598 121.985L105.723 121.325L106.477 120.786L106.947 120.351L107.211 119.997L107.326 119.706L107.486 120.015L107.775 120.378L108.127 120.722L108.537 121.056L108.971 121.353L109.375 121.577L109.773 121.735L110.055 121.782L110.221 121.226L110.309 120.694L110.312 120.341L110.258 119.991L110.145 119.642L109.971 119.315L109.707 118.974L109.332 118.614L108.793 118.235L108.254 117.991L107.707 117.868L107.137 117.858L106.537 117.97L105.891 118.214L105.187 118.614L104.791 119.007L104.508 119.417L104.328 119.849L104.24 120.31L104.25 120.812L104.363 121.364L104.598 121.985Z" fill="#483029"/>
    <path fill-rule="evenodd" clip-rule="evenodd" d="M106.393 124.706L107.326 125.71L108.336 124.651L110.271 125.079L110.422 125.114L110.762 125.241L110.951 125.347L111.129 125.491L111.879 126.274L112.656 127.13L113.264 127.821L113.51 128.104L114.553 129.263L114.133 129.704L113.66 130.085L113.107 130.409L112.633 130.636L112.432 130.72L111.613 129.937V135.427H103.275V129.86L102.791 130.458L102.582 130.411L102.074 130.263L101.449 130.011L100.85 129.653L100.297 129.226L102.754 126.2L103.236 125.753L103.721 125.415L104.354 125.192L105.221 124.972L106.033 124.786L106.393 124.706Z" fill="url(#paint32_linear_2653_5580)"/>
    <path fill-rule="evenodd" clip-rule="evenodd" d="M111.721 135.589H103.127V130.388L103.166 130.202L103.27 130.052L103.42 129.95L103.609 129.913H111.24L111.43 129.95L111.58 130.052L111.684 130.202L111.721 130.388V135.589Z" fill="#483029"/>
    <path fill-rule="evenodd" clip-rule="evenodd" d="M112.111 135.382H102.736V135.546L102.77 135.618L102.852 135.649H111.998L112.08 135.618L112.111 135.546V135.382Z" fill="#483029"/>
  </g>
  <defs>
    <linearGradient id="paint0_linear_2653_5580" x1="100" y1="101.119" x2="100" y2="173.321" gradientUnits="userSpaceOnUse">
      <stop stop-color="#CFDFFA"/>
      <stop offset="1" stop-color="#EAF0FC" stop-opacity="0"/>
    </linearGradient>
    <linearGradient id="paint1_linear_2653_5580" x1="149.609" y1="45.3602" x2="149.987" y2="51.8944" gradientUnits="userSpaceOnUse">
      <stop stop-color="#CFDFFA"/>
      <stop offset="1" stop-color="#EAF0FC" stop-opacity="0"/>
    </linearGradient>
    <linearGradient id="paint2_linear_2653_5580" x1="38.2813" y1="37.7549" x2="38.7153" y2="44.6024" gradientUnits="userSpaceOnUse">
      <stop stop-color="#CFDFFA"/>
      <stop offset="1" stop-color="#EAF0FC" stop-opacity="0"/>
    </linearGradient>
    <linearGradient id="paint3_linear_2653_5580" x1="44.9619" y1="146.989" x2="46.2432" y2="155.913" gradientUnits="userSpaceOnUse">
      <stop stop-color="#BFD4FA"/>
      <stop offset="1" stop-color="#5792F0"/>
    </linearGradient>
    <linearGradient id="paint4_linear_2653_5580" x1="41.6094" y1="142.602" x2="42.6556" y2="160.908" gradientUnits="userSpaceOnUse">
      <stop stop-color="#BFD4FA"/>
      <stop offset="1" stop-color="#5792F0"/>
    </linearGradient>
    <linearGradient id="paint5_linear_2653_5580" x1="149.408" y1="142.316" x2="151.198" y2="150.983" gradientUnits="userSpaceOnUse">
      <stop stop-color="#BFD4FA"/>
      <stop offset="1" stop-color="#5792F0"/>
    </linearGradient>
    <linearGradient id="paint6_linear_2653_5580" x1="150.747" y1="134.7" x2="152.366" y2="154.297" gradientUnits="userSpaceOnUse">
      <stop stop-color="#BFD4FA"/>
      <stop offset="1" stop-color="#5792F0"/>
    </linearGradient>
    <linearGradient id="paint7_linear_2653_5580" x1="154.176" y1="132.25" x2="155.414" y2="153.726" gradientUnits="userSpaceOnUse">
      <stop stop-color="#BFD4FA"/>
      <stop offset="1" stop-color="#5792F0"/>
    </linearGradient>
    <linearGradient id="paint8_linear_2653_5580" x1="157.938" y1="135.196" x2="159.695" y2="153.719" gradientUnits="userSpaceOnUse">
      <stop stop-color="#BFD4FA"/>
      <stop offset="1" stop-color="#5792F0"/>
    </linearGradient>
    <linearGradient id="paint9_linear_2653_5580" x1="151.977" y1="147.241" x2="154.807" y2="150.226" gradientUnits="userSpaceOnUse">
      <stop stop-color="#BFD4FA"/>
      <stop offset="1" stop-color="#5792F0"/>
    </linearGradient>
    <linearGradient id="paint10_linear_2653_5580" x1="114.844" y1="94.5774" x2="114.122" y2="191.59" gradientUnits="userSpaceOnUse">
      <stop stop-color="#5792F0"/>
      <stop offset="1" stop-color="#BFD4FA" stop-opacity="0"/>
    </linearGradient>
    <linearGradient id="paint11_linear_2653_5580" x1="116.216" y1="109.404" x2="52.4441" y2="66.6715" gradientUnits="userSpaceOnUse">
      <stop stop-color="#5792F0"/>
      <stop offset="1" stop-color="#BFD4FA"/>
    </linearGradient>
    <linearGradient id="paint12_linear_2653_5580" x1="165.403" y1="269.856" x2="30.0585" y2="99.8213" gradientUnits="userSpaceOnUse">
      <stop stop-color="#5792F0"/>
      <stop offset="1" stop-color="#BFD4FA"/>
    </linearGradient>
    <linearGradient id="paint13_linear_2653_5580" x1="153.644" y1="111.689" x2="119.489" y2="126.263" gradientUnits="userSpaceOnUse">
      <stop stop-color="#5792F0"/>
      <stop offset="1" stop-color="#BFD4FA"/>
    </linearGradient>
    <linearGradient id="paint14_linear_2653_5580" x1="142.718" y1="79.9313" x2="68.9055" y2="75.2712" gradientUnits="userSpaceOnUse">
      <stop stop-color="#5792F0"/>
      <stop offset="1" stop-color="#BFD4FA"/>
    </linearGradient>
    <linearGradient id="paint15_linear_2653_5580" x1="141.936" y1="87.7438" x2="68.1242" y2="83.0837" gradientUnits="userSpaceOnUse">
      <stop stop-color="#5792F0"/>
      <stop offset="1" stop-color="#BFD4FA"/>
    </linearGradient>
    <linearGradient id="paint16_linear_2653_5580" x1="106.906" y1="95.6109" x2="70.4217" y2="91.0042" gradientUnits="userSpaceOnUse">
      <stop stop-color="#5792F0"/>
      <stop offset="1" stop-color="#BFD4FA"/>
    </linearGradient>
    <linearGradient id="paint17_linear_2653_5580" x1="95.7624" y1="98.7745" x2="90.2046" y2="94.096" gradientUnits="userSpaceOnUse">
      <stop stop-color="#5792F0"/>
      <stop offset="1" stop-color="#BFD4FA"/>
    </linearGradient>
    <linearGradient id="paint18_linear_2653_5580" x1="140.023" y1="103.377" x2="66.0022" y2="100.144" gradientUnits="userSpaceOnUse">
      <stop stop-color="#5792F0"/>
      <stop offset="1" stop-color="#BFD4FA"/>
    </linearGradient>
    <linearGradient id="paint19_linear_2653_5580" x1="137.646" y1="111.198" x2="63.6128" y2="108.729" gradientUnits="userSpaceOnUse">
      <stop stop-color="#5792F0"/>
      <stop offset="1" stop-color="#BFD4FA"/>
    </linearGradient>
    <linearGradient id="paint20_linear_2653_5580" x1="100.719" y1="118.816" x2="63.7833" y2="116.138" gradientUnits="userSpaceOnUse">
      <stop stop-color="#5792F0"/>
      <stop offset="1" stop-color="#BFD4FA"/>
    </linearGradient>
    <linearGradient id="paint21_linear_2653_5580" x1="102.522" y1="67.4252" x2="78.5949" y2="57.8158" gradientUnits="userSpaceOnUse">
      <stop stop-color="#5792F0"/>
      <stop offset="1" stop-color="#BFD4FA"/>
    </linearGradient>
    <linearGradient id="paint22_linear_2653_5580" x1="103.948" y1="61.7893" x2="75.1868" y2="57.6181" gradientUnits="userSpaceOnUse">
      <stop stop-color="#5792F0"/>
      <stop offset="1" stop-color="#BFD4FA"/>
    </linearGradient>
    <linearGradient id="paint23_linear_2653_5580" x1="94.1612" y1="58.2745" x2="84.6762" y2="53.3212" gradientUnits="userSpaceOnUse">
      <stop stop-color="#5792F0"/>
      <stop offset="1" stop-color="#BFD4FA"/>
    </linearGradient>
    <linearGradient id="paint24_linear_2653_5580" x1="-3.26742" y1="232.659" x2="131.835" y2="104.745" gradientUnits="userSpaceOnUse">
      <stop stop-color="#5792F0"/>
      <stop offset="1" stop-color="#BFD4FA"/>
    </linearGradient>
    <linearGradient id="paint25_linear_2653_5580" x1="76.5625" y1="133.715" x2="147.698" y2="96.5659" gradientUnits="userSpaceOnUse">
      <stop stop-color="#5792F0"/>
      <stop offset="1" stop-color="#BFD4FA"/>
    </linearGradient>
    <linearGradient id="paint26_linear_2653_5580" x1="106.482" y1="150.129" x2="109.333" y2="152.231" gradientUnits="userSpaceOnUse">
      <stop stop-color="#BFD4FA"/>
      <stop offset="1" stop-color="#5792F0"/>
    </linearGradient>
    <linearGradient id="paint27_linear_2653_5580" x1="109.35" y1="151.104" x2="111.876" y2="153.364" gradientUnits="userSpaceOnUse">
      <stop stop-color="#BFD4FA"/>
      <stop offset="1" stop-color="#5792F0"/>
    </linearGradient>
    <linearGradient id="paint28_linear_2653_5580" x1="107.316" y1="154.894" x2="120.18" y2="136.691" gradientUnits="userSpaceOnUse">
      <stop stop-color="#5792F0"/>
      <stop offset="1" stop-color="#BFD4FA"/>
    </linearGradient>
    <linearGradient id="paint29_linear_2653_5580" x1="105.077" y1="129.378" x2="111.469" y2="139.36" gradientUnits="userSpaceOnUse">
      <stop stop-color="#BFD4FA"/>
      <stop offset="1" stop-color="#5792F0"/>
    </linearGradient>
    <linearGradient id="paint30_linear_2653_5580" x1="107.377" y1="123.318" x2="107.377" y2="125.636" gradientUnits="userSpaceOnUse">
      <stop stop-color="#FFCDA5"/>
      <stop offset="1" stop-color="#FFE8D1"/>
    </linearGradient>
    <linearGradient id="paint31_linear_2653_5580" x1="107.377" y1="119.308" x2="107.377" y2="124.175" gradientUnits="userSpaceOnUse">
      <stop stop-color="#FFF2DF"/>
      <stop offset="1" stop-color="#FEE0BC"/>
    </linearGradient>
    <linearGradient id="paint32_linear_2653_5580" x1="107.425" y1="124.651" x2="107.425" y2="135.427" gradientUnits="userSpaceOnUse">
      <stop stop-color="#FEE127"/>
      <stop offset="1" stop-color="#F9AB21"/>
    </linearGradient>
    <clipPath id="clip0_2653_5580">
      <rect width="200" height="200" fill="white" transform="translate(0 0.420898)"/>
    </clipPath>
  </defs>
</svg>