<svg xmlns="http://www.w3.org/2000/svg" width="16" height="16" viewBox="0 0 16 16" fill="none">
  <path fill-rule="evenodd" clip-rule="evenodd" d="M0.93335 3.19977C0.93335 1.94793 1.94817 0.933105 3.20002 0.933105H12.8C14.0519 0.933105 15.0667 1.94793 15.0667 3.19977V12.7998C15.0667 14.0516 14.0519 15.0664 12.8 15.0664H3.20002C1.94817 15.0664 0.93335 14.0516 0.93335 12.7998V3.19977ZM3.20002 2.26644C2.68455 2.26644 2.26668 2.68431 2.26668 3.19977V12.7998C2.26668 13.3152 2.68455 13.7331 3.20002 13.7331H12.8C13.3155 13.7331 13.7333 13.3152 13.7333 12.7998V3.19977C13.7333 2.68431 13.3155 2.26644 12.8 2.26644H3.20002ZM4.93335 5.59977C4.93335 5.01067 5.41091 4.5331 6.00002 4.5331H10C10.5891 4.5331 11.0667 5.01067 11.0667 5.59977V6.35271C11.0667 6.7209 10.7682 7.01938 10.4 7.01938C10.0318 7.01938 9.73335 6.7209 9.73335 6.35271V5.86644H8.74944V10.1331H9.41874C9.78693 10.1331 10.0854 10.4316 10.0854 10.7998C10.0854 11.168 9.78693 11.4664 9.41874 11.4664H6.80593C6.43774 11.4664 6.13926 11.168 6.13926 10.7998C6.13926 10.4316 6.43774 10.1331 6.80593 10.1331H7.41611V5.86644H6.26668V6.18801C6.26668 6.5562 5.96821 6.85467 5.60002 6.85467C5.23183 6.85467 4.93335 6.5562 4.93335 6.18801V5.59977Z" fill="#3C485C"/>
</svg>