<svg xmlns="http://www.w3.org/2000/svg" width="12" height="13" viewBox="0 0 12 13" fill="none">
  <path d="M6.82501 6.7098C6.82501 6.489 6.90061 6.2742 7.03861 6.1014L9.17581 3.4296C9.20766 3.38974 9.22501 3.34023 9.22501 3.2892V2.8998C9.22501 2.84013 9.20131 2.7829 9.15911 2.74071C9.11692 2.69851 9.05969 2.6748 9.00001 2.6748H3.00001C2.94034 2.6748 2.88311 2.69851 2.84092 2.74071C2.79872 2.7829 2.77501 2.84013 2.77501 2.8998V3.2898C2.77501 3.3402 2.79241 3.39 2.82421 3.4296L4.96201 6.1014C5.10001 6.2742 5.17561 6.489 5.17561 6.7104V9.729C5.17561 9.81421 5.22361 9.8922 5.29981 9.93001L6.82561 10.6932V6.7098H6.82501ZM3.00001 1.9254H9.00001C9.53821 1.9254 9.97501 2.3622 9.97501 2.9004V3.2904C9.97501 3.5112 9.89941 3.726 9.76141 3.8988L7.62421 6.5706C7.59237 6.61047 7.57502 6.65998 7.57501 6.711V10.815C7.57499 10.93 7.54556 11.0432 7.48952 11.1436C7.43348 11.2441 7.3527 11.3286 7.25484 11.389C7.15698 11.4495 7.04529 11.484 6.93037 11.4891C6.81545 11.4943 6.70111 11.47 6.59821 11.4186L4.96381 10.6014C4.80193 10.5204 4.66579 10.396 4.57063 10.242C4.47547 10.088 4.42505 9.91061 4.42501 9.72961V6.711C4.42501 6.65998 4.40766 6.61047 4.37581 6.5706L2.23801 3.8982C2.09975 3.72534 2.02442 3.51057 2.02441 3.2892V2.8998C2.02441 2.3616 2.46121 1.9248 2.99941 1.9248L3.00001 1.9254Z" fill="#97A3B7"/>
</svg>