<svg xmlns="http://www.w3.org/2000/svg" width="16" height="16" viewBox="0 0 16 16" fill="">
  <path fill-rule="evenodd" clip-rule="evenodd" d="M10.7294 6.88663C8.52453 6.88663 6.73964 8.58052 6.73964 10.6664C6.73964 11.5483 7.06162 12.3603 7.59358 12.9972H1.98694C1.44097 12.9972 1 12.5563 1 12.0103V1.98694C1 1.44097 1.44097 1 1.98694 1H10.8414C11.3873 1 11.8283 1.44097 11.8283 1.98694V7.03362C11.4783 6.94263 11.1144 6.88663 10.7294 6.88663ZM8.81151 3.35185H4.00281C3.63183 3.35185 3.33785 3.65983 3.36585 4.03081C3.38685 4.36679 3.68083 4.62577 4.02381 4.62577H8.83251C9.19648 4.62577 9.49047 4.31779 9.46947 3.94681C9.44847 3.61084 9.15449 3.35185 8.81151 3.35185ZM3.36585 6.78164C3.38685 7.11761 3.68083 7.3766 4.02381 7.3766H6.70464C7.06862 7.3766 7.3626 7.06862 7.3416 6.69764C7.3206 6.36166 7.02662 6.10268 6.68364 6.10268H4.00281C3.63883 6.10268 3.34485 6.41066 3.36585 6.78164ZM13.1932 12.1643L14.8101 13.7812C15.0621 14.0262 15.0621 14.4321 14.8171 14.6841C14.6911 14.8101 14.5301 14.8731 14.3622 14.8731C14.1942 14.8731 14.0332 14.8101 13.9072 14.6841L12.3813 13.1582C11.8913 13.5432 11.2754 13.7742 10.6104 13.7742C9.02149 13.7742 7.73357 12.4863 7.73357 10.8974C7.73357 9.30847 9.02149 8.02055 10.6104 8.02055C12.1993 8.02055 13.4872 9.30847 13.4872 10.8974C13.4872 11.3523 13.3822 11.7793 13.1932 12.1643ZM9.01449 10.8974C9.01449 11.7793 9.72845 12.4933 10.6104 12.4933C11.4923 12.4933 12.2063 11.7793 12.2063 10.8974C12.2063 10.0154 11.4923 9.30147 10.6104 9.30147C9.72845 9.30147 9.01449 10.0154 9.01449 10.8974Z" fill=""/>
</svg>

