<svg xmlns="http://www.w3.org/2000/svg" width="16" height="16" viewBox="0 0 16 16" fill="none">
  <path fill-rule="evenodd" clip-rule="evenodd" d="M0.933319 8.00002C0.933319 4.0972 4.09717 0.93335 7.99998 0.93335C11.9028 0.93335 15.0667 4.0972 15.0667 8.00002C15.0667 11.9028 11.9028 15.0667 7.99998 15.0667C4.09717 15.0667 0.933319 11.9028 0.933319 8.00002ZM7.99998 2.26668C4.83355 2.26668 2.26665 4.83358 2.26665 8.00002C2.26665 11.1664 4.83355 13.7333 7.99998 13.7333C11.1664 13.7333 13.7333 11.1664 13.7333 8.00002C13.7333 4.83358 11.1664 2.26668 7.99998 2.26668ZM6.39999 4.93335C6.76818 4.93335 7.06665 5.23183 7.06665 5.60002V10.4C7.06665 10.7682 6.76818 11.0667 6.39999 11.0667C6.0318 11.0667 5.73332 10.7682 5.73332 10.4V5.60002C5.73332 5.23183 6.0318 4.93335 6.39999 4.93335ZM9.59998 4.93335C9.96817 4.93335 10.2667 5.23183 10.2667 5.60002V10.4C10.2667 10.7682 9.96817 11.0667 9.59998 11.0667C9.2318 11.0667 8.93332 10.7682 8.93332 10.4V5.60002C8.93332 5.23183 9.2318 4.93335 9.59998 4.93335Z" fill="#E31430"/>
</svg>