<svg width="20" height="20" viewBox="0 0 20 20" fill="none" xmlns="http://www.w3.org/2000/svg">
<path fill-rule="evenodd" clip-rule="evenodd" d="M4.11851 1.75L15.6504 1.75C16.9694 1.75 18.0189 2.83278 18.0189 4.14384V15.8562C18.0189 17.1672 16.9694 18.25 15.6504 18.25H4.11851C2.79949 18.25 1.75 17.1672 1.75 15.8562L1.75 4.14384C1.75 2.83278 2.79948 1.75 4.11851 1.75ZM15.6504 3.25L4.11851 3.25C3.64978 3.25 3.25 3.63916 3.25 4.14384V6.75849H16.5189V4.14384C16.5189 3.63916 16.1192 3.25 15.6504 3.25ZM16.5189 8.25849H3.25V11.767H16.5189V8.25849ZM16.5189 13.267H3.25V15.8562C3.25 16.3608 3.64978 16.75 4.11851 16.75H15.6504C16.1192 16.75 16.5189 16.3608 16.5189 15.8562V13.267Z" fill="#5F7292"/>
</svg>
