<svg width="16" height="16" viewBox="0 0 16 16" fill="" xmlns="http://www.w3.org/2000/svg">
<g id="&#229;&#134;&#153;&#228;&#189;&#156;">
<path id="Vector" d="M9.47118 4.99278C9.39261 4.99278 9.32654 4.966 9.27297 4.91243C9.21941 4.85886 9.17476 4.79636 9.13905 4.72493C9.10334 4.65351 9.07655 4.5803 9.0587 4.5053C9.04084 4.4303 9.03191 4.36781 9.03191 4.31781V3H9.05334C9.11762 3 9.17834 3.00714 9.23548 3.02143C9.29262 3.03571 9.36226 3.06964 9.4444 3.12321C9.52654 3.17678 9.62653 3.25178 9.74439 3.3482C9.86224 3.44463 10.0104 3.57141 10.189 3.72854C10.3819 3.89997 10.5354 4.0446 10.6497 4.16246C10.764 4.28031 10.8515 4.3803 10.9122 4.46244C10.9729 4.54458 11.0104 4.61422 11.0247 4.67136C11.039 4.72851 11.0461 4.7785 11.0461 4.82136V4.99278H9.47118ZM12.8032 10.039C12.8246 10.0962 12.8389 10.1676 12.8461 10.2533C12.8532 10.339 12.8175 10.4211 12.7389 10.4997C12.7032 10.5354 12.6711 10.5694 12.6425 10.6015C12.6139 10.6336 12.5889 10.6604 12.5675 10.6819C12.5389 10.7104 12.5139 10.7318 12.4925 10.7461L11.5818 9.84617C11.6247 9.81046 11.6729 9.7676 11.7265 9.7176C11.78 9.6676 11.8247 9.62832 11.8604 9.59975C11.9461 9.52118 12.0389 9.48725 12.1389 9.49797C12.2389 9.50868 12.3211 9.53189 12.3854 9.56761C12.4568 9.60332 12.5336 9.66582 12.6157 9.7551C12.6978 9.84438 12.7603 9.93902 12.8032 10.039ZM9.0212 11.0354C9.17834 11.0354 9.31047 10.9926 9.41761 10.9068L7.33912 13.071H4.38209C4.24638 13.071 4.09817 13.0318 3.93746 12.9532C3.77676 12.8746 3.62676 12.7711 3.48748 12.6425C3.3482 12.5139 3.23213 12.3657 3.13928 12.1979C3.04643 12.03 3 11.8568 3 11.6782V4.38209C3 4.2321 3.03393 4.07496 3.10178 3.91068C3.16964 3.7464 3.26249 3.59819 3.38034 3.46605C3.4982 3.33392 3.63212 3.22321 3.78211 3.13392C3.93211 3.04464 4.08924 3 4.25352 3H8.35694V4.33923C8.35694 4.47494 8.37837 4.62137 8.42122 4.7785C8.46408 4.93564 8.53015 5.08028 8.61943 5.21242C8.70871 5.34455 8.82478 5.45526 8.96763 5.54455C9.11048 5.63383 9.2819 5.67847 9.4819 5.67847H11.0461V9.22476L9.57832 10.7461C9.65689 10.6319 9.69617 10.5069 9.69617 10.3711C9.69617 10.1854 9.6301 10.0265 9.49797 9.89438C9.36583 9.76224 9.20691 9.69617 9.0212 9.69617H5.00349C4.81779 9.69617 4.66065 9.76224 4.53208 9.89438C4.40352 10.0265 4.33923 10.1854 4.33923 10.3711C4.33923 10.5569 4.40352 10.714 4.53208 10.8426C4.66065 10.9711 4.81779 11.0354 5.00349 11.0354H9.0212ZM5.00349 7.0177C4.81779 7.0177 4.66065 7.08377 4.53208 7.21591C4.40352 7.34805 4.33923 7.50697 4.33923 7.69268C4.33923 7.87839 4.40352 8.03552 4.53208 8.16409C4.66065 8.29266 4.81779 8.35694 5.00349 8.35694H9.0212C9.20691 8.35694 9.36583 8.29266 9.49797 8.16409C9.6301 8.03552 9.69617 7.87839 9.69617 7.69268C9.69617 7.50697 9.6301 7.34805 9.49797 7.21591C9.36583 7.08377 9.20691 7.0177 9.0212 7.0177H5.00349ZM9.04263 12.3854L9.18191 12.2461L9.44975 11.9782C9.55689 11.8711 9.67475 11.7515 9.80331 11.6193C9.93188 11.4872 10.0604 11.3568 10.189 11.2283C10.4961 10.9211 10.8426 10.5783 11.2283 10.1997L12.1282 11.0997L11.089 12.1389L10.7033 12.5246L10.3497 12.8782C10.2497 12.9782 10.1658 13.0639 10.0979 13.1353C10.0301 13.2068 9.99259 13.246 9.98545 13.2532C9.94974 13.2818 9.91045 13.3121 9.8676 13.3442C9.82474 13.3764 9.78188 13.4032 9.73903 13.4246C9.69617 13.446 9.6301 13.4728 9.54082 13.505C9.45154 13.5371 9.36047 13.5675 9.26762 13.596C9.17476 13.6246 9.08548 13.6496 8.99977 13.671C8.91406 13.6925 8.84978 13.7067 8.80692 13.7139C8.72121 13.7282 8.66407 13.7174 8.6355 13.6817C8.60693 13.646 8.59979 13.5853 8.61407 13.4996C8.62121 13.4567 8.6355 13.3925 8.65693 13.3068C8.67835 13.221 8.70335 13.1335 8.73192 13.0443C8.76049 12.955 8.78728 12.8711 8.81228 12.7925C8.83728 12.7139 8.85692 12.6603 8.8712 12.6318C8.91406 12.5389 8.9712 12.4568 9.04263 12.3854Z" fill=""/>
</g>
</svg>
